<svg width="600" height="500" viewBox="0 0 600 500" fill="none" xmlns="http://www.w3.org/2000/svg">
<path fill-rule="evenodd" clip-rule="evenodd" d="M13 0C5.82322 0 0 5.82322 0 13C0 20.1768 5.82322 26 13 26C20.1627 26 26 20.1768 26 13C26 5.82322 20.1627 0 13 0ZM21.5868 5.9924C23.1377 7.88177 24.0683 10.2929 24.0965 12.9013C23.7299 12.8308 20.064 12.0835 16.3699 12.5488C16.2853 12.3655 16.2147 12.1681 16.1302 11.9707C15.9046 11.4349 15.6508 10.885 15.397 10.3633C19.4859 8.69957 21.3471 6.30261 21.5868 5.9924ZM13 1.91757C15.82 1.91757 18.4002 2.97505 20.3601 4.70933C20.1627 4.99132 18.4848 7.2332 14.5369 8.71367C12.718 5.37202 10.7017 2.63666 10.3915 2.21367C11.2234 2.01627 12.0976 1.91757 13 1.91757ZM8.27658 2.96096C8.57267 3.35574 10.5466 6.10522 12.3937 9.37635C7.20499 10.7581 2.62257 10.7299 2.12907 10.7299C2.84814 7.28959 5.17462 4.42733 8.27658 2.96096ZM1.88937 13.0141C1.88937 12.9013 1.88937 12.7885 1.88937 12.6757C2.36876 12.6898 7.75489 12.7603 13.2961 11.0965C13.6204 11.7169 13.9165 12.3514 14.1985 12.9859C14.0575 13.0282 13.9024 13.0705 13.7614 13.1128C8.03689 14.9599 4.99132 20.0076 4.73754 20.4306C2.97505 18.4707 1.88937 15.8623 1.88937 13.0141ZM13 24.1106C10.4339 24.1106 8.06507 23.2364 6.18979 21.7701C6.38721 21.3612 8.64318 17.0184 14.9035 14.833C14.9317 14.8189 14.9458 14.8189 14.974 14.8048C16.539 18.8514 17.1735 22.2494 17.3427 23.2223C16.0033 23.8004 14.5369 24.1106 13 24.1106ZM19.1898 22.2072C19.077 21.5304 18.4848 18.2874 17.0325 14.2972C20.5152 13.7473 23.5607 14.6497 23.9414 14.7766C23.462 17.8644 21.6855 20.5293 19.1898 22.2072Z" fill="#E84F89"/>
<path fill-rule="evenodd" clip-rule="evenodd" d="M33.8081 23.5059V13.4921H30V9.08194H33.8081V5.82956C33.8081 2.05525 36.1133 0 39.4803 0C41.0932 0 42.4794 0.120077 42.8833 0.173822V4.11832L40.548 4.11934C38.717 4.11934 38.3625 4.98947 38.3625 6.26632V9.08194H42.7296L42.1608 13.4921H38.3625V23.5059H33.8081Z" fill="#4469B0"/>
</svg>
