<svg width="36" height="11" viewBox="0 0 36 11" fill="none" xmlns="http://www.w3.org/2000/svg">
<path opacity="0.3" d="M34.5 1.5V5.5C34.5 6.60457 33.6046 7.5 32.5 7.5H28.5M28.5 7.5L30.5 5.5M28.5 7.5L30.5 9.5" stroke="#283744" stroke-width="1.5" stroke-linecap="round" stroke-linejoin="round"/>
<g opacity="0.3">
<path d="M5.25 9.00003H0.809998V1.91003H5.25V3.21003H2.19V4.83003H4.96V6.06003H2.19V7.70003H5.25V9.00003Z" fill="#283744"/>
<path d="M7.80172 6.17003V9.00003H6.47172V4.08003H7.76172V4.69003C7.90172 4.45003 8.10172 4.2667 8.36172 4.14003C8.62172 4.01337 8.89505 3.95003 9.18172 3.95003C9.76172 3.95003 10.2017 4.13337 10.5017 4.50003C10.8084 4.86003 10.9617 5.3267 10.9617 5.90003V9.00003H9.63172V6.13003C9.63172 5.8367 9.55505 5.60003 9.40172 5.42003C9.25505 5.24003 9.02838 5.15003 8.72172 5.15003C8.44172 5.15003 8.21838 5.2467 8.05172 5.44003C7.88505 5.63337 7.80172 5.8767 7.80172 6.17003Z" fill="#283744"/>
<path d="M13.9516 2.61003V4.08003H14.9416V5.26003H13.9516V7.32003C13.9516 7.5267 13.9982 7.67337 14.0916 7.76004C14.1849 7.8467 14.3316 7.89004 14.5316 7.89004C14.7116 7.89004 14.8482 7.8767 14.9416 7.85004V8.95003C14.7482 9.03003 14.4982 9.07003 14.1916 9.07003C13.7116 9.07003 13.3316 8.9367 13.0516 8.67003C12.7716 8.3967 12.6316 8.02337 12.6316 7.55003V5.26003H11.7416V4.08003H11.9916C12.2382 4.08003 12.4249 4.01003 12.5516 3.87003C12.6849 3.72337 12.7516 3.53337 12.7516 3.30003V2.61003H13.9516Z" fill="#283744"/>
<path d="M16.9925 5.98003H19.1925C19.1792 5.7067 19.0792 5.4767 18.8925 5.29003C18.7125 5.10337 18.4458 5.01003 18.0925 5.01003C17.7725 5.01003 17.5125 5.11003 17.3125 5.31003C17.1125 5.51003 17.0058 5.73337 16.9925 5.98003ZM19.3225 7.26004L20.4325 7.59003C20.2992 8.04337 20.0358 8.4167 19.6425 8.71003C19.2558 9.00337 18.7725 9.15003 18.1925 9.15003C17.4858 9.15003 16.8858 8.91337 16.3925 8.44003C15.8992 7.96003 15.6525 7.32003 15.6525 6.52003C15.6525 5.76003 15.8925 5.14003 16.3725 4.66003C16.8525 4.17337 17.4192 3.93003 18.0725 3.93003C18.8325 3.93003 19.4258 4.1567 19.8525 4.61003C20.2858 5.06337 20.5025 5.6867 20.5025 6.48003C20.5025 6.53337 20.4992 6.59337 20.4925 6.66003C20.4925 6.7267 20.4925 6.78003 20.4925 6.82003L20.4825 6.89003H16.9625C16.9758 7.21003 17.1025 7.4767 17.3425 7.69003C17.5825 7.90337 17.8692 8.01004 18.2025 8.01004C18.7692 8.01004 19.1425 7.76004 19.3225 7.26004Z" fill="#283744"/>
<path d="M24.5498 4.06003V5.40003C24.4165 5.37337 24.2832 5.36003 24.1498 5.36003C23.7698 5.36003 23.4632 5.47003 23.2298 5.69003C22.9965 5.90337 22.8798 6.2567 22.8798 6.75003V9.00003H21.5498V4.08003H22.8398V4.81003C23.0798 4.2967 23.5465 4.04003 24.2398 4.04003C24.3132 4.04003 24.4165 4.0467 24.5498 4.06003Z" fill="#283744"/>
</g>
</svg>
