<svg fill="none" height="696" viewBox="0 0 696 696" width="696" xmlns="http://www.w3.org/2000/svg" xmlns:xlink="http://www.w3.org/1999/xlink"><filter id="a" color-interpolation-filters="sRGB" filterUnits="userSpaceOnUse" height="579.137" width="409.645" x="144.43" y="60.561"><feFlood flood-opacity="0" result="BackgroundImageFix"/><feColorMatrix in="SourceAlpha" result="hardAlpha" type="matrix" values="0 0 0 0 0 0 0 0 0 0 0 0 0 0 0 0 0 0 127 0"/><feOffset dx="1.70331" dy="2.55496"/><feGaussianBlur stdDeviation=".851653"/><feComposite in2="hardAlpha" operator="out"/><feColorMatrix type="matrix" values="0 0 0 0 0 0 0 0 0 0 0 0 0 0 0 0 0 0 0.9 0"/><feBlend in2="BackgroundImageFix" mode="normal" result="effect1_dropShadow_910_51987"/><feBlend in="SourceGraphic" in2="effect1_dropShadow_910_51987" mode="normal" result="shape"/></filter><path d="m0 0h696v696h-696z" fill="#242424"/><g filter="url(#a)"><path d="m0 0h406.238v574.878h-406.238z" fill="#e8fff9" transform="translate(144.43 60.561)"/><g fill="#00644b"><path d="m166.721 83.3857c.448 0 .817.1352 1.106.4117.288.2765.436.6329.436 1.0815 0 .3502-.104.6698-.313.9524l-1.653 2.2122h-.664l1.241-1.6653c-.03.0062-.086.0062-.153.0062-.443 0-.811-.1414-1.1-.4179s-.437-.639-.437-1.0876.148-.805.437-1.0815.657-.4117 1.1-.4117zm0 2.5071c.338 0 .596-.1168.774-.3441.135-.1721.203-.3871.203-.6514 0-.6144-.406-1.0077-.977-1.0077-.566 0-.971.3994-.971 1.0077 0 .6084.405.9955.971.9955zm5.788-2.4456 1.924 4.5963h-.615l-.479-1.1676h-2.132l-.486 1.1676h-.614l1.923-4.5963zm-.233.8664-.86 2.0708h1.714zm4.408.5407c.436 0 .799.1475 1.081.4424.289.2888.431.6821.431 1.1798 0 .4978-.142.891-.431 1.186-.282.2949-.645.4424-1.081.4424-.51 0-.897-.2089-1.088-.5284v2.0339h-.528v-4.7008h.504v.5162c.19-.3441.59-.5715 1.112-.5715zm-.08.4609c-.596 0-1.002.3871-1.002 1.0753v.1844c0 .682.406 1.0691 1.002 1.0691.615 0 1.051-.4301 1.051-1.1613 0-.7374-.436-1.1675-1.051-1.1675zm4.07-.4609c.437 0 .799.1475 1.082.4424.289.2888.43.6821.43 1.1798 0 .4978-.141.891-.43 1.186-.283.2949-.645.4424-1.082.4424-.51 0-.897-.2089-1.087-.5284v2.0339h-.529v-4.7008h.504v.5162c.191-.3441.59-.5715 1.112-.5715zm-.079.4609c-.596 0-1.002.3871-1.002 1.0753v.1844c0 .682.406 1.0691 1.002 1.0691.614 0 1.05-.4301 1.05-1.1613 0-.7374-.436-1.1675-1.05-1.1675zm2.7-.0123c.307-.3011.694-.4486 1.155-.4486s.848.1475 1.149.4486c.307.2949.461.6882.461 1.1736 0 .4855-.154.8787-.461 1.1798-.301.3011-.688.4486-1.149.4486s-.848-.1475-1.155-.4486c-.301-.3011-.455-.6943-.455-1.1798 0-.4854.154-.8787.455-1.1736zm1.923.3257c-.203-.209-.455-.3134-.768-.3134s-.572.1044-.774.3134c-.203.2089-.301.4915-.301.8479s.098.6391.301.8542c.202.2089.461.3133.774.3133s.565-.1044.768-.3133c.203-.2151.307-.4978.307-.8542s-.104-.639-.307-.8479zm2.236-2.3596v4.7745h-.529v-4.7745zm3.986 0v4.7745h-.498v-.5101c-.19.338-.596.5715-1.112.5715-.436 0-.799-.1475-1.087-.4363-.283-.2949-.424-.6882-.424-1.1859s.141-.891.424-1.186c.288-.2949.651-.4424 1.087-.4424.51 0 .904.2151 1.082.5285v-2.1138zm-1.536 2.0462c-.614 0-1.051.4301-1.051 1.1613 0 .7374.437 1.1675 1.051 1.1675.596 0 1.008-.3871 1.008-1.0753v-.1843c0-.6882-.412-1.0692-1.008-1.0692zm5.547-1.9295c.461 0 .836.1168 1.124.3441.289.2274.443.5346.461.934l-.571.0369c-.031-.5162-.418-.8234-1.002-.8234-.639 0-.995.3257-.995.7927 0 .2519.086.424.252.5284.172.1045.461.1967.866.2888.547.1291.86.2335 1.155.4302.301.1905.43.467.43.8602 0 .4363-.153.7681-.46.9955-.302.2212-.695.3318-1.174.3318-.498 0-.903-.1167-1.229-.3564-.326-.2396-.498-.5653-.516-.9832l.565-.0307c.019.2642.141.4793.363.6391.221.1597.491.2396.817.2396.645 0 1.063-.2581 1.063-.7927 0-.215-.086-.3809-.203-.4792-.055-.0554-.141-.1045-.264-.1537-.117-.0491-.227-.086-.326-.1106-.092-.0307-.233-.0676-.424-.1106-.246-.0553-.442-.1106-.59-.1597-.147-.0553-.301-.1291-.454-.2213-.301-.1904-.443-.4792-.443-.8971 0-.3748.135-.6821.4-.9279.27-.2519.657-.3748 1.155-.3748zm3.768 4.2215c.08 0 .185-.0123.307-.0307v.4731c-.141.0246-.282.0369-.424.0369-.596 0-.97-.3196-.964-.9832l.006-1.7328h-.584v-.4609h.584l.006-1.0815h.535l-.007 1.0815h.842v.4609h-.842l-.012 1.6283c0 .4056.184.6084.553.6084zm-30.907 4.84v.4977h-2.28v1.4809h2.01v.4854h-2.01v1.6345h2.28v.4978h-2.845v-4.5963zm2.844-.0615c.547 0 1.02.1536 1.407.4609.387.3072.621.7189.688 1.2412l-.584.0553c-.055-.3932-.227-.7005-.503-.9217-.277-.2212-.621-.3318-1.027-.3318-.497 0-.897.1659-1.204.4977s-.461.7865-.461 1.358c0 .5838.154 1.0446.467 1.3703s.719.4854 1.211.4854c.805 0 1.382-.4301 1.524-1.1859l.583.0491c-.086.5039-.319.9033-.7 1.1983-.381.2949-.842.4424-1.389.4424-.664 0-1.21-.2089-1.634-.6329s-.633-.9955-.633-1.7267.209-1.3027.626-1.7267c.424-.424.965-.6329 1.629-.6329zm4.053.0062c.842 0 1.321.4793 1.321 1.2842 0 .3503-.074.6698-.227.9463-.154.2765-.375.5653-.676.8787l-.996 1.0446h1.954v.4978h-2.722v-.4548l1.346-1.4194c.283-.295.479-.5407.59-.7435.11-.2028.166-.4486.166-.7251 0-.4977-.271-.8111-.744-.8111-.522 0-.805.3318-.811.9217l-.559-.0307c.018-.8787.504-1.3887 1.358-1.3887zm4.099.0553 1.924 4.5963h-.615l-.479-1.1676h-2.132l-.486 1.1676h-.614l1.923-4.5963zm-.233.8664-.86 2.0708h1.714zm5.411-.9217c.842 0 1.321.4793 1.321 1.2842 0 .3503-.073.6698-.227.9463s-.375.5653-.676.8787l-.995 1.0446h1.954v.4978h-2.723v-.4548l1.346-1.4194c.283-.295.479-.5407.59-.7435s.166-.4486.166-.7251c0-.4977-.27-.8111-.744-.8111-.522 0-.805.3318-.811.9217l-.559-.0307c.019-.8787.504-1.3887 1.358-1.3887zm4.1.0553 1.923 4.5963h-.615l-.479-1.1676h-2.132l-.486 1.1676h-.614l1.923-4.5963zm-.234.8664-.86 2.0708h1.714zm2.81 3.7299v-4.5963h1.801c.418 0 .756.1229 1.02.3625s.393.5838.393 1.0323c0 .4425-.129.7866-.393 1.0262-.264.2397-.602.3625-1.02.3625h-1.235v1.8128zm1.733-4.0986h-1.173v1.7881h1.173c.522 0 .903-.3195.903-.891 0-.5837-.381-.8971-.903-.8971zm-26.863 8.5021v4.099h2.305v.497h-2.87v-4.596zm3.293 1.856c.307-.301.694-.449 1.155-.449s.848.148 1.149.449c.307.295.461.688.461 1.174 0 .485-.154.878-.461 1.179-.301.301-.688.449-1.149.449s-.848-.148-1.155-.449c-.301-.301-.455-.694-.455-1.179 0-.486.154-.879.455-1.174zm1.923.326c-.203-.209-.454-.314-.768-.314-.313 0-.571.105-.774.314-.203.208-.301.491-.301.848 0 .356.098.639.301.854.203.209.461.313.774.313.314 0 .565-.104.768-.313.203-.215.307-.498.307-.854 0-.357-.104-.64-.307-.848zm3.189-.775c.356 0 .645.117.872.351.227.233.344.546.344.934v1.904h-.534v-1.837c0-.516-.32-.86-.793-.86-.246 0-.449.086-.608.252-.154.166-.234.375-.234.614v1.831h-.528v-3.133h.503v.467c.166-.301.511-.523.978-.523zm5.176-1.585v4.774h-.498v-.51c-.191.338-.596.572-1.112.572-.436 0-.799-.148-1.088-.436-.283-.295-.424-.689-.424-1.186 0-.498.141-.891.424-1.186.289-.295.652-.443 1.088-.443.51 0 .903.215 1.081.529v-2.114zm-1.536 2.046c-.615 0-1.051.43-1.051 1.162 0 .737.436 1.167 1.051 1.167.596 0 1.007-.387 1.007-1.075v-.185c0-.688-.411-1.069-1.007-1.069zm2.859-.012c.308-.301.695-.449 1.156-.449.46 0 .848.148 1.149.449.307.295.461.688.461 1.174 0 .485-.154.878-.461 1.179-.301.301-.689.449-1.149.449-.461 0-.848-.148-1.156-.449-.301-.301-.454-.694-.454-1.179 0-.486.153-.879.454-1.174zm1.924.326c-.203-.209-.455-.314-.768-.314-.314 0-.572.105-.775.314-.202.208-.301.491-.301.848 0 .356.099.639.301.854.203.209.461.313.775.313.313 0 .565-.104.768-.313.202-.215.307-.498.307-.854 0-.357-.105-.64-.307-.848zm3.188-.775c.356 0 .645.117.873.351.227.233.344.546.344.934v1.904h-.535v-1.837c0-.516-.319-.86-.793-.86-.245 0-.448.086-.608.252-.154.166-.233.375-.233.614v1.831h-.529v-3.133h.504v.467c.166-.301.51-.523.977-.523zm2.356 2.526c.215 0 .338.166.338.412 0 .516-.234.903-.695 1.167v-.24c.209-.153.332-.362.363-.626-.197 0-.357-.154-.357-.351 0-.196.154-.362.351-.362zm5.699-3.933h.559v2.87c0 1.137-.701 1.788-1.831 1.788-1.131 0-1.832-.651-1.832-1.788v-2.87h.56v2.864c0 .841.467 1.29 1.272 1.29.792 0 1.272-.455 1.272-1.29zm4.877 0-1.758 1.954 2.009 2.642h-.688l-1.696-2.199-.553.62v1.579h-.565v-4.596h.565v2.182l1.96-2.182zm-29.089 10.463-1.192 3.133h-.424l-.842-2.242-.841 2.242h-.424l-1.192-3.133h.577l.842 2.273.848-2.273h.375l.854 2.273.848-2.273zm5.041 0-1.192 3.133h-.424l-.842-2.242-.842 2.242h-.424l-1.192-3.133h.578l.842 2.273.848-2.273h.374l.855 2.273.848-2.273zm5.041 0-1.192 3.133h-.424l-.842-2.242-.842 2.242h-.424l-1.192-3.133h.577l.842 2.273.848-2.273h.375l.854 2.273.848-2.273zm.18 2.464c.203 0 .369.166.369.368 0 .197-.166.363-.369.363-.197 0-.357-.166-.357-.363 0-.202.16-.368.357-.368zm1.419-2.071c.308-.301.695-.449 1.156-.449s.848.148 1.149.449c.307.295.461.688.461 1.174 0 .485-.154.878-.461 1.179-.301.301-.688.449-1.149.449s-.848-.148-1.156-.449c-.301-.301-.454-.694-.454-1.179 0-.486.153-.879.454-1.174zm1.924.326c-.203-.209-.455-.314-.768-.314-.314 0-.572.105-.775.314-.202.208-.301.491-.301.848 0 .356.099.639.301.854.203.209.461.313.775.313.313 0 .565-.104.768-.313.203-.215.307-.498.307-.854 0-.357-.104-.64-.307-.848zm3.323-.775c.437 0 .799.148 1.082.443.289.289.43.682.43 1.18 0 .497-.141.891-.43 1.185-.283.295-.645.443-1.082.443-.51 0-.897-.209-1.087-.529v2.034h-.529v-4.7h.504v.516c.191-.344.59-.572 1.112-.572zm-.08.461c-.596 0-1.001.387-1.001 1.076v.184c0 .682.405 1.069 1.001 1.069.615 0 1.051-.43 1.051-1.161 0-.738-.436-1.168-1.051-1.168zm2.455-2.046h.528v2.071c.154-.271.504-.486.953-.486.356 0 .645.117.872.351.227.233.344.546.344.934v1.904h-.534v-1.837c0-.516-.32-.86-.793-.86-.246 0-.449.086-.608.252-.154.166-.234.375-.234.614v1.831h-.528zm6.473 3.122v.288h-2.421c.031.596.424.965.984.965.46 0 .774-.209.878-.559l.529.031c-.068.288-.228.522-.48.712-.252.185-.559.277-.915.277-.461 0-.836-.148-1.125-.436-.288-.295-.43-.695-.43-1.192 0-.498.142-.898.43-1.186.289-.289.658-.437 1.113-.437.448 0 .798.142 1.05.418.258.277.387.652.387 1.119zm-1.444-1.076c-.559 0-.946.338-.977.934h1.893c-.018-.565-.332-.934-.916-.934zm2.832-2.046v4.774h-.528v-4.774zm1.32 2.034c.307-.301.694-.449 1.155-.449s.848.148 1.149.449c.307.295.461.688.461 1.174 0 .485-.154.878-.461 1.179-.301.301-.688.449-1.149.449s-.848-.148-1.155-.449c-.301-.301-.455-.694-.455-1.179 0-.486.154-.879.455-1.174zm1.923.326c-.203-.209-.455-.314-.768-.314-.314 0-.572.105-.774.314-.203.208-.302.491-.302.848 0 .356.099.639.302.854.202.209.46.313.774.313.313 0 .565-.104.768-.313.203-.215.307-.498.307-.854 0-.357-.104-.64-.307-.848zm2.672-.769c.67-.006 1.075.375 1.149.941l-.528.03c-.043-.35-.252-.522-.639-.516-.388-.006-.596.166-.596.455 0 .135.055.24.159.295.074.031.099.049.191.074l.117.03c.055.006.208.043.276.062.744.178 1.088.387 1.088.903 0 .615-.455.971-1.186.971-.707 0-1.162-.344-1.241-.953l.528-.036c.049.35.289.528.725.528.393 0 .645-.166.645-.467 0-.154-.055-.258-.16-.319-.104-.068-.307-.136-.614-.209l-.35-.086c-.08-.025-.178-.062-.283-.105-.295-.123-.399-.313-.43-.682 0-.559.43-.922 1.149-.916zm2.134 2.514c.203 0 .369.166.369.368 0 .197-.166.363-.369.363-.197 0-.356-.166-.356-.363 0-.202.159-.368.356-.368zm2.507-2.52c.375 0 .688.105.947.32.264.209.417.491.46.854l-.516.043c-.055-.467-.418-.762-.891-.762-.596 0-1.001.436-1.001 1.168 0 .731.411 1.167 1.001 1.167.492 0 .824-.27.897-.713l.517.049c-.117.695-.658 1.125-1.414 1.125-.448 0-.823-.148-1.112-.436-.289-.289-.43-.689-.43-1.192 0-.504.141-.898.43-1.186.289-.289.658-.437 1.112-.437zm2.465.449c.307-.301.694-.449 1.155-.449s.848.148 1.149.449c.308.295.461.688.461 1.174 0 .485-.153.878-.461 1.179-.301.301-.688.449-1.149.449s-.848-.148-1.155-.449c-.301-.301-.455-.694-.455-1.179 0-.486.154-.879.455-1.174zm1.923.326c-.202-.209-.454-.314-.768-.314-.313 0-.571.105-.774.314-.203.208-.301.491-.301.848 0 .356.098.639.301.854.203.209.461.313.774.313.314 0 .566-.104.768-.313.203-.215.308-.498.308-.854 0-.357-.105-.64-.308-.848zm5.241-.775c.35 0 .627.117.842.357.215.233.326.54.326.921v1.911h-.529v-1.837c0-.522-.295-.86-.762-.86-.442 0-.743.313-.786.756v.037 1.904h-.535v-1.837c0-.516-.301-.86-.744-.86-.239 0-.436.086-.589.252-.154.166-.228.375-.228.614v1.831h-.528v-3.133h.504v.473c.178-.35.497-.529.952-.529.461 0 .836.228 1.026.621.191-.375.566-.621 1.051-.621z"/><path d="m522.971 609.788c0-.547.154-1.02.461-1.407s.719-.621 1.241-.688l.056.584c-.394.055-.701.227-.922.503-.221.277-.332.621-.332 1.027 0 .497.166.897.498 1.204s.786.461 1.358.461c.584 0 1.044-.154 1.37-.467.326-.314.485-.719.485-1.211 0-.805-.43-1.382-1.185-1.524l.049-.583c.504.086.903.319 1.198.7s.442.842.442 1.389c0 .663-.209 1.21-.633 1.634s-.995.633-1.726.633-1.303-.209-1.727-.626c-.424-.424-.633-.965-.633-1.629zm1.917-3.234c-.301-.307-.448-.694-.448-1.155s.147-.848.448-1.149c.295-.307.689-.461 1.174-.461s.879.154 1.18.461c.301.301.448.688.448 1.149s-.147.848-.448 1.155c-.301.301-.695.455-1.18.455s-.879-.154-1.174-.455zm.326-1.923c-.209.203-.313.455-.313.768 0 .314.104.572.313.774.209.203.492.301.848.301s.639-.098.854-.301c.209-.202.313-.46.313-.774 0-.313-.104-.565-.313-.768-.215-.203-.498-.307-.854-.307s-.639.104-.848.307zm-.774-5.241c0-.35.117-.626.356-.841.234-.215.541-.326.922-.326h1.911v.528h-1.837c-.523 0-.861.295-.861.762 0 .443.314.744.756.787h.037 1.905v.534h-1.837c-.517 0-.861.302-.861.744 0 .24.086.436.252.59.166.153.375.227.615.227h1.831v.529h-3.134v-.504h.473c-.35-.178-.528-.498-.528-.953 0-.461.227-.835.62-1.026-.374-.19-.62-.565-.62-1.051zm0-3.825c0-.436.147-.799.442-1.082.289-.288.682-.43 1.18-.43s.891.142 1.186.43c.295.283.442.646.442 1.082 0 .51-.209.897-.528 1.087h2.034v.529h-4.701v-.504h.516c-.344-.19-.571-.59-.571-1.112zm.461.08c0 .596.387 1.001 1.075 1.001h.184c.682 0 1.069-.405 1.069-1.001 0-.615-.43-1.051-1.161-1.051-.737 0-1.167.436-1.167 1.051zm-.461-3.542c0-.768.436-1.198 1.216-1.198h1.973v.534h-.369c.289.24.43.553.43.934 0 .621-.331 1.026-.891 1.026-.583 0-.891-.381-.934-1.149l-.049-.811h-.147c-.51 0-.762.221-.762.658 0 .442.289.682.651.682l-.024.534c-.289 0-.541-.11-.762-.331-.222-.222-.332-.517-.332-.879zm1.929-.67h-.129l.049.75c.031.454.197.682.498.682s.449-.191.449-.572c0-.516-.277-.86-.867-.86zm-1.929-3.054c0-.356.117-.645.35-.872.234-.228.547-.345.934-.345h1.905v.535h-1.837c-.517 0-.861.32-.861.793 0 .246.086.448.252.608.166.154.375.234.615.234h1.831v.528h-3.134v-.504h.467c-.301-.166-.522-.51-.522-.977zm.055-4.863 4.701 1.978v.584l-1.739-.744-2.962 1.248v-.59l2.366-.946-2.366-.941zm-.055-3.574c0-.356.117-.645.35-.873.234-.227.547-.344.934-.344h1.905v.535h-1.837c-.517 0-.861.319-.861.793 0 .245.086.448.252.608.166.154.375.233.615.233h1.831v.529h-3.134v-.504h.467c-.301-.166-.522-.51-.522-.977zm.448-2.509c-.301-.308-.448-.695-.448-1.156 0-.46.147-.848.448-1.149.295-.307.689-.46 1.174-.46s.879.153 1.18.46c.301.301.448.689.448 1.149 0 .461-.147.848-.448 1.156-.301.301-.695.454-1.18.454s-.879-.153-1.174-.454zm.326-1.924c-.209.203-.313.455-.313.768 0 .314.104.572.313.775.209.202.492.301.848.301s.639-.099.854-.301c.209-.203.313-.461.313-.775 0-.313-.104-.565-.313-.768-.215-.202-.498-.307-.854-.307s-.639.105-.848.307zm1.745-1.745c0-.203.166-.369.369-.369.196 0 .362.166.362.369 0 .196-.166.356-.362.356-.203 0-.369-.16-.369-.356zm-3.926-3.824h4.596v.553h-3.841l.621.811-.436.276-.94-1.229zm-.056-2.256c0-.842.48-1.321 1.285-1.321.35 0 .669.074.946.227.276.154.565.375.879.676l1.044.996v-1.954h.498v2.722h-.455l-1.419-1.346c-.295-.283-.541-.479-.744-.59-.203-.11-.448-.166-.725-.166-.498 0-.811.271-.811.744 0 .522.332.805.922.811l-.031.559c-.879-.018-1.389-.504-1.389-1.358zm.056-3.325h4.596v.553h-3.841l.621.811-.436.277-.94-1.229zm-.062-2.403c0-.399.111-.731.338-.989.221-.265.522-.394.897-.394.467 0 .824.252.996.621.19-.442.596-.737 1.143-.737.411 0 .737.141.983.424.239.276.362.639.362 1.075s-.123.793-.362 1.075c-.246.277-.572.418-.983.418-.541 0-.947-.289-1.137-.731-.166.375-.529.621-1.002.621-.381 0-.682-.13-.903-.388s-.332-.59-.332-.995zm.504-.006c0 .485.289.829.762.829.461 0 .744-.344.744-.829 0-.473-.283-.824-.744-.824-.473 0-.762.351-.762.824zm2.231-.664c-.154.178-.234.4-.234.67s.08.492.234.67c.153.178.356.264.62.264s.473-.086.627-.264.233-.4.233-.67-.079-.492-.233-.67-.363-.264-.627-.264-.467.086-.62.264zm-.898-2.947c0-.406.129-.737.381-.989s.596-.381 1.033-.381c.436 0 .792.129 1.063.387.27.258.405.608.405 1.057 0 .86-.497 1.376-1.315 1.431l-.03-.565c.534-.049.841-.338.841-.872 0-.56-.387-.879-.952-.879-.559 0-.928.344-.928.866 0 .283.092.541.277.768v.516h-2.55v-2.537h.497v1.984h1.5c-.148-.233-.222-.497-.222-.786zm0-3.433c0-.405.129-.737.381-.989s.596-.381 1.033-.381c.436 0 .792.129 1.063.387.27.258.405.609.405 1.057 0 .86-.497 1.377-1.315 1.432l-.03-.565c.534-.05.841-.338.841-.873 0-.559-.387-.879-.952-.879-.559 0-.928.344-.928.867 0 .282.092.541.277.768v.516h-2.55v-2.538h.497v1.985h1.5c-.148-.233-.222-.498-.222-.787zm-1.837-3.493c0-.4.111-.732.338-.99.221-.264.522-.393.897-.393.467 0 .824.252.996.621.19-.443.596-.738 1.143-.738.411 0 .737.142.983.424.239.277.362.639.362 1.076 0 .436-.123.792-.362 1.075-.246.276-.572.418-.983.418-.541 0-.947-.289-1.137-.731-.166.374-.529.62-1.002.62-.381 0-.682-.129-.903-.387s-.332-.59-.332-.995zm.504-.007c0 .486.289.83.762.83.461 0 .744-.344.744-.83 0-.473-.283-.823-.744-.823-.473 0-.762.35-.762.823zm2.231-.663c-.154.178-.234.399-.234.67 0 .27.08.491.234.669.153.179.356.265.62.265s.473-.086.627-.265c.154-.178.233-.399.233-.669 0-.271-.079-.492-.233-.67s-.363-.264-.627-.264-.467.086-.62.264zm-2.735-3.009c0-.399.111-.731.338-.989.221-.264.522-.393.897-.393.467 0 .824.251.996.62.19-.442.596-.737 1.143-.737.411 0 .737.141.983.424.239.276.362.639.362 1.075s-.123.793-.362 1.075c-.246.277-.572.418-.983.418-.541 0-.947-.288-1.137-.731-.166.375-.529.621-1.002.621-.381 0-.682-.129-.903-.387-.221-.259-.332-.59-.332-.996zm.504-.006c0 .485.289.83.762.83.461 0 .744-.345.744-.83 0-.473-.283-.823-.744-.823-.473 0-.762.35-.762.823zm2.231-.664c-.154.179-.234.4-.234.67s.08.492.234.67c.153.178.356.264.62.264s.473-.086.627-.264.233-.4.233-.67-.079-.491-.233-.67c-.154-.178-.363-.264-.627-.264s-.467.086-.62.264z"/><path d="m522.971 156.535c0-.547.154-1.021.461-1.408s.719-.62 1.241-.688l.056.584c-.394.055-.701.227-.922.504-.221.276-.332.62-.332 1.026 0 .498.166.897.498 1.204.332.308.786.461 1.358.461.584 0 1.044-.153 1.37-.467.326-.313.485-.719.485-1.21 0-.805-.43-1.383-1.185-1.524l.049-.584c.504.086.903.32 1.198.7.295.381.442.842.442 1.389 0 .664-.209 1.211-.633 1.635s-.995.633-1.726.633-1.303-.209-1.727-.627c-.424-.424-.633-.965-.633-1.628zm1.917-3.234c-.301-.308-.448-.695-.448-1.155 0-.461.147-.848.448-1.15.295-.307.689-.46 1.174-.46s.879.153 1.18.46c.301.302.448.689.448 1.15 0 .46-.147.847-.448 1.155-.301.301-.695.454-1.18.454s-.879-.153-1.174-.454zm.326-1.924c-.209.203-.313.455-.313.769 0 .313.104.571.313.774s.492.301.848.301.639-.098.854-.301c.209-.203.313-.461.313-.774 0-.314-.104-.566-.313-.769-.215-.202-.498-.307-.854-.307s-.639.105-.848.307zm-.774-5.24c0-.35.117-.627.356-.842.234-.215.541-.326.922-.326h1.911v.529h-1.837c-.523 0-.861.295-.861.762 0 .442.314.743.756.786h.037 1.905v.535h-1.837c-.517 0-.861.301-.861.743 0 .24.086.437.252.59.166.154.375.228.615.228h1.831v.528h-3.134v-.504h.473c-.35-.178-.528-.498-.528-.952 0-.461.227-.836.62-1.026-.374-.191-.62-.566-.62-1.051zm0-3.826c0-.436.147-.799.442-1.081.289-.289.682-.43 1.18-.43s.891.141 1.186.43c.295.282.442.645.442 1.081 0 .51-.209.897-.528 1.088h2.034v.528h-4.701v-.504h.516c-.344-.19-.571-.589-.571-1.112zm.461.08c0 .596.387 1.002 1.075 1.002h.184c.682 0 1.069-.406 1.069-1.002 0-.614-.43-1.051-1.161-1.051-.737 0-1.167.437-1.167 1.051zm-.461-3.542c0-.768.436-1.198 1.216-1.198h1.973v.535h-.369c.289.239.43.553.43.934 0 .62-.331 1.026-.891 1.026-.583 0-.891-.381-.934-1.149l-.049-.811h-.147c-.51 0-.762.221-.762.657 0 .442.289.682.651.682l-.024.535c-.289 0-.541-.111-.762-.332-.222-.221-.332-.516-.332-.879zm1.929-.67h-.129l.049.75c.031.455.197.682.498.682s.449-.19.449-.571c0-.517-.277-.861-.867-.861zm-1.923-2.537c-.006-.67.375-1.076.94-1.149l.031.528c-.35.043-.523.252-.516.639-.007.387.166.596.454.596.136 0 .24-.055.295-.16.031-.073.049-.098.074-.19l.031-.117c.006-.055.043-.209.061-.276.178-.744.387-1.088.903-1.088.615 0 .971.455.971 1.186 0 .707-.344 1.161-.952 1.241l-.037-.528c.35-.049.528-.289.528-.725 0-.394-.165-.646-.467-.646-.153 0-.258.056-.319.16-.068.105-.135.307-.209.615l-.086.35c-.025.08-.061.178-.104.283-.123.295-.314.399-.683.43-.559 0-.921-.43-.915-1.149zm0-3.067c-.006-.67.375-1.075.94-1.149l.031.529c-.35.043-.523.252-.516.639-.007.387.166.596.454.596.136 0 .24-.056.295-.16.031-.074.049-.098.074-.191l.031-.116c.006-.056.043-.209.061-.277.178-.743.387-1.087.903-1.087.615 0 .971.454.971 1.186 0 .706-.344 1.161-.952 1.241l-.037-.529c.35-.049.528-.288.528-.725 0-.393-.165-.645-.467-.645-.153 0-.258.055-.319.16-.068.104-.135.307-.209.614l-.086.351c-.025.079-.061.178-.104.282-.123.295-.314.4-.683.43-.559 0-.921-.43-.915-1.149zm-1.082-2.722c.191 0 .345.16.345.35 0 .197-.154.35-.345.35-.196 0-.35-.159-.35-.35 0-.19.154-.35.35-.35zm1.131.092h3.134v.529h-3.134zm.393-1.319c-.301-.308-.448-.695-.448-1.156 0-.46.147-.848.448-1.149.295-.307.689-.461 1.174-.461s.879.154 1.18.461c.301.301.448.689.448 1.149 0 .461-.147.848-.448 1.156-.301.301-.695.454-1.18.454s-.879-.153-1.174-.454zm.326-1.924c-.209.203-.313.455-.313.768 0 .314.104.572.313.775.209.202.492.301.848.301s.639-.099.854-.301c.209-.203.313-.461.313-.775 0-.313-.104-.565-.313-.768-.215-.203-.498-.307-.854-.307s-.639.104-.848.307zm-.774-3.188c0-.356.117-.645.35-.873.234-.227.547-.344.934-.344h1.905v.535h-1.837c-.517 0-.861.319-.861.793 0 .245.086.448.252.608.166.154.375.233.615.233h1.831v.529h-3.134v-.504h.467c-.301-.166-.522-.51-.522-.977zm-1.076-4.348c.191 0 .345.159.345.35 0 .196-.154.35-.345.35-.196 0-.35-.16-.35-.35 0-.191.154-.35.35-.35zm1.131.092h3.134v.528h-3.134zm-.049-2.039c-.006-.669.375-1.075.94-1.149l.031.529c-.35.043-.523.252-.516.639-.007.387.166.596.454.596.136 0 .24-.056.295-.16.031-.074.049-.098.074-.19l.031-.117c.006-.056.043-.209.061-.277.178-.743.387-1.087.903-1.087.615 0 .971.454.971 1.186 0 .706-.344 1.161-.952 1.241l-.037-.529c.35-.049.528-.288.528-.725 0-.393-.165-.645-.467-.645-.153 0-.258.055-.319.16-.068.104-.135.307-.209.614l-.086.351c-.025.079-.061.178-.104.282-.123.295-.314.4-.683.43-.559 0-.921-.43-.915-1.149zm-.006-5.046c0-.357.117-.646.35-.873.234-.227.547-.344.934-.344h1.905v.534h-1.837c-.517 0-.861.32-.861.793 0 .246.086.449.252.608.166.154.375.234.615.234h1.831v.528h-3.134v-.503h.467c-.301-.166-.522-.51-.522-.977zm.448-2.51c-.301-.307-.448-.694-.448-1.155s.147-.848.448-1.149c.295-.307.689-.461 1.174-.461s.879.154 1.18.461c.301.301.448.688.448 1.149s-.147.848-.448 1.155c-.301.301-.695.455-1.18.455s-.879-.154-1.174-.455zm.326-1.923c-.209.203-.313.455-.313.768s.104.571.313.774.492.301.848.301.639-.098.854-.301c.209-.203.313-.461.313-.774s-.104-.565-.313-.768c-.215-.203-.498-.307-.854-.307s-.639.104-.848.307zm1.979-2.912c0-.08-.013-.184-.031-.307h.473c.025.141.037.283.037.424 0 .596-.32.971-.983.965l-1.733-.007v.584h-.461v-.584l-1.081-.006v-.534l1.081.006v-.842h.461v.842l1.628.012c.406 0 .609-.184.609-.553zm-2.753-3.544c0-.768.436-1.198 1.216-1.198h1.973v.535h-.369c.289.239.43.553.43.934 0 .62-.331 1.026-.891 1.026-.583 0-.891-.381-.934-1.149l-.049-.811h-.147c-.51 0-.762.221-.762.657 0 .443.289.682.651.682l-.024.535c-.289 0-.541-.111-.762-.332-.222-.221-.332-.516-.332-.879zm1.929-.669h-.129l.049.749c.031.455.197.682.498.682s.449-.19.449-.571c0-.516-.277-.86-.867-.86zm-3.515-3.566h4.775v.5284h-4.775zm1.641-3.6362h3.134v.5039h-.467c.289.129.528.4547.528.9402 0 .3502-.116.6267-.344.8356-.233.2028-.54.3073-.915.3073h-1.936v-.5285h1.862c.516 0 .836-.2703.836-.7373 0-.4855-.381-.7927-.867-.7927h-1.831zm0-3.5383 1.53 1.0385 1.604-1.0999v.6329l-1.241.848 1.241.8603v.6206l-1.616-1.0754-1.518 1.0262v-.6267l1.174-.805-1.174-.7865zm0-3.2545h3.134v.5038h-.467c.289.1291.528.4548.528.9402 0 .3502-.116.6268-.344.8357-.233.2028-.54.3072-.915.3072h-1.936v-.5284h1.862c.516 0 .836-.2704.836-.7374 0-.4854-.381-.7927-.867-.7927h-1.831zm-.037-2.506h.51c0 .5469.369.9094.86.9094h1.801v.5285h-3.134v-.5162h.473c-.289-.1229-.51-.4363-.51-.9217zm.037-3.3164 4.701 1.9787v.5837l-1.739-.7435-2.962 1.2474v-.5899l2.366-.9463-2.366-.9402z"/><path d="m295.138 84.8543c.374 0 .688.1045.946.3195.264.209.418.4916.461.8542l-.516.043c-.056-.467-.418-.762-.891-.762-.596 0-1.002.4363-1.002 1.1675 0 .7313.412 1.1675 1.002 1.1675.491 0 .823-.2703.897-.7127l.516.0491c-.117.6944-.658 1.1245-1.413 1.1245-.449 0-.824-.1475-1.113-.4363-.288-.2888-.43-.6882-.43-1.1921 0-.5038.142-.8971.43-1.1859.289-.2888.658-.4363 1.113-.4363zm2.464.4486c.308-.3011.695-.4486 1.156-.4486.46 0 .848.1475 1.149.4486.307.2949.461.6882.461 1.1736 0 .4855-.154.8787-.461 1.1798-.301.3011-.689.4486-1.149.4486-.461 0-.848-.1475-1.156-.4486-.301-.3011-.454-.6943-.454-1.1798 0-.4854.153-.8787.454-1.1736zm1.924.3257c-.203-.209-.455-.3134-.768-.3134-.314 0-.572.1044-.775.3134-.202.2089-.301.4915-.301.8479s.099.6391.301.8542c.203.2089.461.3133.775.3133.313 0 .565-.1044.768-.3133.202-.2151.307-.4978.307-.8542s-.105-.639-.307-.8479zm3.188-.7743c.356 0 .645.1168.873.3503.227.2335.344.5469.344.934v1.9049h-.535v-1.8373c0-.5162-.319-.8603-.793-.8603-.245 0-.448.086-.608.2519-.154.1659-.233.3749-.233.6145v1.8312h-.529v-3.1339h.504v.467c.166-.3011.51-.5223.977-.5223zm3.468 2.7529c.08 0 .184-.0123.307-.0307v.4731c-.141.0246-.282.0369-.424.0369-.596 0-.971-.3196-.965-.9832l.007-1.7328h-.584v-.4609h.584l.006-1.0815h.534l-.006 1.0815h.842v.4609h-.842l-.012 1.6283c0 .4056.184.6084.553.6084zm2.079-2.7529c.769 0 1.199.4363 1.199 1.2167v1.9725h-.535v-.3687c-.24.2888-.553.4301-.934.4301-.621 0-1.026-.3318-1.026-.891 0-.5837.381-.891 1.149-.934l.811-.0492v-.1474c0-.51-.221-.762-.657-.762-.443 0-.682.2888-.682.6514l-.535-.0246c0-.2888.111-.5408.332-.762s.516-.3318.878-.3318zm.67 1.9295v-.1291l-.749.0492c-.455.0307-.683.1966-.683.4977s.191.4486.572.4486c.516 0 .86-.2765.86-.8664zm2.907-1.9295c.374 0 .688.1045.946.3195.264.209.418.4916.461.8542l-.516.043c-.056-.467-.418-.762-.891-.762-.596 0-1.002.4363-1.002 1.1675 0 .7313.412 1.1675 1.002 1.1675.491 0 .823-.2703.897-.7127l.516.0491c-.117.6944-.658 1.1245-1.413 1.1245-.449 0-.824-.1475-1.113-.4363-.288-.2888-.43-.6882-.43-1.1921 0-.5038.142-.8971.43-1.1859.289-.2888.658-.4363 1.113-.4363zm3.423 2.7529c.08 0 .184-.0123.307-.0307v.4731c-.141.0246-.282.0369-.424.0369-.596 0-.971-.3196-.964-.9832l.006-1.7328h-.584v-.4609h.584l.006-1.0815h.534l-.006 1.0815h.842v.4609h-.842l-.012 1.6283c0 .4056.184.6084.553.6084zm2.934-3.2813c.633 0 1.161.2089 1.585.6329.424.4178.633.9401.633 1.573 0 .805-.338 1.2474-.885 1.2474-.313 0-.504-.129-.571-.3809-.185.2642-.473.3994-.867.3994-.688 0-1.155-.4916-1.155-1.2781 0-.7866.467-1.2843 1.155-1.2843.412 0 .695.1352.848.4055v-.3318h.394v1.7759c0 .2335.098.3502.288.3502.277 0 .455-.3379.455-.9033 0-.5346-.178-.9831-.541-1.3457-.356-.3625-.805-.5407-1.339-.5407-.547 0-.996.1782-1.352.5407-.35.3564-.529.805-.529 1.3457 0 .5469.179 1.0016.535 1.3519.363.3502.799.5284 1.321.5284.43 0 .811-.1044 1.137-.3072l.092.3072c-.35.2151-.762.3257-1.229.3257-.62 0-1.143-.2089-1.567-.6268-.418-.4117-.627-.9401-.627-1.5792 0-.6329.209-1.1613.627-1.5792.418-.4178.947-.6267 1.592-.6267zm.725 2.2612v-.1413c0-.5469-.301-.8418-.768-.8418-.473 0-.799.3441-.799.9156 0 .5714.326.9155.799.9155.467 0 .768-.3011.768-.848zm2.529-1.2842c.308-.3011.695-.4486 1.156-.4486.46 0 .848.1475 1.149.4486.307.2949.461.6882.461 1.1736 0 .4855-.154.8787-.461 1.1798-.301.3011-.689.4486-1.149.4486-.461 0-.848-.1475-1.156-.4486-.301-.3011-.454-.6943-.454-1.1798 0-.4854.153-.8787.454-1.1736zm1.924.3257c-.203-.209-.455-.3134-.768-.3134-.314 0-.572.1044-.775.3134-.202.2089-.301.4915-.301.8479s.099.6391.301.8542c.203.2089.461.3133.775.3133.313 0 .565-.1044.768-.3133.202-.2151.307-.4978.307-.8542s-.105-.639-.307-.8479zm3.323-.7743c.436 0 .799.1475 1.082.4424.288.2888.43.6821.43 1.1798 0 .4978-.142.891-.43 1.186-.283.2949-.646.4424-1.082.4424-.51 0-.897-.2089-1.087-.5284v2.0339h-.529v-4.7008h.504v.5162c.19-.3441.59-.5715 1.112-.5715zm-.08.4609c-.596 0-1.001.3871-1.001 1.0753v.1844c0 .682.405 1.0691 1.001 1.0691.615 0 1.051-.4301 1.051-1.1613 0-.7374-.436-1.1675-1.051-1.1675zm2.455-2.0462h.528v2.0708c.154-.2704.504-.4855.952-.4855.357 0 .646.1168.873.3503s.344.5469.344.934v1.9049h-.534v-1.8373c0-.5162-.32-.8603-.793-.8603-.246 0-.449.086-.608.2519-.154.1659-.234.3749-.234.6145v1.8312h-.528zm6.473 3.1215v.2888h-2.421c.031.5961.424.9647.983.9647.461 0 .775-.2089.879-.5591l.529.0307c-.068.2888-.228.5223-.48.7128-.252.1843-.559.2765-.915.2765-.461 0-.836-.1475-1.125-.4363-.289-.2949-.43-.6943-.43-1.1921 0-.4977.141-.8971.43-1.1859s.658-.4363 1.112-.4363c.449 0 .799.1413 1.051.4179.258.2765.387.6513.387 1.1183zm-1.444-1.0753c-.559 0-.946.3379-.977.934h1.893c-.019-.5653-.332-.934-.916-.934zm2.832-2.0462v4.7745h-.528v-4.7745zm1.32 2.0339c.307-.3011.694-.4486 1.155-.4486s.848.1475 1.149.4486c.307.2949.461.6882.461 1.1736 0 .4855-.154.8787-.461 1.1798-.301.3011-.688.4486-1.149.4486s-.848-.1475-1.155-.4486c-.302-.3011-.455-.6943-.455-1.1798 0-.4854.153-.8787.455-1.1736zm1.923.3257c-.203-.209-.455-.3134-.768-.3134-.314 0-.572.1044-.774.3134-.203.2089-.302.4915-.302.8479s.099.6391.302.8542c.202.2089.46.3133.774.3133.313 0 .565-.1044.768-.3133.203-.2151.307-.4978.307-.8542s-.104-.639-.307-.8479zm2.672-.7681c.67-.0062 1.075.3748 1.149.9401l-.528.0307c-.043-.3502-.252-.5223-.639-.5161-.388-.0062-.597.1659-.597.4547 0 .1352.056.2396.16.2949.074.0308.099.0492.191.0738l.116.0307c.056.0061.209.043.277.0614.744.1782 1.088.3872 1.088.9033 0 .6145-.455.9709-1.186.9709-.707 0-1.162-.3441-1.242-.9524l.529-.0369c.049.3502.289.5284.725.5284.393 0 .645-.1659.645-.467 0-.1536-.055-.258-.16-.3195-.104-.0676-.307-.1352-.614-.2089l-.35-.086c-.08-.0246-.179-.0615-.283-.1045-.295-.1229-.399-.3134-.43-.6821 0-.5591.43-.9217 1.149-.9155zm2.134 2.5132c.203 0 .369.1659.369.3687 0 .1966-.166.3625-.369.3625-.197 0-.356-.1659-.356-.3625 0-.2028.159-.3687.356-.3687zm2.507-2.5194c.375 0 .688.1045.946.3195.265.209.418.4916.461.8542l-.516.043c-.055-.467-.418-.762-.891-.762-.596 0-1.001.4363-1.001 1.1675 0 .7313.411 1.1675 1.001 1.1675.492 0 .824-.2703.897-.7127l.516.0491c-.116.6944-.657 1.1245-1.413 1.1245-.448 0-.823-.1475-1.112-.4363s-.43-.6882-.43-1.1921c0-.5038.141-.8971.43-1.1859s.657-.4363 1.112-.4363zm2.465.4486c.307-.3011.694-.4486 1.155-.4486s.848.1475 1.149.4486c.308.2949.461.6882.461 1.1736 0 .4855-.153.8787-.461 1.1798-.301.3011-.688.4486-1.149.4486s-.848-.1475-1.155-.4486c-.301-.3011-.455-.6943-.455-1.1798 0-.4854.154-.8787.455-1.1736zm1.923.3257c-.202-.209-.454-.3134-.768-.3134-.313 0-.571.1044-.774.3134-.203.2089-.301.4915-.301.8479s.098.6391.301.8542c.203.2089.461.3133.774.3133.314 0 .566-.1044.768-.3133.203-.2151.308-.4978.308-.8542s-.105-.639-.308-.8479zm5.241-.7743c.35 0 .627.1168.842.3564.215.2335.325.5408.325.9217v1.9111h-.528v-1.8373c0-.5223-.295-.8603-.762-.8603-.442 0-.743.3134-.786.7558v.0369 1.9049h-.535v-1.8373c0-.5162-.301-.8603-.744-.8603-.239 0-.436.086-.589.2519-.154.1659-.228.3749-.228.6145v1.8312h-.528v-3.1339h.504v.4732c.178-.3503.497-.5285.952-.5285.461 0 .836.2274 1.026.6206.191-.3748.566-.6206 1.051-.6206zm-59.761 7.5929v.4977h-1.708v4.0986h-.566v-4.0986h-1.708v-.4977zm.704 1.4071c.203 0 .369.1659.369.3687 0 .1966-.166.3564-.369.3564-.196 0-.356-.1598-.356-.3564 0-.2028.16-.3687.356-.3687zm0 2.5194c.203 0 .369.1659.369.3687 0 .1966-.166.3625-.369.3625-.196 0-.356-.1659-.356-.3625 0-.2028.16-.3687.356-.3687zm.685 5.0733v4.596h-.56v-3.324l-1.708 3.294h-.375l-1.714-3.294v3.324h-.565v-4.596h.491l1.973 3.748 1.972-3.748zm1.157 1.407c.203 0 .369.166.369.369 0 .197-.166.356-.369.356-.196 0-.356-.159-.356-.356 0-.203.16-.369.356-.369zm0 2.52c.203 0 .369.166.369.368 0 .197-.166.363-.369.363-.196 0-.356-.166-.356-.363 0-.202.16-.368.356-.368z"/><path d="m310.908 93.3136v1.2166h1.217v.4855h-1.217v1.2474h-.516v-1.2474h-1.217v-.4855h1.217v-1.2166zm4.135-.8664v3.0048h.793v.5038h-.793v1.0877h-.547v-1.0877h-2.003v-.4608l2.083-3.0478zm-.547 1.0077-1.382 1.9971h1.382zm4.208-1.0077v3.0048h.792v.5038h-.792v1.0877h-.547v-1.0877h-2.004v-.4608l2.084-3.0478zm-.547 1.0077-1.383 1.9971h1.383zm4.676-1.0077v4.5963h-.553v-3.8405l-.811.6206-.277-.4363 1.229-.9401zm2.286 0v4.5963h-.553v-3.8405l-.811.6206-.277-.4363 1.229-.9401zm2.262-.0615c.817 0 1.321.4916 1.321 1.2597 0 .5162-.271.8726-.658 1.02.461.1045.775.4978.775 1.0815 0 .4117-.129.7435-.394.9893-.258.2458-.602.3687-1.032.3687-.885 0-1.395-.51-1.45-1.3518l.565-.0308c.049.5653.35.8787.885.8787s.86-.3256.86-.8664c0-.5346-.362-.8172-.909-.8172h-.449v-.4978h.437c.473 0 .805-.3011.805-.7742 0-.4854-.289-.7558-.756-.7558-.486 0-.768.2949-.811.8295l-.553-.0307c.03-.8111.528-1.3027 1.364-1.3027zm5.904.0615v3.0048h.793v.5038h-.793v1.0877h-.546v-1.0877h-2.004v-.4608l2.083-3.0478zm-.546 1.0077-1.383 1.9971h1.383zm3.297-1.0692c.449 0 .818.1352 1.106.4117.289.2765.437.6329.437 1.0815 0 .3502-.105.6698-.314.9524l-1.653 2.2122h-.663l1.241-1.6653c-.031.0062-.086.0062-.154.0062-.442 0-.811-.1414-1.099-.4179-.289-.2765-.437-.639-.437-1.0876s.148-.805.437-1.0815c.288-.2765.657-.4117 1.099-.4117zm0 2.5071c.338 0 .596-.1168.775-.3441.135-.1721.202-.3871.202-.6514 0-.6144-.405-1.0077-.977-1.0077-.565 0-.97.3994-.97 1.0077 0 .6084.405.9955.97.9955zm3.661-.7865c.443 0 .812.1413 1.1.4178.289.2765.437.6391.437 1.0876 0 .4486-.148.805-.437 1.0815-.288.2765-.657.4117-1.1.4117-.448 0-.823-.1352-1.112-.4117s-.43-.6329-.43-1.0815c0-.3502.105-.6698.314-.9524l1.652-2.2121h.664l-1.241 1.6652c.031-.0061.086-.0061.153-.0061zm0 2.4947c.566 0 .971-.3994.971-1.0077s-.405-.9955-.971-.9955c-.337 0-.596.1168-.774.3441-.135.1721-.203.3872-.203.6514 0 .6145.406 1.0077.977 1.0077zm5.255-4.2153c.504 0 .903.2089 1.198.6206.301.4117.449.9893.449 1.739s-.148 1.3334-.449 1.7451c-.295.4117-.694.6145-1.198.6145-.51 0-.916-.2028-1.217-.6145-.295-.4117-.442-.9954-.442-1.7451s.147-1.3273.442-1.739c.301-.4117.707-.6206 1.217-.6206zm.799.977c-.185-.3134-.455-.4731-.805-.4731-.351 0-.621.1597-.805.4731-.185.3134-.277.7743-.277 1.3826s.092 1.0692.277 1.3826c.184.3134.454.4731.805.4731.35 0 .62-.1597.805-.4731.19-.3134.282-.7743.282-1.3826s-.092-1.0692-.282-1.3826zm2.946.8603c.406 0 .738.129.99.381.252.2519.381.596.381 1.0323s-.129.7927-.388 1.063c-.258.2704-.608.4056-1.056.4056-.861 0-1.377-.4977-1.432-1.315l.565-.0307c.049.5346.338.8418.873.8418.559 0 .878-.3871.878-.9524 0-.5592-.344-.9279-.866-.9279-.283 0-.541.0922-.768.2765h-.516v-2.55h2.538v.4977h-1.985v1.4993c.233-.1475.498-.2212.786-.2212zm3.353-1.8373c.817 0 1.321.4916 1.321 1.2597 0 .5162-.27.8726-.657 1.02.46.1045.774.4978.774 1.0815 0 .4117-.129.7435-.394.9893-.258.2458-.602.3687-1.032.3687-.885 0-1.395-.51-1.45-1.3518l.565-.0308c.049.5653.351.8787.885.8787.535 0 .86-.3256.86-.8664 0-.5346-.362-.8172-.909-.8172h-.449v-.4978h.437c.473 0 .805-.3011.805-.7742 0-.4854-.289-.7558-.756-.7558-.486 0-.768.2949-.811.8295l-.553-.0307c.03-.8111.528-1.3027 1.364-1.3027zm3.562 0c.399 0 .731.1106.989.338.264.2212.393.5223.393.8971 0 .467-.252.8234-.62.9955.442.1905.737.596.737 1.1429 0 .4117-.141.7374-.424.9832-.277.2396-.639.3625-1.075.3625-.437 0-.793-.1229-1.076-.3625-.276-.2458-.418-.5715-.418-.9832 0-.5407.289-.9463.732-1.1368-.375-.1659-.621-.5284-.621-1.0016 0-.381.129-.6821.387-.9033s.59-.3318.996-.3318zm.006.5039c-.486 0-.83.2888-.83.7619 0 .4609.344.7436.83.7436.473 0 .823-.2827.823-.7436 0-.4731-.35-.7619-.823-.7619zm.663 2.2305c-.178-.1536-.399-.2335-.669-.2335-.271 0-.492.0799-.67.2335-.178.1537-.264.3564-.264.6207 0 .2642.086.4731.264.6267.178.1537.399.2335.67.2335.27 0 .491-.0798.669-.2335.179-.1536.265-.3625.265-.6267 0-.2643-.086-.467-.265-.6207zm-45.373 7.1939v1.216h1.217v.486h-1.217v1.247h-.516v-1.247h-1.217v-.486h1.217v-1.216zm4.135-.867v3.005h.793v.504h-.793v1.087h-.547v-1.087h-2.003v-.461l2.083-3.048zm-.547 1.008-1.382 1.997h1.382zm4.208-1.008v3.005h.792v.504h-.792v1.087h-.547v-1.087h-2.004v-.461l2.084-3.048zm-.547 1.008-1.383 1.997h1.383zm6.12-1.008v.455l-2.157 4.141h-.621l2.157-4.098h-2.402v-.498zm3.312 0v.455l-2.157 4.141h-.62l2.157-4.098h-2.403v-.498zm2.133-.061c.504 0 .903.209 1.198.62.301.412.449.99.449 1.739 0 .75-.148 1.334-.449 1.745-.295.412-.694.615-1.198.615-.51 0-.916-.203-1.217-.615-.295-.411-.442-.995-.442-1.745 0-.749.147-1.327.442-1.739.301-.411.707-.62 1.217-.62zm.799.977c-.185-.314-.455-.473-.805-.473-.351 0-.621.159-.805.473-.185.313-.277.774-.277 1.382 0 .609.092 1.07.277 1.383.184.313.454.473.805.473.35 0 .62-.16.805-.473.19-.313.282-.774.282-1.383 0-.608-.092-1.069-.282-1.382zm3.155-.977c.504 0 .904.209 1.199.62.301.412.448.99.448 1.739 0 .75-.147 1.334-.448 1.745-.295.412-.695.615-1.199.615-.51 0-.915-.203-1.216-.615-.295-.411-.443-.995-.443-1.745 0-.749.148-1.327.443-1.739.301-.411.706-.62 1.216-.62zm.799.977c-.184-.314-.455-.473-.805-.473s-.62.159-.805.473c-.184.313-.276.774-.276 1.382 0 .609.092 1.07.276 1.383.185.313.455.473.805.473s.621-.16.805-.473c.191-.313.283-.774.283-1.383 0-.608-.092-1.069-.283-1.382zm4.442-.977c.448 0 .817.135 1.106.411.289.277.436.633.436 1.082 0 .35-.104.67-.313.952l-1.653 2.212h-.664l1.241-1.665c-.03.006-.086.006-.153.006-.443 0-.811-.141-1.1-.417-.289-.277-.436-.64-.436-1.088 0-.449.147-.805.436-1.082.289-.276.657-.411 1.1-.411zm0 2.507c.338 0 .596-.117.774-.344.135-.172.203-.387.203-.652 0-.614-.406-1.007-.977-1.007-.566 0-.971.399-.971 1.007 0 .609.405.996.971.996zm3.814-2.507c.504 0 .904.209 1.199.62.301.412.448.99.448 1.739 0 .75-.147 1.334-.448 1.745-.295.412-.695.615-1.199.615-.51 0-.915-.203-1.216-.615-.295-.411-.443-.995-.443-1.745 0-.749.148-1.327.443-1.739.301-.411.706-.62 1.216-.62zm.799.977c-.184-.314-.454-.473-.805-.473-.35 0-.62.159-.805.473-.184.313-.276.774-.276 1.382 0 .609.092 1.07.276 1.383.185.313.455.473.805.473.351 0 .621-.16.805-.473.191-.313.283-.774.283-1.383 0-.608-.092-1.069-.283-1.382zm3.156-.977c.504 0 .903.209 1.198.62.301.412.449.99.449 1.739 0 .75-.148 1.334-.449 1.745-.295.412-.694.615-1.198.615-.51 0-.916-.203-1.217-.615-.295-.411-.442-.995-.442-1.745 0-.749.147-1.327.442-1.739.301-.411.707-.62 1.217-.62zm.799.977c-.185-.314-.455-.473-.805-.473s-.621.159-.805.473c-.184.313-.277.774-.277 1.382 0 .609.093 1.07.277 1.383s.455.473.805.473.62-.16.805-.473c.19-.313.282-.774.282-1.383 0-.608-.092-1.069-.282-1.382zm4.335-.916v.455l-2.157 4.141h-.62l2.157-4.098h-2.403v-.498zm1.979 1.659c.443 0 .811.142 1.1.418.289.277.436.639.436 1.088 0 .448-.147.805-.436 1.081-.289.277-.657.412-1.1.412-.448 0-.823-.135-1.112-.412-.289-.276-.43-.633-.43-1.081 0-.351.104-.67.313-.953l1.653-2.212h.664l-1.241 1.665c.03-.006.086-.006.153-.006zm0 2.495c.566 0 .971-.399.971-1.008 0-.608-.405-.995-.971-.995-.338 0-.596.117-.774.344-.135.172-.203.387-.203.651 0 .615.406 1.008.977 1.008zm3.502-4.215c.817 0 1.321.491 1.321 1.259 0 .517-.271.873-.658 1.02.461.105.774.498.774 1.082 0 .412-.129.743-.393.989-.258.246-.602.369-1.032.369-.885 0-1.395-.51-1.45-1.352l.565-.031c.049.566.35.879.885.879.534 0 .86-.326.86-.866 0-.535-.362-.818-.909-.818h-.449v-.497h.436c.474 0 .805-.301.805-.775 0-.485-.288-.755-.755-.755-.486 0-.769.295-.812.829l-.553-.031c.031-.811.529-1.302 1.365-1.302z"/></g><circle cx="184.811" cy="591.905" fill="#00d7a1" r="19.8974"/><circle cx="201.394" cy="601.853" fill="#000" opacity=".4" r="9.94869"/><path clip-rule="evenodd" d="m194.671 609.19c-1.985-1.819-3.23-4.432-3.23-7.337 0-5.494 4.455-9.948 9.949-9.948 1.16 0 2.273.198 3.309.563-.2 7.164-4.186 13.382-10.028 16.722z" fill="#000" fill-rule="evenodd"/></g></svg>