<svg fill="none" height="696" viewBox="0 0 696 696" width="696" xmlns="http://www.w3.org/2000/svg" xmlns:xlink="http://www.w3.org/1999/xlink"><clipPath id="a"><path d="m84.0625 84.1587h180.779v180.779h-180.779z"/></clipPath><clipPath id="b"><path d="m84.0625 432.159h180.779v180.779h-180.779z"/></clipPath><clipPath id="c"><path d="m432.062 432.159h180.779v180.779h-180.779z"/></clipPath><path d="m0 0h348v348h-348z" fill="#fff"/><g clip-path="url(#a)"><path d="m152.756 220.346c11.981 0 21.693-9.713 21.693-21.694v-16.27h-5.423c-8.986 0-16.27 7.284-16.27 16.27z" fill="#ffb48a"/><path d="m174.449 204.678h37.361l-37.361 37.361z" fill="#add8ff"/><path d="m175.775 206.004h34.7096v34.7096h-34.7096z" stroke="#000" stroke-width="2.65143"/><path d="m122.529 136.391c23.355-19.306 61.872-14.838 88.392 11.683 26.521 26.52 30.99 65.037 11.683 88.393-1.145 1.385-3.304 1.456-4.695.065l-95.446-95.446c-1.391-1.391-1.32-3.55.066-4.695z" fill="#ffdc26" stroke="#000" stroke-width="2.65143"/><path d="m195.637 214.261-50.905-50.905c11.398-11.093 24.401-18.322 36.283-21.114 12.235-2.875 23.06-1.014 29.905 5.831 6.845 6.846 8.706 17.67 5.831 29.905-2.791 11.882-10.021 24.885-21.114 36.283z" fill="#fff" stroke="#000" stroke-width="2.65143"/><path d="m216.471 142.522-95.374 95.374c-3.53 3.53-9.253 3.53-12.783 0-3.53-3.53-3.53-9.253 0-12.783l5.539-5.54" stroke="#000" stroke-linecap="round" stroke-width="2.65143"/><circle cx="114.794" cy="218.538" fill="#000" r="3.01299"/><g stroke="#000" stroke-width="2.65143"><path d="m173.081 240.714c-.655-10.193-8.807-18.345-19-19v19z"/><path d="m217.84 111.878v15.668" stroke-linecap="round"/><path d="m134.68 102.237v6.026" stroke-linecap="round"/><path d="m155.168 111.878v1.206" stroke-linecap="round"/><path d="m199.762 113.083v2.411" stroke-linecap="round"/><path d="m114.191 111.878v2.411" stroke-linecap="round"/><path d="m240.738 170.933v2.41" stroke-linecap="round"/><path d="m234.711 110.673v2.41" stroke-linecap="round"/><path d="m243.148 117.904v12.052" stroke-linecap="round"/><circle cx="235.916" cy="150.445" r="3.61559" stroke-linecap="round"/><circle cx="121.424" cy="180.575" r="3.61559" stroke-linecap="round"/><circle cx="180.479" cy="104.647" r="3.61559" stroke-linecap="round"/></g></g><path d="m348 0h348v348h-348z" fill="#f3f3f3"/><path d="m529.683 249.271 26.514-89.185-47.605-27.117-69.299 116.302z" fill="#ffdc26"/><g stroke="#000"><path d="m489.375 169.813h9.40052v9.40052h-9.40052z" fill="#fff" stroke-width="2.65143" transform="matrix(.70710678 -.70710678 .70710678 .70710678 23.258695 395.777457)"/><path d="m586.417 171.848c.487-1.209 1.66-2 2.963-2 2.244 0 3.788 2.252 2.98 4.346l-22.95 59.462c-.52 1.348-1.816 2.237-3.261 2.237h-.396c-2.477 0-4.168-2.506-3.241-4.803z" fill="#fff" stroke-width="2.65143"/><path d="m587.906 161.987c.534.629 1.318.991 2.143.991 2.395 0 3.694-2.803 2.145-4.63l-39.222-46.261-.821 7.802z" fill="#fff" stroke-width="2.65143"/><path d="m542.258 244.724c.827-4.26 2.935-7.234 6.469-9.196 3.613-2.006 8.819-3.01 15.908-3.01 7.086 0 12.538 1.003 16.422 3.028 3.818 1.991 6.176 4.992 7.107 9.219.345 1.562-.995 3.18-3.041 3.18h-39.771c-2.03 0-3.407-1.612-3.094-3.221z" fill="#add8ff" stroke-width="2.65143"/><rect fill="#add8ff" height="34.7096" rx="10.7262" stroke-width="2.65143" transform="matrix(.8660254 .5 -.5 .8660254 123.724837 -259.677377)" width="21.4525" x="546.427" y="101.035"/><rect fill="#fff" height="11.8109" rx="5.90545" stroke-width="2.65143" transform="matrix(.88318346 .46902769 -.46902769 .88318346 125.459326 -231.173172)" width="19.6266" x="526.819" y="136.278"/><path d="m509.175 130.905c8.378-11.09 23.805-14.772 36.474-8.044 12.668 6.728 18.258 21.57 13.761 34.723-.55 1.61-2.531 2.354-4.297 1.416l-44.705-23.741c-1.766-.938-2.259-2.996-1.233-4.354z" fill="#fff" stroke-width="2.65143"/><circle cx="592.352" cy="164.907" fill="#add8ff" r="8.31584" stroke-width="2.65143"/><path d="m496.788 171.951 12.288-10.24v16.453c0 7.255-5.882 13.137-13.137 13.137s-13.137-5.882-13.137-13.137v-16.453l12.288 10.24.849.708z" fill="#ffafaf" stroke-width="2.65143"/><path d="m495.938 191.421v38.566" stroke-width="2.65143"/><path d="m476.468 232.973c-.451-.723.068-1.66.92-1.66h37.1c.851 0 1.371.937.919 1.66l-9.039 14.462c-.198.317-.545.51-.919.51h-19.022c-.374 0-.722-.193-.92-.51z" fill="#fff" stroke-width="2.65143"/><path d="m507.243 209.792c-3.031 1.75-6.512 2.007-9.598.997.668-3.177 2.632-6.064 5.662-7.814 3.03-1.749 6.512-2.006 9.597-.996-.668 3.177-2.631 6.064-5.661 7.813z" fill="#00f0b4" stroke-width="2.65143"/><circle cx="489.911" cy="238.424" fill="#00f0b4" r="3.49506" stroke-width="2.65143"/><path d="m483.082 119.913v-12.855h12.855" stroke-width="2.41039"/><path d="m467.816 121.52v12.855h-12.855" stroke-width="2.41039"/><path d="m541.711 182.985h14.4623v14.4623h-14.4623z" stroke-width="2.41039" transform="matrix(.94341381 .33161782 -.33161782 .94341381 91.334447 -169.286597)"/><path d="m580.855 110.657h11.2052v11.2052h-11.2052z" stroke-width="2.41039" transform="matrix(.87004699 -.4929688 .4929688 .87004699 20.933409 300.723606)"/><circle cx="455.562" cy="158.278" fill="#fff" r="6.62857" stroke-width="2.41039"/></g><path d="m0 348h348v348h-348z" fill="#f3f3f3"/><g clip-path="url(#b)"><circle cx="182.889" cy="518.933" fill="#ffdc26" r="60.2597"/><path d="m229.19 550.709c6.123 10.26 8.551 23.627 9.194 28.604l4.87 9.05-14.267 21.152c-1.214-2.057-6.087-9.095-12.845-13.233-11.4-6.98-17.094-13.863-21.522-28.208-14.708 5.124-20.912 3.702-23.19 2.613-3.438-1.644-.465-5.063 6.242-8.965.382-3.934 1.975-8.224 6.798-10.554-2.589-5.358 7.282-9.475 14.52-10.981-2.643-1.367-10.277-7.592-14.196-12.968s-1.222-8.001.367-7.448c1.59.554 11.108 5.208 21.421 10.138 13.751 6.574 19.138 14.987 22.608 20.8z" fill="#f3f3f3"/><g stroke="#000"><path d="m177.672 561.722c-6.707 3.902-9.68 7.321-6.242 8.965 2.278 1.089 8.482 2.511 23.19-2.613 4.428 14.345 10.122 21.228 21.522 28.208m-38.47-34.56c.382-3.934 1.975-8.224 6.798-10.554m-6.798 10.554c3.4-2.083 12.169-6.276 20.049-6.382m45.533 33.023-4.87-9.05c-.643-4.977-3.071-18.344-9.194-28.604-3.47-5.813-8.857-14.226-22.608-20.8-10.313-4.93-19.831-9.584-21.421-10.138-1.589-.553-4.286 2.072-.367 7.448s11.553 11.601 14.196 12.968c-7.238 1.506-17.109 5.623-14.52 10.981m0 0c2.403-1.865 12.896-4.769 19.753-4.257" stroke-width="2.65143"/><path d="m130.71 465.977c-11.119 3.445-17.306 15.357-13.821 26.607 1.674 5.403 5.4 9.927 10.359 12.577l39.081 20.888c1.28.684 2.859.195 3.528-1.093l20.427-39.324c2.592-4.99 3.107-10.828 1.434-16.231-3.486-11.25-15.324-17.577-26.443-14.132-5.339 1.654-9.795 5.386-12.387 10.376l-2.092 4.028-4.003-2.14c-4.959-2.65-10.744-3.21-16.083-1.556z" fill="#ffb48a" stroke-width="2.65143"/><circle cx="136.413" cy="485.718" fill="#fff" r="8.63604" stroke-width="2.65143" transform="matrix(.7950227 -.60657968 .60657968 .7950227 -266.665099 182.306516)"/><circle cx="173.748" cy="494.128" fill="#fff" r="3.96477" stroke-width="2.65143" transform="matrix(.7950227 -.60657968 .60657968 .7950227 -264.113606 206.677028)"/><circle cx="145.541" cy="453.866" fill="#fff" r="3.44909" stroke-width="2.65143" transform="matrix(.7950227 -.60657968 .60657968 .7950227 -245.47329 181.314439)"/><path d="m214.223 486.392v-12.855h12.855v-12.855h12.855v-12.856h12.856" stroke-width="2.41039"/></g><path d="m113.355 567.141h19.2831v19.2831h-19.2831z" fill="#ffdc26" transform="matrix(.94341381 .33161782 -.33161782 .94341381 194.488389 -5.498191)"/><path d="m0 0h12.0622v12.0622h-12.0622z" fill="#add8ff" transform="matrix(-.943414 .331619 .331619 .943414 105.852 514.898)"/><path d="m236.512 507.872h19.3566v19.3566h-19.3566z" fill="#add8ff" stroke="#000" stroke-width="2.41039" transform="matrix(.94341381 .33161782 -.33161782 .94341381 181.802718 -49.693054)"/><circle cx="105.152" cy="452.045" r="6.62857" stroke="#000" stroke-width="2.41039"/><circle cx="153.363" cy="544.844" fill="#fff" r="6.62857" stroke="#000" stroke-width="2.41039"/><circle cx="110.579" cy="573.167" fill="#fff" r="4.82078" stroke="#000" stroke-width="2.41039"/></g><path d="m348 348h348v348h-348z" fill="#fff"/><g clip-path="url(#c)"><circle cx="505.649" cy="531.052" fill="#add8ff" r="42.1818" stroke="#000" stroke-width="2.65143" transform="matrix(.7950227 -.60657968 .60657968 .7950227 -218.478784 415.57001)"/><path d="m453.876 577.365c-4.916 6.681-6.146 17.141-6.146 21.536l20.192 4.395c.878-2.051 2.809-7.12 3.512-10.988 7.725-2.461 11.12-7.764 11.851-10.108-.146 2.637.088 7.823 2.195 7.471 2.634-.439 6.584-4.395 7.901-6.153s2.195-4.395.878-8.35c3.863-.703 3.073-4.981 2.195-7.032 1.024.146 3.16-.088 3.512-2.198.438-2.637 0-3.955-4.39-7.032 2.634-2.197 3.512-6.153 2.195-9.669s-13.169-3.076-17.119-.879c-.524.292-1.272.869-2.189 1.671-3.023 2.642-7.889 7.723-12.655 13.041-4.692 5.236-9.288 10.702-11.932 14.295z" fill="#fff"/><path d="m447.73 598.901c0-4.395 1.23-14.856 6.146-21.536 2.644-3.594 7.24-9.059 11.932-14.295.804-.897 1.611-1.787 2.411-2.66m12.433-12.052c3.95-2.198 15.802-2.637 17.119.879s.439 7.472-2.195 9.669m-14.924-10.548c-.524.291-1.272.869-2.189 1.67-2.513 2.197-6.3 6.08-10.244 10.382m12.433-12.052c3.394-5.525-6.407-10.142-7.01-4.719-.482 4.339-3.816 12.386-5.423 16.771m27.357-1.504c4.39 3.077 4.828 4.395 4.39 7.032-.352 2.11-2.488 2.344-3.512 2.198m-.878-9.23c-1.902-.732-6.145-2.461-7.901-3.516m8.779 12.746c.878 2.051 1.668 6.329-2.195 7.032m2.195-7.032-8.779-6.153m6.584 13.185c1.317 3.955.439 6.592-.878 8.35s-5.267 5.714-7.901 6.153c-2.107.352-2.341-4.834-2.195-7.471m10.974-7.032c-2.195-1.758-7.023-5.45-8.779-6.153m-2.195 13.185c-.731 2.344-4.126 7.647-11.851 10.108-.703 3.868-2.634 8.937-3.512 10.988m15.363-21.096 3.512-3.516m0 0 .878 1.758m-.878-1.758-1.317-2.198" stroke="#000" stroke-width="2.65143"/><circle cx="543.009" cy="494.896" fill="#ffdc26" r="42.1818" stroke="#000" stroke-width="2.65143" transform="matrix(.7950227 -.60657968 .60657968 .7950227 -188.889338 430.820668)"/><path clip-rule="evenodd" d="m501.231 489.096c14.145-1.476 28.698 4.236 37.956 16.37 7.105 9.312 9.738 20.634 8.245 31.386-14.144 1.477-28.698-4.235-37.955-16.369-7.105-9.312-9.738-20.634-8.246-31.387z" fill="#00f0b4" fill-rule="evenodd"/><path d="m501.231 489.096-.138-1.318-1.032.108-.143 1.028zm37.956 16.37-1.054.804zm8.245 31.386.138 1.319 1.033-.108.142-1.029zm-37.955-16.369-1.054.804zm-8.108-30.068c13.704-1.431 27.798 4.104 36.764 15.855l2.108-1.609c-9.55-12.516-24.562-18.406-39.148-16.883zm36.764 15.855c6.882 9.02 9.432 19.983 7.986 30.4l2.626.364c1.539-11.088-1.176-22.768-8.504-32.373zm9.162 29.264c-13.705 1.43-27.799-4.104-36.764-15.855l-2.108 1.608c9.549 12.516 24.562 18.406 39.147 16.884zm-36.764-15.855c-6.882-9.02-9.433-19.984-7.987-30.4l-2.626-.365c-1.539 11.089 1.177 22.768 8.505 32.373z" fill="#000"/><path d="m572.468 450.236c6.749-4.821 13.659-6.829 16.27-7.231l12.655 6.026c-.402 0-1.326.482-1.808 2.41-.602 2.411 3.616 4.218-1.808 12.655-4.338 6.749-10.244 8.436-12.654 8.436.602 0 2.049 1.446 3.013 7.231 1.205 7.231.602 9.039-1.205 9.039-1.808 0-4.219-3.615-5.424-6.026-1.205 1.808-7.231 1.206-7.231-1.807-4.218 3.013-7.231-4.219-8.436-9.642-1.808 7.231-6.629 12.655-9.642 12.655s-2.411-1.206-2.411-2.411 3.013-6.628 5.424-15.065c2.41-8.436 4.821-10.244 13.257-16.27z" fill="#fff"/><g stroke="#000"><path d="m588.74 443.005c-2.611.402-9.521 2.41-16.27 7.231-6.09 4.349-9.039 6.501-11.116 10.534m4.487 10.557c-1.807 7.231-6.628 12.655-9.641 12.655s-2.411-1.206-2.411-2.411c0-.922 1.766-4.316 3.675-9.641m8.377-.603c1.206 5.423 4.219 12.655 8.437 9.642m-8.437-9.642c-.401-1.205-1.205-3.857-1.205-4.821m9.642 14.463c0 3.013 6.026 3.615 7.231 1.807m-7.231-1.807c-1.205-2.411-3.616-7.714-3.616-9.642m10.847 11.449c1.205 2.411 3.616 6.026 5.423 6.026 1.808 0 2.411-1.808 1.205-9.039-.964-5.785-2.41-7.231-3.012-7.231 2.41 0 8.315-1.687 12.654-8.436 5.423-8.437 1.205-10.244 1.808-12.655.482-1.928 1.406-2.41 1.808-2.41m-19.886 33.745c-1.808-2.611-5.423-8.195-5.423-9.641m-14.732-12.365c-.8 1.555-1.471 3.389-2.141 5.736-.566 1.979-1.164 3.792-1.749 5.424m3.89-11.16c-1.316 1.511-5.034 4.41-9.372 3.928-5.424-.602-1.691 7.834 5.482 7.232" stroke-width="2.65143"/><path d="m460.988 478.358v-12.856h12.856v-12.855h12.855" stroke-width="2.41039"/><circle cx="588.136" cy="571.359" fill="#fff" r="6.62857" stroke-width="2.41039"/><circle cx="486.898" cy="515.92" fill="#fff" r="6.62857" stroke-width="2.41039"/><circle cx="562.222" cy="503.265" fill="#fff" r="10.8468" stroke-width="2.41039"/><path d="m560.617 577.987v12.855h-12.855" stroke-width="2.41039"/></g><path d="m558.609 552.176h11.2052v11.2052h-11.2052z" fill="#ffdc26" transform="matrix(.87004699 -.4929688 .4929688 .87004699 -199.612619 347.133747)"/><path d="m0 0h11.2052v11.2052h-11.2052z" fill="#ffdc26" transform="matrix(-.870047 -.492968 -.492968 .870047 460.59 491.917)"/></g></svg>