<svg fill="none" height="340" viewBox="0 0 696 340" width="696" xmlns="http://www.w3.org/2000/svg"><path d="m0 0h696v340h-696z" fill="#f3f3f3"/><path d="m47.0039 124.078c0-9.984 8.0938-18.078 18.0779-18.078h88.7692c9.984 0 18.078 8.094 18.078 18.078v44.192c0 9.984-8.094 18.078-18.078 18.078h-105.0393c-.9984 0-1.8078-.809-1.8078-1.808z" fill="#000"/><path d="m62.5278 124.997h3.7837c1.3583 0 2.4677.426 3.3282 1.278.8605.844 1.2907 1.995 1.2907 3.455 0 1.459-.4344 2.615-1.3034 3.467-.8689.844-1.9825 1.265-3.3408 1.265h-3.7584zm1.4933 1.291v6.884h2.2778c.9449 0 1.6999-.296 2.2651-.886.5737-.599.8606-1.451.8606-2.556 0-1.106-.2827-1.953-.8479-2.544-.5652-.599-1.3203-.898-2.2652-.898zm14.474 5.466h-4.7708c.0338.49.2067.882.5189 1.177.3121.287.7171.43 1.2148.43.8436 0 1.3583-.307 1.5439-.923l1.4299.076c-.1265.59-.464 1.084-1.0123 1.48-.5484.397-1.1896.595-1.9235.595-.9702 0-1.759-.3-2.3664-.899-.6075-.607-.9112-1.429-.9112-2.467s.2995-1.856.8985-2.455c.599-.608 1.3794-.911 2.3411-.911.928 0 1.6662.287 2.2145.86.5484.574.8226 1.354.8226 2.341zm-3.0498-2.682c-.4808 0-.8773.139-1.1895.417-.3121.27-.4851.654-.5188 1.152h3.3281c-.0168-.481-.1645-.861-.4429-1.139-.2699-.287-.6622-.43-1.1769-.43zm7.539-1.215c.793 0 1.4595.219 1.9994.658.5484.438.8774 1.037.9871 1.797l-1.392.126c-.0507-.422-.2236-.755-.5189-.999-.2868-.245-.6454-.367-1.0756-.367-.5399 0-.9786.189-1.3161.569-.329.38-.4935.907-.4935 1.582 0 .666.1687 1.189.5062 1.569.3374.38.7719.569 1.3034.569.4387 0 .7972-.113 1.0756-.341.2869-.228.464-.544.5315-.949l1.392.126c-.1265.734-.4598 1.316-.9997 1.747-.5399.43-1.2064.645-1.9994.645-.9533 0-1.7337-.3-2.3411-.899-.6074-.607-.9111-1.429-.9111-2.467 0-1.046.2995-1.869.8984-2.468.6075-.599 1.392-.898 2.3538-.898zm7.8886-2.215c.4978-.514 1.1895-.772 2.0754-.772.8858 0 1.5733.236 2.0627.709.4893.464.7339 1.118.7339 1.961 0 .717-.1561 1.359-.4682 1.924-.3037.557-.7424 1.147-1.3161 1.771l-1.759 1.886h3.6319v1.341h-5.7072v-1.24l2.7207-2.91c.54-.574.9069-1.038 1.101-1.392.194-.355.291-.793.291-1.316 0-.431-.1096-.768-.329-1.013-.2193-.253-.5273-.379-.9238-.379-.9027 0-1.3624.548-1.3793 1.645l-1.5059-.089c.0169-.911.2742-1.62.7719-2.126zm8.9223-.772c.8778 0 1.5648.241 2.0628.722.506.48.759 1.13.759 1.948 0 .962-.417 1.637-1.253 2.025.422.118.768.371 1.038.759.278.38.418.848.418 1.405 0 .886-.275 1.586-.823 2.101-.548.506-1.274.759-2.1765.759-.9449 0-1.6789-.249-2.2019-.747-.5231-.497-.8057-1.189-.8479-2.075l1.5059-.089c.0844 1.047.5948 1.57 1.5312 1.57.4722 0 .8392-.135 1.1012-.405.261-.27.392-.65.392-1.139 0-.481-.143-.844-.43-1.089-.287-.244-.675-.367-1.1644-.367h-.9491v-1.341h.9238c.4137 0 .7507-.122 1.0127-.367.27-.245.405-.578.405-1 0-.43-.114-.759-.342-.987-.228-.227-.548-.341-.9618-.341-.4219 0-.7551.13-.9997.392-.2363.253-.367.612-.3923 1.076l-1.4933-.076c.0253-.852.2869-1.519.7846-2 .5062-.489 1.2064-.734 2.1007-.734zm4.9928 7.909c.27 0 .476.093.62.279.152.185.228.43.228.734 0 1.155-.549 2.029-1.646 2.619v-.607c.431-.312.692-.722.785-1.228-.245-.017-.451-.109-.62-.278-.16-.169-.24-.371-.24-.608 0-.253.08-.468.24-.645.169-.177.38-.266.633-.266zm5.759-7.137c.498-.514 1.189-.772 2.075-.772s1.574.236 2.063.709c.489.464.734 1.118.734 1.961 0 .717-.156 1.359-.468 1.924-.304.557-.743 1.147-1.317 1.771l-1.758 1.886h3.631v1.341h-5.707v-1.24l2.721-2.91c.54-.574.907-1.038 1.101-1.392.194-.355.291-.793.291-1.316 0-.431-.11-.768-.329-1.013-.219-.253-.527-.379-.924-.379-.903 0-1.362.548-1.379 1.645l-1.506-.089c.017-.911.274-1.62.772-2.126zm6.961.506c.632-.852 1.48-1.278 2.543-1.278s1.907.426 2.531 1.278c.633.844.949 2.038.949 3.582 0 1.535-.316 2.729-.949 3.581s-1.476 1.278-2.531 1.278c-1.063 0-1.911-.426-2.543-1.278-.633-.852-.95-2.046-.95-3.581 0-1.544.317-2.738.95-3.582zm2.543.064c-1.308 0-1.961 1.172-1.961 3.518 0 2.345.653 3.518 1.961 3.518 1.299 0 1.949-1.173 1.949-3.518 0-2.346-.65-3.518-1.949-3.518zm5.511-.57c.497-.514 1.189-.772 2.075-.772s1.573.236 2.063.709c.489.464.734 1.118.734 1.961 0 .717-.156 1.359-.469 1.924-.303.557-.742 1.147-1.316 1.771l-1.759 1.886h3.632v1.341h-5.707v-1.24l2.721-2.91c.54-.574.907-1.038 1.101-1.392.194-.355.291-.793.291-1.316 0-.431-.11-.768-.329-1.013-.22-.253-.527-.379-.924-.379-.903 0-1.362.548-1.379 1.645l-1.506-.089c.017-.911.274-1.62.772-2.126zm9.15 8.82h-1.494v-7.478l-1.442 1.063-.721-1.19 2.556-1.86h1.101z" fill="#fff"/><path d="m62.8315 151.716h4.9787c1.1389 0 2.0609.331 2.7659.992.7051.662 1.0576 1.595 1.0576 2.799 0 1.193-.358 2.126-1.0739 2.798-.705.662-1.6215.993-2.7496.993h-3.0425v4.588h-1.9362zm1.9199 1.708v4.149h2.8147c.6075 0 1.1064-.179 1.4969-.537s.5857-.868.5857-1.529c0-.673-.1952-1.188-.5857-1.546s-.8894-.537-1.4969-.537zm11.5918 1.969c1.0739 0 1.8982.287 2.4731.862.5749.564.8623 1.378.8623 2.441v5.19h-1.8385v-.749c-.64.608-1.3938.911-2.2616.911-.846 0-1.5239-.211-2.0337-.634-.499-.434-.7484-1.036-.7484-1.806 0-1.562 1.0195-2.403 3.0587-2.522l1.985-.114v-.244c0-1.16-.4935-1.741-1.4806-1.741-.4881 0-.8623.136-1.1226.407-.2495.271-.3742.607-.3742 1.009l-1.8386-.065c0-.781.3037-1.465.9112-2.05.6074-.597 1.41-.895 2.4079-.895zm1.5132 4.995-1.7409.114c-.9871.054-1.4806.412-1.4806 1.073 0 .629.4176.944 1.2528.944.6074 0 1.0847-.152 1.4318-.456.3579-.314.5369-.775.5369-1.382zm4.4718-8.542c.2278-.228.499-.342.8135-.342.3146 0 .5858.114.8135.342.2278.217.3417.483.3417.797 0 .315-.1139.586-.3417.814-.2277.217-.4989.325-.8135.325-.3145 0-.5857-.108-.8135-.325-.2169-.228-.3254-.499-.3254-.814 0-.314.1085-.58.3254-.797zm1.7247 12.04h-1.8223v-8.347h1.8223zm10.6148 0h-1.7246v-1.155c-.2386.39-.602.71-1.0901.96-.4773.238-1.0304.357-1.6596.357-1.1823 0-2.1476-.39-2.896-1.171-.7485-.792-1.1227-1.844-1.1227-3.156 0-1.313.3742-2.36 1.1227-3.141.7484-.791 1.7137-1.187 2.896-1.187.5966 0 1.1281.108 1.5945.325.4664.206.8189.483 1.0576.83v-5.304h1.8222zm-4.1814-6.931c-.7267 0-1.3179.244-1.7734.732-.4556.488-.6834 1.166-.6834 2.034 0 .867.2278 1.545.6834 2.033.4555.478 1.0467.716 1.7734.716.705 0 1.2745-.222 1.7084-.667.4338-.445.6508-1.068.6508-1.871v-.439c0-.803-.217-1.427-.6508-1.871-.4339-.445-1.0034-.667-1.7084-.667zm17.9257 5.206v1.725h-8.103v-1.578c.64-.207 1.085-.548 1.334-1.025.25-.489.337-1.172.261-2.051l-.049-.52h-1.611v-1.53h1.481l-.114-1.431c-.119-1.334.098-2.365.651-3.092.564-.737 1.453-1.106 2.668-1.106 1.063 0 1.876.282 2.441.846.564.553.856 1.318.878 2.294l-1.92.098c0-.467-.125-.835-.374-1.107-.239-.282-.591-.423-1.058-.423-1.106 0-1.599.716-1.48 2.148l.146 1.773h2.652v1.53h-2.522l.049.553c.109 1.204-.249 2.169-1.074 2.896zm6.021-9.616c.64-.661 1.53-.992 2.668-.992 1.139 0 2.023.304 2.652.911.63.597.944 1.437.944 2.522 0 .922-.201 1.746-.602 2.473-.39.716-.954 1.475-1.692 2.278l-2.261 2.424h4.669v1.725h-7.338v-1.595l3.498-3.742c.694-.737 1.166-1.334 1.416-1.79.249-.455.374-1.019.374-1.692 0-.553-.141-.987-.423-1.301-.282-.326-.678-.488-1.188-.488-1.16 0-1.751.705-1.773 2.115l-1.936-.114c.021-1.172.352-2.083.992-2.734zm8.95.651c.813-1.095 1.903-1.643 3.27-1.643s2.451.548 3.254 1.643c.814 1.085 1.22 2.62 1.22 4.605 0 1.974-.406 3.509-1.22 4.604-.813 1.096-1.898 1.643-3.254 1.643-1.367 0-2.457-.547-3.27-1.643-.814-1.095-1.221-2.63-1.221-4.604 0-1.985.407-3.52 1.221-4.605zm3.27.082c-1.681 0-2.522 1.507-2.522 4.523 0 3.015.841 4.523 2.522 4.523 1.67 0 2.506-1.508 2.506-4.523 0-3.016-.836-4.523-2.506-4.523zm7.101 8.428c.326 0 .602.113.83.341.239.228.358.51.358.846 0 .315-.119.586-.358.814-.228.228-.504.341-.83.341-.314 0-.585-.113-.813-.341s-.342-.499-.342-.814c0-.336.114-.618.342-.846s.499-.341.813-.341zm3.849-8.51c.814-1.095 1.904-1.643 3.271-1.643 1.366 0 2.451.548 3.254 1.643.813 1.085 1.22 2.62 1.22 4.605 0 1.974-.407 3.509-1.22 4.604-.814 1.096-1.899 1.643-3.254 1.643-1.367 0-2.457-.547-3.271-1.643-.813-1.095-1.22-2.63-1.22-4.604 0-1.985.407-3.52 1.22-4.605zm3.271.082c-1.682 0-2.522 1.507-2.522 4.523 0 3.015.84 4.523 2.522 4.523 1.67 0 2.505-1.508 2.505-4.523 0-3.016-.835-4.523-2.505-4.523zm7.263-.082c.814-1.095 1.904-1.643 3.271-1.643 1.366 0 2.451.548 3.254 1.643.813 1.085 1.22 2.62 1.22 4.605 0 1.974-.407 3.509-1.22 4.604-.814 1.096-1.898 1.643-3.254 1.643-1.367 0-2.457-.547-3.271-1.643-.813-1.095-1.22-2.63-1.22-4.604 0-1.985.407-3.52 1.22-4.605zm3.271.082c-1.681 0-2.522 1.507-2.522 4.523 0 3.015.841 4.523 2.522 4.523 1.67 0 2.505-1.508 2.505-4.523 0-3.016-.835-4.523-2.505-4.523z" fill="#fff"/><rect fill="#fff" height="80.3481" rx="18.0779" width="124.925" x="285.539" y="106"/><path d="m317.53 124.997v6.302c0 1.037-.279 1.847-.835 2.429-.549.574-1.308.861-2.278.861-.928 0-1.675-.27-2.24-.81-.557-.54-.861-1.286-.911-2.24l1.506-.24c.033.616.194 1.096.481 1.442.286.338.679.507 1.176.507.515 0 .907-.161 1.177-.481.279-.329.418-.806.418-1.43v-6.34zm4.362 2.86c.836 0 1.477.223 1.924.67.447.439.671 1.072.671 1.899v4.036h-1.43v-.582c-.498.473-1.084.709-1.759.709-.658 0-1.186-.165-1.582-.494-.388-.337-.582-.805-.582-1.404 0-1.215.793-1.869 2.379-1.962l1.544-.088v-.19c0-.903-.384-1.354-1.152-1.354-.38 0-.671.105-.873.316-.194.211-.291.473-.291.785l-1.43-.051c0-.607.236-1.139.709-1.594.472-.464 1.096-.696 1.872-.696zm1.177 3.885-1.354.088c-.767.042-1.151.321-1.151.835 0 .49.324.734.974.734.473 0 .844-.118 1.114-.354.278-.245.417-.603.417-1.076zm6.642-3.885c.751 0 1.358.244 1.822.734.473.481.709 1.134.709 1.961v3.91h-1.43v-3.72c0-.481-.131-.861-.392-1.139-.253-.287-.595-.43-1.025-.43-.447 0-.81.152-1.089.455-.278.296-.417.671-.417 1.127v3.707h-1.418v-6.491h1.342v.86c.371-.649 1.004-.974 1.898-.974zm7.867-2.215c.498-.514 1.19-.772 2.075-.772.886 0 1.574.236 2.063.709.489.464.734 1.118.734 1.961 0 .717-.156 1.359-.468 1.924-.304.557-.743 1.147-1.316 1.771l-1.759 1.886h3.632v1.341h-5.708v-1.24l2.721-2.91c.54-.574.907-1.038 1.101-1.392.194-.355.291-.793.291-1.316 0-.431-.109-.768-.329-1.013-.219-.253-.527-.379-.924-.379-.902 0-1.362.548-1.379 1.645l-1.506-.089c.017-.911.274-1.62.772-2.126zm8.922-.772c.878 0 1.565.241 2.063.722.506.48.759 1.13.759 1.948 0 .962-.417 1.637-1.252 2.025.421.118.767.371 1.037.759.279.38.418.848.418 1.405 0 .886-.274 1.586-.823 2.101-.548.506-1.274.759-2.176.759-.945 0-1.679-.249-2.202-.747-.523-.497-.806-1.189-.848-2.075l1.506-.089c.084 1.047.595 1.57 1.531 1.57.472 0 .839-.135 1.101-.405.261-.27.392-.65.392-1.139 0-.481-.143-.844-.43-1.089-.287-.244-.675-.367-1.164-.367h-.949v-1.341h.923c.414 0 .751-.122 1.013-.367.27-.245.405-.578.405-1 0-.43-.114-.759-.342-.987-.228-.227-.548-.341-.962-.341-.421 0-.755.13-.999.392-.237.253-.367.612-.393 1.076l-1.493-.076c.025-.852.287-1.519.785-2 .506-.489 1.206-.734 2.1-.734zm4.993 7.909c.27 0 .477.093.62.279.152.185.228.43.228.734 0 1.155-.549 2.029-1.645 2.619v-.607c.43-.312.691-.722.784-1.228-.244-.017-.451-.109-.62-.278-.16-.169-.24-.371-.24-.608 0-.253.08-.468.24-.645.169-.177.38-.266.633-.266zm5.759-7.137c.498-.514 1.189-.772 2.075-.772s1.574.236 2.063.709c.489.464.734 1.118.734 1.961 0 .717-.156 1.359-.468 1.924-.304.557-.743 1.147-1.316 1.771l-1.759 1.886h3.632v1.341h-5.708v-1.24l2.721-2.91c.54-.574.907-1.038 1.101-1.392.194-.355.291-.793.291-1.316 0-.431-.11-.768-.329-1.013-.219-.253-.527-.379-.924-.379-.902 0-1.362.548-1.379 1.645l-1.506-.089c.017-.911.274-1.62.772-2.126zm6.961.506c.632-.852 1.48-1.278 2.543-1.278s1.907.426 2.531 1.278c.633.844.949 2.038.949 3.582 0 1.535-.316 2.729-.949 3.581-.632.852-1.476 1.278-2.531 1.278-1.063 0-1.911-.426-2.543-1.278-.633-.852-.949-2.046-.949-3.581 0-1.544.316-2.738.949-3.582zm2.543.064c-1.307 0-1.961 1.172-1.961 3.518 0 2.345.654 3.518 1.961 3.518 1.3 0 1.949-1.173 1.949-3.518 0-2.346-.649-3.518-1.949-3.518zm5.511-.57c.498-.514 1.189-.772 2.075-.772s1.574.236 2.063.709c.489.464.734 1.118.734 1.961 0 .717-.156 1.359-.468 1.924-.304.557-.743 1.147-1.316 1.771l-1.759 1.886h3.631v1.341h-5.707v-1.24l2.721-2.91c.54-.574.907-1.038 1.101-1.392.194-.355.291-.793.291-1.316 0-.431-.11-.768-.329-1.013-.219-.253-.527-.379-.924-.379-.903 0-1.362.548-1.379 1.645l-1.506-.089c.017-.911.274-1.62.772-2.126zm6.821 0c.498-.514 1.19-.772 2.076-.772s1.573.236 2.063.709c.489.464.733 1.118.733 1.961 0 .717-.156 1.359-.468 1.924-.303.557-.742 1.147-1.316 1.771l-1.759 1.886h3.632v1.341h-5.707v-1.24l2.721-2.91c.54-.574.906-1.038 1.101-1.392.194-.355.291-.793.291-1.316 0-.431-.11-.768-.329-1.013-.22-.253-.528-.379-.924-.379-.903 0-1.363.548-1.38 1.645l-1.505-.089c.016-.911.274-1.62.771-2.126z" fill="#000"/><path d="m301.367 151.716h4.978c1.139 0 2.061.331 2.766.992.705.662 1.058 1.595 1.058 2.799 0 1.193-.358 2.126-1.074 2.798-.705.662-1.622.993-2.75.993h-3.042v4.588h-1.936zm1.92 1.708v4.149h2.814c.608 0 1.107-.179 1.497-.537.391-.358.586-.868.586-1.529 0-.673-.195-1.188-.586-1.546-.39-.358-.889-.537-1.497-.537zm11.591 1.969c1.074 0 1.899.287 2.473.862.575.564.863 1.378.863 2.441v5.19h-1.839v-.749c-.64.608-1.394.911-2.261.911-.846 0-1.524-.211-2.034-.634-.499-.434-.748-1.036-.748-1.806 0-1.562 1.019-2.403 3.058-2.522l1.985-.114v-.244c0-1.16-.493-1.741-1.48-1.741-.488 0-.863.136-1.123.407-.249.271-.374.607-.374 1.009l-1.839-.065c0-.781.304-1.465.911-2.05.608-.597 1.41-.895 2.408-.895zm1.514 4.995-1.741.114c-.987.054-1.481.412-1.481 1.073 0 .629.418.944 1.253.944.607 0 1.085-.152 1.432-.456.358-.314.537-.775.537-1.382zm4.471-8.542c.228-.228.499-.342.814-.342.314 0 .586.114.813.342.228.217.342.483.342.797 0 .315-.114.586-.342.814-.227.217-.499.325-.813.325-.315 0-.586-.108-.814-.325-.217-.228-.325-.499-.325-.814 0-.314.108-.58.325-.797zm1.725 12.04h-1.822v-8.347h1.822zm10.615 0h-1.725v-1.155c-.238.39-.602.71-1.09.96-.477.238-1.03.357-1.659.357-1.183 0-2.148-.39-2.896-1.171-.749-.792-1.123-1.844-1.123-3.156 0-1.313.374-2.36 1.123-3.141.748-.791 1.713-1.187 2.896-1.187.596 0 1.128.108 1.594.325.466.206.819.483 1.058.83v-5.304h1.822zm-4.182-6.931c-.726 0-1.317.244-1.773.732s-.683 1.166-.683 2.034c0 .867.227 1.545.683 2.033.456.478 1.047.716 1.773.716.706 0 1.275-.222 1.709-.667s.651-1.068.651-1.871v-.439c0-.803-.217-1.427-.651-1.871-.434-.445-1.003-.667-1.709-.667zm17.926 5.206v1.725h-8.103v-1.578c.64-.207 1.085-.548 1.335-1.025.249-.489.336-1.172.26-2.051l-.049-.52h-1.611v-1.53h1.481l-.114-1.431c-.119-1.334.098-2.365.651-3.092.564-.737 1.453-1.106 2.668-1.106 1.063 0 1.877.282 2.441.846.564.553.857 1.318.878 2.294l-1.92.098c0-.467-.124-.835-.374-1.107-.238-.282-.591-.423-1.057-.423-1.107 0-1.6.716-1.481 2.148l.146 1.773h2.652v1.53h-2.521l.048.553c.109 1.204-.249 2.169-1.073 2.896zm6.021-9.616c.64-.661 1.53-.992 2.669-.992s2.023.304 2.652.911c.629.597.943 1.437.943 2.522 0 .922-.2 1.746-.602 2.473-.39.716-.954 1.475-1.692 2.278l-2.261 2.424h4.669v1.725h-7.338v-1.595l3.498-3.742c.695-.737 1.166-1.334 1.416-1.79.249-.455.374-1.019.374-1.692 0-.553-.141-.987-.423-1.301-.282-.326-.678-.488-1.188-.488-1.16 0-1.751.705-1.773 2.115l-1.936-.114c.022-1.172.352-2.083.992-2.734zm8.95.651c.813-1.095 1.903-1.643 3.27-1.643s2.452.548 3.254 1.643c.814 1.085 1.22 2.62 1.22 4.605 0 1.974-.406 3.509-1.22 4.604-.813 1.096-1.898 1.643-3.254 1.643-1.367 0-2.457-.547-3.27-1.643-.814-1.095-1.22-2.63-1.22-4.604 0-1.985.406-3.52 1.22-4.605zm3.27.082c-1.681 0-2.522 1.507-2.522 4.523 0 3.015.841 4.523 2.522 4.523 1.671 0 2.506-1.508 2.506-4.523 0-3.016-.835-4.523-2.506-4.523zm7.101 8.428c.326 0 .602.113.83.341.239.228.358.51.358.846 0 .315-.119.586-.358.814-.228.228-.504.341-.83.341-.314 0-.585-.113-.813-.341s-.342-.499-.342-.814c0-.336.114-.618.342-.846s.499-.341.813-.341zm3.849-8.51c.814-1.095 1.904-1.643 3.271-1.643 1.366 0 2.451.548 3.254 1.643.813 1.085 1.22 2.62 1.22 4.605 0 1.974-.407 3.509-1.22 4.604-.814 1.096-1.898 1.643-3.254 1.643-1.367 0-2.457-.547-3.271-1.643-.813-1.095-1.22-2.63-1.22-4.604 0-1.985.407-3.52 1.22-4.605zm3.271.082c-1.682 0-2.522 1.507-2.522 4.523 0 3.015.84 4.523 2.522 4.523 1.67 0 2.505-1.508 2.505-4.523 0-3.016-.835-4.523-2.505-4.523zm7.264-.082c.813-1.095 1.903-1.643 3.27-1.643s2.451.548 3.254 1.643c.813 1.085 1.22 2.62 1.22 4.605 0 1.974-.407 3.509-1.22 4.604-.814 1.096-1.898 1.643-3.254 1.643-1.367 0-2.457-.547-3.27-1.643-.814-1.095-1.221-2.63-1.221-4.604 0-1.985.407-3.52 1.221-4.605zm3.27.082c-1.681 0-2.522 1.507-2.522 4.523 0 3.015.841 4.523 2.522 4.523 1.67 0 2.506-1.508 2.506-4.523 0-3.016-.836-4.523-2.506-4.523z" fill="#000"/><path d="m524.168 124.078c0-9.984 8.094-18.078 18.078-18.078h88.769c9.984 0 18.078 8.094 18.078 18.078v58.654c0 1.997-1.619 3.616-3.616 3.616h-103.231c-9.984 0-18.078-8.094-18.078-18.078z" fill="#ffdc26"/><g fill="#000"><path d="m567.64 126.326h-4.442v2.644h3.67v1.329h-3.67v4.163h-1.506v-9.465h5.948zm6.781 5.428h-4.77c.033.49.206.882.518 1.177.313.287.718.43 1.215.43.844 0 1.359-.307 1.544-.923l1.43.076c-.126.59-.464 1.084-1.012 1.48-.549.397-1.19.595-1.924.595-.97 0-1.759-.3-2.366-.899-.608-.607-.911-1.429-.911-2.467s.299-1.856.898-2.455c.599-.608 1.38-.911 2.341-.911.928 0 1.666.287 2.215.86.548.574.822 1.354.822 2.341zm-3.049-2.682c-.481 0-.878.139-1.19.417-.312.27-.485.654-.519 1.152h3.328c-.016-.481-.164-.861-.443-1.139-.269-.287-.662-.43-1.176-.43zm6.109-4.442v4.125c.185-.27.459-.485.822-.645.363-.169.776-.253 1.24-.253.92 0 1.671.308 2.253.924.582.607.873 1.421.873 2.442s-.291 1.839-.873 2.455c-.582.607-1.333.911-2.253.911-.489 0-.923-.093-1.303-.278-.371-.194-.65-.443-.835-.747v.898h-1.342v-9.832zm1.835 4.442c-.549 0-.992.173-1.329.518-.338.346-.506.831-.506 1.456v.341c0 .625.168 1.11.506 1.456.337.346.78.518 1.329.518.565 0 1.025-.185 1.379-.556.354-.38.531-.907.531-1.582s-.177-1.202-.531-1.582-.814-.569-1.379-.569zm8.348-3.43c.498-.514 1.19-.772 2.076-.772.885 0 1.573.236 2.062.709.49.464.734 1.118.734 1.961 0 .717-.156 1.359-.468 1.924-.304.557-.742 1.147-1.316 1.771l-1.759 1.886h3.632v1.341h-5.707v-1.24l2.72-2.91c.54-.574.907-1.038 1.101-1.392.194-.355.291-.793.291-1.316 0-.431-.109-.768-.329-1.013-.219-.253-.527-.379-.923-.379-.903 0-1.363.548-1.38 1.645l-1.506-.089c.017-.911.275-1.62.772-2.126zm8.922-.772c.878 0 1.565.241 2.063.722.506.48.759 1.13.759 1.948 0 .962-.417 1.637-1.252 2.025.421.118.767.371 1.037.759.279.38.418.848.418 1.405 0 .886-.274 1.586-.823 2.101-.548.506-1.274.759-2.176.759-.945 0-1.679-.249-2.202-.747-.523-.497-.806-1.189-.848-2.075l1.506-.089c.084 1.047.595 1.57 1.531 1.57.473 0 .84-.135 1.101-.405.262-.27.392-.65.392-1.139 0-.481-.143-.844-.43-1.089-.287-.244-.675-.367-1.164-.367h-.949v-1.341h.924c.413 0 .75-.122 1.012-.367.27-.245.405-.578.405-1 0-.43-.114-.759-.342-.987-.228-.227-.548-.341-.962-.341-.421 0-.755.13-.999.392-.236.253-.367.612-.393 1.076l-1.493-.076c.026-.852.287-1.519.785-2 .506-.489 1.206-.734 2.1-.734zm4.993 7.909c.27 0 .477.093.62.279.152.185.228.43.228.734 0 1.155-.548 2.029-1.645 2.619v-.607c.43-.312.692-.722.784-1.228-.244-.017-.451-.109-.62-.278-.16-.169-.24-.371-.24-.608 0-.253.08-.468.24-.645.169-.177.38-.266.633-.266zm5.759-7.137c.498-.514 1.19-.772 2.075-.772.886 0 1.574.236 2.063.709.489.464.734 1.118.734 1.961 0 .717-.156 1.359-.468 1.924-.304.557-.743 1.147-1.316 1.771l-1.759 1.886h3.632v1.341h-5.708v-1.24l2.721-2.91c.54-.574.907-1.038 1.101-1.392.194-.355.291-.793.291-1.316 0-.431-.109-.768-.329-1.013-.219-.253-.527-.379-.924-.379-.902 0-1.362.548-1.379 1.645l-1.506-.089c.017-.911.274-1.62.772-2.126zm6.961.506c.633-.852 1.48-1.278 2.543-1.278s1.907.426 2.531 1.278c.633.844.949 2.038.949 3.582 0 1.535-.316 2.729-.949 3.581-.632.852-1.476 1.278-2.531 1.278-1.063 0-1.91-.426-2.543-1.278s-.949-2.046-.949-3.581c0-1.544.316-2.738.949-3.582zm2.543.064c-1.307 0-1.961 1.172-1.961 3.518 0 2.345.654 3.518 1.961 3.518 1.3 0 1.949-1.173 1.949-3.518 0-2.346-.649-3.518-1.949-3.518zm5.511-.57c.498-.514 1.19-.772 2.075-.772.886 0 1.574.236 2.063.709.489.464.734 1.118.734 1.961 0 .717-.156 1.359-.468 1.924-.304.557-.743 1.147-1.316 1.771l-1.759 1.886h3.632v1.341h-5.708v-1.24l2.721-2.91c.54-.574.907-1.038 1.101-1.392.194-.355.291-.793.291-1.316 0-.431-.11-.768-.329-1.013-.219-.253-.527-.379-.924-.379-.902 0-1.362.548-1.379 1.645l-1.506-.089c.017-.911.274-1.62.772-2.126zm6.822 0c.497-.514 1.189-.772 2.075-.772s1.573.236 2.063.709c.489.464.734 1.118.734 1.961 0 .717-.156 1.359-.469 1.924-.303.557-.742 1.147-1.316 1.771l-1.759 1.886h3.632v1.341h-5.707v-1.24l2.721-2.91c.54-.574.907-1.038 1.101-1.392.194-.355.291-.793.291-1.316 0-.431-.11-.768-.329-1.013-.22-.253-.528-.379-.924-.379-.903 0-1.363.548-1.379 1.645l-1.506-.089c.017-.911.274-1.62.772-2.126z"/><path d="m539.996 151.716h4.978c1.139 0 2.061.331 2.766.992.705.662 1.058 1.595 1.058 2.799 0 1.193-.358 2.126-1.074 2.798-.705.662-1.622.993-2.75.993h-3.042v4.588h-1.936zm1.919 1.708v4.149h2.815c.608 0 1.107-.179 1.497-.537.391-.358.586-.868.586-1.529 0-.673-.195-1.188-.586-1.546-.39-.358-.889-.537-1.497-.537zm11.592 1.969c1.074 0 1.898.287 2.473.862.575.564.863 1.378.863 2.441v5.19h-1.839v-.749c-.64.608-1.394.911-2.261.911-.846 0-1.524-.211-2.034-.634-.499-.434-.749-1.036-.749-1.806 0-1.562 1.02-2.403 3.059-2.522l1.985-.114v-.244c0-1.16-.493-1.741-1.48-1.741-.489 0-.863.136-1.123.407-.25.271-.374.607-.374 1.009l-1.839-.065c0-.781.304-1.465.911-2.05.608-.597 1.41-.895 2.408-.895zm1.513 4.995-1.74.114c-.988.054-1.481.412-1.481 1.073 0 .629.418.944 1.253.944.607 0 1.084-.152 1.432-.456.357-.314.536-.775.536-1.382zm4.472-8.542c.228-.228.499-.342.814-.342.314 0 .586.114.813.342.228.217.342.483.342.797 0 .315-.114.586-.342.814-.227.217-.499.325-.813.325-.315 0-.586-.108-.814-.325-.217-.228-.325-.499-.325-.814 0-.314.108-.58.325-.797zm1.725 12.04h-1.822v-8.347h1.822zm10.615 0h-1.725v-1.155c-.238.39-.602.71-1.09.96-.477.238-1.03.357-1.659.357-1.183 0-2.148-.39-2.897-1.171-.748-.792-1.122-1.844-1.122-3.156 0-1.313.374-2.36 1.122-3.141.749-.791 1.714-1.187 2.897-1.187.596 0 1.128.108 1.594.325.466.206.819.483 1.058.83v-5.304h1.822zm-4.182-6.931c-.726 0-1.318.244-1.773.732-.456.488-.683 1.166-.683 2.034 0 .867.227 1.545.683 2.033.455.478 1.047.716 1.773.716.705 0 1.275-.222 1.709-.667s.651-1.068.651-1.871v-.439c0-.803-.217-1.427-.651-1.871-.434-.445-1.004-.667-1.709-.667zm17.926 5.206v1.725h-8.103v-1.578c.64-.207 1.085-.548 1.334-1.025.25-.489.337-1.172.261-2.051l-.049-.52h-1.611v-1.53h1.481l-.114-1.431c-.119-1.334.098-2.365.651-3.092.564-.737 1.453-1.106 2.668-1.106 1.063 0 1.877.282 2.441.846.564.553.856 1.318.878 2.294l-1.92.098c0-.467-.124-.835-.374-1.107-.239-.282-.591-.423-1.057-.423-1.107 0-1.6.716-1.481 2.148l.146 1.773h2.652v1.53h-2.521l.048.553c.109 1.204-.249 2.169-1.073 2.896zm6.021-9.616c.64-.661 1.53-.992 2.669-.992 1.138 0 2.022.304 2.652.911.629.597.943 1.437.943 2.522 0 .922-.2 1.746-.602 2.473-.39.716-.954 1.475-1.692 2.278l-2.261 2.424h4.669v1.725h-7.338v-1.595l3.498-3.742c.695-.737 1.166-1.334 1.416-1.79.249-.455.374-1.019.374-1.692 0-.553-.141-.987-.423-1.301-.282-.326-.678-.488-1.188-.488-1.16 0-1.751.705-1.773 2.115l-1.936-.114c.021-1.172.352-2.083.992-2.734zm8.95.651c.813-1.095 1.903-1.643 3.27-1.643s2.451.548 3.254 1.643c.814 1.085 1.22 2.62 1.22 4.605 0 1.974-.406 3.509-1.22 4.604-.813 1.096-1.898 1.643-3.254 1.643-1.367 0-2.457-.547-3.27-1.643-.814-1.095-1.22-2.63-1.22-4.604 0-1.985.406-3.52 1.22-4.605zm3.27.082c-1.681 0-2.522 1.507-2.522 4.523 0 3.015.841 4.523 2.522 4.523 1.67 0 2.506-1.508 2.506-4.523 0-3.016-.836-4.523-2.506-4.523zm7.101 8.428c.326 0 .602.113.83.341.239.228.358.51.358.846 0 .315-.119.586-.358.814-.228.228-.504.341-.83.341-.314 0-.585-.113-.813-.341s-.342-.499-.342-.814c0-.336.114-.618.342-.846s.499-.341.813-.341zm3.849-8.51c.814-1.095 1.904-1.643 3.271-1.643 1.366 0 2.451.548 3.254 1.643.813 1.085 1.22 2.62 1.22 4.605 0 1.974-.407 3.509-1.22 4.604-.814 1.096-1.899 1.643-3.254 1.643-1.367 0-2.457-.547-3.271-1.643-.813-1.095-1.22-2.63-1.22-4.604 0-1.985.407-3.52 1.22-4.605zm3.271.082c-1.682 0-2.522 1.507-2.522 4.523 0 3.015.84 4.523 2.522 4.523 1.67 0 2.505-1.508 2.505-4.523 0-3.016-.835-4.523-2.505-4.523zm7.264-.082c.813-1.095 1.903-1.643 3.27-1.643s2.451.548 3.254 1.643c.813 1.085 1.22 2.62 1.22 4.605 0 1.974-.407 3.509-1.22 4.604-.814 1.096-1.898 1.643-3.254 1.643-1.367 0-2.457-.547-3.27-1.643-.814-1.095-1.221-2.63-1.221-4.604 0-1.985.407-3.52 1.221-4.605zm3.27.082c-1.681 0-2.522 1.507-2.522 4.523 0 3.015.841 4.523 2.522 4.523 1.67 0 2.505-1.508 2.505-4.523 0-3.016-.835-4.523-2.505-4.523z"/><path d="m47 214.468h601.995v3.615h-601.995z"/><path d="m47 221.802v-11.053c0-1.47 1.662-2.325 2.8586-1.471l7.7365 5.526c1.0093.721 1.0093 2.222 0 2.943l-7.7365 5.526c-1.1966.854-2.8586-.001-2.8586-1.471z"/><path d="m648.996 221.802v-11.053c0-1.47-1.662-2.325-2.858-1.471l-7.737 5.526c-1.009.721-1.009 2.222 0 2.943l7.737 5.526c1.196.854 2.858-.001 2.858-1.471z"/><circle cx="347.999" cy="216.275" r="6.32727"/></g></svg>