<svg fill="none" height="696" viewBox="0 0 696 696" width="696" xmlns="http://www.w3.org/2000/svg" xmlns:xlink="http://www.w3.org/1999/xlink"><mask id="a" height="144" maskUnits="userSpaceOnUse" width="73" x="299" y="222"><path clip-rule="evenodd" d="m348.007 365.587c-26.712 0-48.366-31.989-48.366-71.45 0-39.46 21.654-71.449 48.366-71.449h23.633v.113c-25.433 2.104-45.618 33.238-45.618 71.336 0 38.099 20.185 69.232 45.618 71.337v.113z" fill="#c4c4c4" fill-rule="evenodd"/></mask><path d="m0 0h696v696h-696z" fill="#f3f3f3"/><g stroke="#000" stroke-width="2.19846"><path d="m549.16 498.595h8.79384v8.79384h-8.79384z"/><path d="m138.047 142.444h10.9923v10.9923h-10.9923z"/><circle cx="5.49615" cy="5.49615" fill="#ffdc26" r="5.49615" transform="matrix(1 0 0 -1 513.984 304.031)"/><circle cx="7.69461" cy="7.69461" fill="#ffb48a" r="7.69461" transform="matrix(1 0 0 -1 177.621 540.365)"/><path d="m518.383 384.274h62.656"/><path d="m519.48 384.274v21.985"/><path d="m562.352 363.389v21.985"/><path d="m501.895 406.259h62.656"/><path d="m152.34 396.366h62.656"/><path d="m153.438 396.366-.001 21.985"/><path d="m196.309 375.481v21.985"/><path d="m518.383 183.116h62.656"/><path d="m562.352 204.001v-21.984"/><path d="m528.277 168.826v-15.389"/><path d="m537.621 204.001h25.832"/><path d="m188.609 285.344h-60.457"/><path d="m144.641 264.458v21.985"/><path d="m187.512 284.245v21.984"/><path d="m168.824 250.168v15.39"/><path d="m169.371 264.459-25.832-.001"/><path d="m200.703 168.826v15.389"/><path d="m201.254 183.116h-25.832"/><path d="m119.914 519.48v-15.389"/><path d="m119.363 505.19h25.832"/><rect fill="#ffdc26" height="444.089" rx="41.7707" width="241.831" x="236.98" y="125.956"/><circle cx="323.823" cy="153.436" fill="#fff" r="4.39692"/><path d="m341.41 153.437h54.962"/><path d="m280.953 428.244h153.892"/><path d="m302.938 450.229h109.922"/><path d="m424.949 235.878v-6.595h6.596v-6.595h6.595"/><path d="m288.645 372.183v-6.595h6.595v-6.596h6.595"/><path d="m299.637 294.137c0 39.461 21.654 71.45 48.366 71.45h23.633v-142.899h-23.633c-26.712 0-48.366 31.989-48.366 71.449z" fill="#ffb48a"/><ellipse cx="374.386" cy="294.137" fill="#fff" rx="48.3661" ry="71.4499"/><g mask="url(#a)"><path d="m291.945 354.595h93.435"/><path d="m291.945 360.091h93.435"/><path d="m291.945 349.099h93.435"/><path d="m291.945 343.603h93.435"/><path d="m291.945 338.106h93.435"/><path d="m291.945 332.61h93.435"/><path d="m291.945 327.114h93.435"/><path d="m291.945 321.618h93.435"/><path d="m291.945 316.122h93.435"/><path d="m291.945 310.626h93.435"/><path d="m291.945 305.13h93.435"/><path d="m291.945 299.633h93.435"/><path d="m291.945 294.137h93.435"/><path d="m291.945 288.641h93.435"/><path d="m291.945 283.145h93.435"/><path d="m291.945 277.649h93.435"/><path d="m291.945 272.153h93.435"/><path d="m291.945 266.657h93.435"/><path d="m291.945 261.161h93.435"/><path d="m291.945 255.665h93.435"/><path d="m291.945 250.168h93.435"/><path d="m291.945 244.672h93.435"/><path d="m291.945 239.176h93.435"/><path d="m291.945 233.68h93.435"/><path d="m291.945 228.184h93.435"/><path d="m291.945 222.688h93.435"/></g><path d="m362.293 191.909v16.489"/><path d="m362.293 384.274v16.489"/><path d="m466.723 296.336h-16.489"/><path d="m274.355 296.336h-16.488"/><path d="m436.137 370.176-11.659-11.659"/><path d="m300.113 234.154-11.659-11.659"/></g><path d="m378.781 262.26h-1.583l-11.608 14.063 1.231 2.302 9.849-11.677v59.067h2.111z" fill="#000"/><rect fill="#fff" height="48.1463" rx="5.38622" stroke="#000" stroke-width="2.41831" width="184.451" x="265.67" y="480.017"/><path d="m338.674 495.901h6.054c1.385 0 2.507.402 3.364 1.207s1.286 1.939 1.286 3.403c0 1.451-.435 2.586-1.306 3.404-.857.804-1.972 1.206-3.344 1.206h-3.7v5.58h-2.354zm2.335 2.078v5.045h3.423c.738 0 1.345-.217 1.82-.653.475-.435.712-1.055.712-1.86 0-.818-.237-1.444-.712-1.879-.475-.436-1.082-.653-1.82-.653zm17.394 2.394c1.306 0 2.308.349 3.008 1.048.699.686 1.048 1.676 1.048 2.968v6.312h-2.236v-.91c-.778.739-1.695 1.108-2.75 1.108-1.029 0-1.853-.257-2.473-.772-.607-.527-.91-1.259-.91-2.196 0-1.899 1.24-2.922 3.719-3.067l2.414-.138v-.297c0-1.411-.6-2.117-1.8-2.117-.594 0-1.049.165-1.365.495-.304.329-.455.738-.455 1.226l-2.236-.079c0-.95.369-1.781 1.108-2.493.738-.725 1.715-1.088 2.928-1.088zm1.84 6.074-2.117.139c-1.2.066-1.8.501-1.8 1.306 0 .765.507 1.147 1.523 1.147.739 0 1.319-.185 1.741-.554.436-.382.653-.943.653-1.682zm11.093 9.3h-2.433l2.493-5.758-4.017-9.438h2.473l2.731 6.945 2.73-6.945h2.474z" fill="#000"/></svg>