<svg fill="none" height="696" viewBox="0 0 696 696" width="696" xmlns="http://www.w3.org/2000/svg"><path d="m0 0h696v696h-696z" fill="#f3f3f3"/><rect fill="#e0e0e0" height="83.1584" rx="41.5792" width="83.1584" x="67.793" y="306.421"/><path d="m105.729 328.567c2.243-1.345 5.044-1.345 7.286 0l12.655 7.593c2.132 1.279 3.437 3.584 3.437 6.071v11.538c0 2.487-1.305 4.792-3.437 6.071l-12.655 7.593c-2.242 1.345-5.043 1.345-7.286 0l-12.6543-7.593c-2.1327-1.279-3.4376-3.584-3.4376-6.071v-11.538c0-2.487 1.3049-4.792 3.4376-6.071z" stroke="#000" stroke-linejoin="bevel" stroke-width="2.71169"/><circle cx="109.37" cy="348" r="7.08052" stroke="#000" stroke-linejoin="bevel" stroke-width="2.71169"/><rect fill="#e0e0e0" height="83.1584" rx="41.5792" width="83.1584" x="187.105" y="306.421"/><path d="m223.865 362.462v-8.129c0-1.752-.636-3.444-1.789-4.762l-10.27-11.737c-1.877-2.145-.353-5.501 2.497-5.501h28.766c2.85 0 4.373 3.356 2.496 5.501l-10.269 11.737c-1.154 1.318-1.79 3.01-1.79 4.762v14.155" stroke="#000" stroke-linecap="round" stroke-linejoin="bevel" stroke-width="2.71169"/><rect fill="#e0e0e0" height="83.1584" rx="41.5792" width="83.1584" x="306.422" y="306.421"/><path d="m328.262 342.426c0-2.995 2.428-5.423 5.423-5.423h28.624c2.995 0 5.423 2.428 5.423 5.423v15.969c0 2.995-2.428 5.423-5.423 5.423h-28.624c-2.995 0-5.423-2.428-5.423-5.423z" stroke="#000" stroke-linejoin="bevel" stroke-width="2.71169"/><circle cx="354.327" cy="350.41" r="4.97143" stroke="#000" stroke-linejoin="bevel" stroke-width="2.71169"/><path d="m331.391 327.888h16.6091v2.71169h-16.6091z" fill="#000"/><rect fill="#e0e0e0" height="83.1584" rx="41.5792" width="83.1584" x="425.734" y="306.421"/><path d="m467.316 326.758c11.732 0 21.242 9.511 21.242 21.242s-9.51 21.242-21.242 21.242c-11.731 0-21.241-9.511-21.241-21.242s9.51-21.242 21.241-21.242z" fill="#ffdc26" stroke="#000" stroke-linejoin="bevel" stroke-width="2.71169"/><path d="m476.355 352.52c-4.992 4.992-13.086 4.992-18.078 0" stroke="#000" stroke-linecap="round" stroke-linejoin="bevel" stroke-width="2.71169"/><circle cx="461.667" cy="342.351" fill="#000" r="3.38961"/><circle cx="472.964" cy="342.351" fill="#000" r="3.38961"/><rect fill="#e0e0e0" height="83.1584" rx="41.5792" width="83.1584" x="545.051" y="306.421"/><path clip-rule="evenodd" d="m598.157 345.062c0 7.488-6.071 13.559-13.559 13.559s-13.558-6.071-13.558-13.559 6.07-13.558 13.558-13.558 13.559 6.07 13.559 13.558zm-3.054 12.425c-2.834 2.399-6.501 3.845-10.505 3.845-8.985 0-16.27-7.284-16.27-16.27 0-8.985 7.285-16.27 16.27-16.27 8.986 0 16.27 7.285 16.27 16.27 0 4.006-1.447 7.673-3.847 10.508l7.651 7.651c.529.53.529 1.388 0 1.917-.53.53-1.388.53-1.918 0z" fill="#000" fill-rule="evenodd"/></svg>