<svg fill="none" height="340" viewBox="0 0 340 340" width="340" xmlns="http://www.w3.org/2000/svg"><path d="m0 0h340v340h-340z" fill="#f3f3f3"/><rect fill="#000" height="56.0087" rx="10.0031" width="229.168" x="55" y="65"/><path d="m76.5341 86.1852c1.3191 0 2.3846.3269 3.1963.9809.8231.6539 1.2572 1.5502 1.3023 2.689l-2.0464.1183c-.0338-.6313-.2706-1.1274-.7103-1.4882-.4284-.3721-.9978-.5581-1.7081-.5581-.7441 0-1.3247.1748-1.7419.5243-.4059.3495-.6088.8061-.6088 1.3698 0 .5863.2029 1.0035.6088 1.2515.4172.2368 1.15.4792 2.1985.7272 1.4883.3608 2.5819.8005 3.2809 1.3192.6991.5073 1.0486 1.2796 1.0486 2.3169 0 1.2402-.4284 2.176-1.2853 2.8074-.8456.6201-1.9392.9301-3.2809.9301-1.4206 0-2.5875-.3382-3.5008-1.0147-.902-.6765-1.3755-1.6179-1.4206-2.8243l2.0464-.1184c.0451.6652.3326 1.2008.8625 1.6067.5411.4058 1.212.6088 2.0125.6088.7666 0 1.3755-.1522 1.8265-.4566.4622-.3044.6933-.7723.6933-1.4037 0-.5863-.2311-1.0091-.6933-1.2684-.451-.2706-1.229-.5356-2.3339-.7949-.6652-.1691-1.2064-.3269-1.6235-.4735-.4172-.1466-.84-.3552-1.2684-.6257-.4172-.2706-.7272-.6089-.9302-1.0148-.2029-.4171-.3044-.9188-.3044-1.5051 0-1.0598.3777-1.9392 1.1331-2.6383.7554-.7103 1.8378-1.0654 3.2471-1.0654zm14.3274 12.8192h-1.7927v-1.1331c-.1803.3608-.4791.6708-.8963.9302-.4171.248-.9358.372-1.5559.372-.9696 0-1.7419-.3157-2.3169-.9471-.575-.6426-.8625-1.4938-.8625-2.5536v-5.3442h1.8941v5.0566c0 .6314.1522 1.1275.4566 1.4883.3045.3495.7385.5243 1.3023.5243.575 0 1.0316-.203 1.3698-.6089.3383-.4171.5074-.9188.5074-1.5051v-4.9552h1.8941zm4.6288-13.1405v5.5132c.2481-.3608.6145-.6483 1.0993-.8625.4848-.2255 1.0373-.3382 1.6574-.3382 1.2289 0 2.232.4115 3.01 1.2346.778.8117 1.167 1.8997 1.167 3.2639 0 1.3643-.389 2.4579-1.167 3.281-.778.8117-1.7811 1.2176-3.01 1.2176-.6539 0-1.2346-.124-1.7419-.372-.4961-.2594-.8682-.592-1.1162-.9979v1.2008h-1.7927v-13.1405zm2.4523 5.936c-.7329 0-1.3248.2312-1.7758.6934-.451.4623-.6765 1.1106-.6765 1.9449v.4566c0 .8343.2255 1.4826.6765 1.9449.451.4622 1.0429.6934 1.7758.6934.7554 0 1.3698-.2481 1.8434-.7442.474-.5073.71-1.212.71-2.114 0-.9019-.236-1.6066-.71-2.1139-.4736-.5074-1.088-.7611-1.8434-.7611zm16.5624-1.6235c.97 0 1.753.3269 2.351.9809.597.6539.896 1.5164.896 2.5875v5.2596h-1.911v-4.9721c0-.6539-.158-1.1669-.473-1.539-.316-.372-.761-.5581-1.336-.5581-.53 0-.964.1691-1.303.5074-.327.3269-.518.7554-.575 1.2853v.0507 5.2258h-1.911v-4.9721c0-.6427-.163-1.15-.49-1.5221-.316-.3833-.733-.575-1.252-.575-.586 0-1.065.203-1.437.6088-.361.3947-.541.8964-.541 1.5052v4.9552h-1.894v-8.6758h1.792v1.15c.496-.8681 1.331-1.3022 2.503-1.3022 1.263 0 2.182.5243 2.757 1.5728.597-1.0485 1.539-1.5728 2.824-1.5728zm5.997-3.6868c.237-.2368.519-.3552.846-.3552s.609.1184.846.3552c.236.2255.355.5017.355.8287 0 .3269-.119.6088-.355.8456-.237.2255-.519.3382-.846.3382s-.609-.1127-.846-.3382c-.225-.2368-.338-.5187-.338-.8456 0-.327.113-.6032.338-.8287zm1.793 12.5148h-1.894v-8.6758h1.894zm6.501-1.5728c.203 0 .474-.0282.812-.0846v1.6912c-.428.0677-.851.1015-1.268.1015-.891 0-1.596-.2311-2.114-.6934-.519-.4623-.773-1.1669-.761-2.114l.016-4.3633h-1.606v-1.6404h1.606l.017-2.9427h1.911l-.016 2.9427h2.198v1.6404h-2.215l-.017 3.9743c0 .9922.479 1.4883 1.437 1.4883zm9.73-7.2552c1.116 0 1.973.2988 2.571.8963.597.5863.896 1.4319.896 2.5368v5.3949h-1.911v-.778c-.665.6314-1.449.9471-2.351.9471-.879 0-1.584-.2198-2.114-.6596-.518-.4509-.778-1.0767-.778-1.8772 0-1.6235 1.06-2.4973 3.18-2.6213l2.063-.1184v-.2537c0-1.2064-.513-1.8095-1.539-1.8095-.507 0-.896.1409-1.167.4227-.259.2819-.389.6314-.389 1.0486l-1.911-.0677c0-.8117.316-1.522.947-2.1309.632-.6201 1.466-.9301 2.503-.9301zm1.573 5.1919-1.81.1184c-1.026.0564-1.539.4285-1.539 1.1162 0 .6539.434.9809 1.303.9809.631 0 1.127-.1578 1.488-.4735.372-.327.558-.8062.558-1.4375zm9.197-5.1919c1.229 0 2.233.4115 3.011 1.2346.778.8117 1.167 1.8997 1.167 3.2639 0 1.3643-.389 2.4579-1.167 3.281-.778.8117-1.782 1.2176-3.011 1.2176-.62 0-1.172-.1071-1.657-.3213-.485-.2255-.851-.5186-1.099-.8794v5.3442h-1.894v-12.9884h1.792v1.2176c.248-.4058.62-.7328 1.117-.9808.507-.2594 1.088-.389 1.741-.389zm-.304 1.6404c-.733 0-1.325.2312-1.776.6934-.451.4623-.676 1.1106-.676 1.9449v.4566c0 .8343.225 1.4826.676 1.9449.451.4622 1.043.6934 1.776.6934.755 0 1.37-.2537 1.843-.7611.474-.5073.711-1.212.711-2.114 0-.9019-.237-1.6009-.711-2.097-.473-.5074-1.088-.7611-1.843-.7611zm11.337-1.6404c1.229 0 2.232.4115 3.01 1.2346.778.8117 1.167 1.8997 1.167 3.2639 0 1.3643-.389 2.4579-1.167 3.281-.778.8117-1.781 1.2176-3.01 1.2176-.62 0-1.173-.1071-1.658-.3213-.484-.2255-.851-.5186-1.099-.8794v5.3442h-1.894v-12.9884h1.793v1.2176c.248-.4058.62-.7328 1.116-.9808.507-.2594 1.088-.389 1.742-.389zm-.305 1.6404c-.732 0-1.324.2312-1.775.6934-.451.4623-.677 1.1106-.677 1.9449v.4566c0 .8343.226 1.4826.677 1.9449.451.4622 1.043.6934 1.775.6934.756 0 1.37-.2537 1.844-.7611.473-.5073.71-1.212.71-2.114 0-.9019-.237-1.6009-.71-2.097-.474-.5074-1.088-.7611-1.844-.7611zm8.581 7.1876h-1.895v-13.1405h1.895zm2.848-12.5148c.237-.2368.518-.3552.845-.3552s.609.1184.846.3552c.237.2255.355.5017.355.8287 0 .3269-.118.6088-.355.8456-.237.2255-.519.3382-.846.3382s-.608-.1127-.845-.3382c-.226-.2368-.338-.5187-.338-.8456 0-.327.112-.6032.338-.8287zm1.792 12.5148h-1.894v-8.6758h1.894zm6.552-8.828c1.06 0 1.951.2931 2.672.8794.733.5863 1.173 1.3868 1.32 2.4015l-1.861.1691c-.067-.5637-.299-1.0091-.693-1.336-.383-.327-.863-.4905-1.438-.4905-.721 0-1.308.2537-1.758.7611-.44.5073-.66 1.212-.66 2.1139 0 .8907.225 1.5898.676 2.0971.451.5074 1.032.7611 1.742.7611.587 0 1.066-.1522 1.438-.4567.383-.3044.62-.7272.71-1.2684l1.86.1692c-.169.9809-.614 1.7588-1.336 2.3338-.721.575-1.612.8625-2.672.8625-1.274 0-2.317-.4002-3.128-1.2007-.812-.8118-1.218-1.9111-1.218-3.2979 0-1.398.4-2.4973 1.201-3.2978.811-.8005 1.86-1.2007 3.145-1.2007zm9.217 0c1.116 0 1.973.2988 2.571.8963.597.5863.896 1.4319.896 2.5368v5.3949h-1.911v-.778c-.665.6314-1.449.9471-2.351.9471-.879 0-1.584-.2198-2.114-.6596-.518-.4509-.778-1.0767-.778-1.8772 0-1.6235 1.06-2.4973 3.18-2.6213l2.063-.1184v-.2537c0-1.2064-.513-1.8095-1.539-1.8095-.507 0-.896.1409-1.167.4227-.259.2819-.389.6314-.389 1.0486l-1.911-.0677c0-.8117.316-1.522.947-2.1309.631-.6201 1.466-.9301 2.503-.9301zm1.573 5.1919-1.81.1184c-1.026.0564-1.539.4285-1.539 1.1162 0 .6539.434.9809 1.303.9809.631 0 1.127-.1578 1.488-.4735.372-.327.558-.8062.558-1.4375zm8.301 2.0633c.203 0 .474-.0282.812-.0846v1.6912c-.429.0677-.851.1015-1.269.1015-.89 0-1.595-.2311-2.114-.6934-.518-.4623-.772-1.1669-.761-2.114l.017-4.3633h-1.606v-1.6404h1.606l.017-2.9427h1.911l-.017 2.9427h2.199v1.6404h-2.216l-.016 3.9743c0 .9922.479 1.4883 1.437 1.4883zm2.739-10.942c.236-.2368.518-.3552.845-.3552s.609.1184.846.3552c.237.2255.355.5017.355.8287 0 .3269-.118.6088-.355.8456-.237.2255-.519.3382-.846.3382s-.609-.1127-.845-.3382c-.226-.2368-.339-.5187-.339-.8456 0-.327.113-.6032.339-.8287zm1.792 12.5148h-1.894v-8.6758h1.894zm6.738-8.828c1.308 0 2.385.4115 3.23 1.2346.857.823 1.286 1.911 1.286 3.2639 0 1.353-.429 2.441-1.286 3.264-.845.8231-1.922 1.2346-3.23 1.2346-1.319 0-2.407-.4115-3.264-1.2346-.845-.823-1.268-1.911-1.268-3.264 0-1.3529.423-2.4409 1.268-3.2639.857-.8231 1.945-1.2346 3.264-1.2346zm1.877 2.4015c-.484-.5187-1.11-.778-1.877-.778-.766 0-1.392.2593-1.877.778-.485.5073-.727 1.2064-.727 2.097 0 .8795.242 1.5785.727 2.0971.485.5074 1.111.7611 1.877.7611.767 0 1.393-.2537 1.877-.7611.485-.5186.728-1.2176.728-2.0971 0-.8906-.243-1.5897-.728-2.097zm9.18-2.4015c1.003 0 1.815.3269 2.435.9809.632.6426.947 1.5164.947 2.6213v5.2258h-1.911v-4.9721c0-.6427-.174-1.15-.524-1.5221-.338-.3833-.795-.575-1.37-.575-.597 0-1.082.203-1.454.6088-.372.3947-.558.8964-.558 1.5052v4.9552h-1.894v-8.6758h1.792v1.15c.496-.8681 1.342-1.3022 2.537-1.3022z" fill="#fff"/><path d="m262.16 87.0024 6.002 6.0019-6.002 6.0019" stroke="#fff" stroke-width="2.00062"/><rect fill="#00f0b4" height="55.1169" rx="10.0031" width="195.698" x="55" y="142.82"/><path d="m86.3888 176.378h-1.9956v-8.134l-4.1773 8.033h-1.3191l-4.1942-8.033v8.134h-2.0125v-12.65h1.7758l5.0905 9.606 5.0735-9.606h1.7589zm5.9282-8.828c1.1162 0 1.9731.299 2.5707.896.5975.587.8963 1.432.8963 2.537v5.395h-1.9111v-.778c-.6652.632-1.4487.947-2.3507.947-.8794 0-1.5841-.22-2.114-.659-.5186-.451-.7779-1.077-.7779-1.877 0-1.624 1.0598-2.498 3.1794-2.622l2.0632-.118v-.254c0-1.206-.513-1.809-1.5389-1.809-.5074 0-.8964.14-1.167.422-.2593.282-.3889.632-.3889 1.049l-1.9111-.068c0-.812.3157-1.522.9471-2.131.6314-.62 1.4657-.93 2.5029-.93zm1.5729 5.192-1.8096.118c-1.026.057-1.539.429-1.539 1.117 0 .654.4341.981 1.3022.981.6314 0 1.1275-.158 1.4883-.474.372-.327.5581-.806.5581-1.437zm6.4411-1.556 3.365-3.484h2.317l-3.484 3.738 3.839 4.938h-2.401l-2.774-3.518-.862.88v2.638h-1.8944v-13.14h1.8944zm14.904 1.573h-6.376c.045.654.277 1.178.694 1.573.417.383.958.575 1.623.575 1.128 0 1.816-.412 2.064-1.235l1.911.102c-.17.789-.62 1.449-1.353 1.978-.733.53-1.59.795-2.571.795-1.297 0-2.351-.4-3.162-1.2-.812-.812-1.218-1.911-1.218-3.298s.4-2.481 1.201-3.281c.8-.812 1.843-1.218 3.128-1.218 1.241 0 2.227.384 2.96 1.15.733.767 1.099 1.81 1.099 3.129zm-4.076-3.585c-.642 0-1.172.186-1.589.558-.417.361-.649.874-.694 1.539h4.448c-.022-.643-.22-1.15-.592-1.522-.361-.384-.885-.575-1.573-.575zm14.868-1.624c1.229 0 2.233.412 3.011 1.235.778.812 1.167 1.9 1.167 3.264s-.389 2.458-1.167 3.281c-.778.811-1.782 1.217-3.011 1.217-.62 0-1.172-.107-1.657-.321-.485-.226-.851-.519-1.099-.879v5.344h-1.894v-12.989h1.792v1.218c.248-.406.62-.733 1.117-.981.507-.259 1.088-.389 1.741-.389zm-.304 1.641c-.733 0-1.325.231-1.776.693s-.676 1.111-.676 1.945v.456c0 .835.225 1.483.676 1.945.451.463 1.043.694 1.776.694.755 0 1.37-.254 1.843-.761.474-.508.711-1.212.711-2.114s-.237-1.601-.711-2.097c-.473-.508-1.088-.761-1.843-.761zm9.832-1.641c1.116 0 1.973.299 2.57.896.598.587.897 1.432.897 2.537v5.395h-1.911v-.778c-.666.632-1.449.947-2.351.947-.88 0-1.584-.22-2.114-.659-.519-.451-.778-1.077-.778-1.877 0-1.624 1.06-2.498 3.179-2.622l2.064-.118v-.254c0-1.206-.513-1.809-1.539-1.809-.508 0-.897.14-1.167.422-.26.282-.389.632-.389 1.049l-1.911-.068c0-.812.315-1.522.947-2.131.631-.62 1.465-.93 2.503-.93zm1.572 5.192-1.809.118c-1.026.057-1.539.429-1.539 1.117 0 .654.434.981 1.302.981.632 0 1.128-.158 1.488-.474.372-.327.558-.806.558-1.437zm6.664 7.949h-2.081l2.131-4.922-3.433-8.067h2.114l2.334 5.936 2.334-5.936h2.114zm16.942-13.141c.97 0 1.754.327 2.351.981.598.654.897 1.516.897 2.588v5.259h-1.911v-4.972c0-.654-.158-1.167-.474-1.539s-.761-.558-1.336-.558c-.53 0-.964.169-1.302.507-.327.327-.519.756-.575 1.286v.05 5.226h-1.911v-4.972c0-.643-.164-1.15-.491-1.522-.315-.383-.733-.575-1.251-.575-.587 0-1.066.203-1.438.609-.361.394-.541.896-.541 1.505v4.955h-1.894v-8.676h1.793v1.15c.496-.868 1.33-1.302 2.503-1.302 1.262 0 2.181.524 2.756 1.573.598-1.049 1.539-1.573 2.824-1.573zm13.743 5.209h-6.375c.045.654.276 1.178.693 1.573.417.383.958.575 1.624.575 1.127 0 1.815-.412 2.063-1.235l1.911.102c-.169.789-.62 1.449-1.353 1.978-.733.53-1.59.795-2.571.795-1.296 0-2.351-.4-3.162-1.2-.812-.812-1.218-1.911-1.218-3.298s.4-2.481 1.201-3.281c.8-.812 1.843-1.218 3.129-1.218 1.24 0 2.226.384 2.959 1.15.733.767 1.099 1.81 1.099 3.129zm-4.075-3.585c-.643 0-1.173.186-1.59.558-.417.361-.648.874-.694 1.539h4.448c-.022-.643-.22-1.15-.592-1.522-.36-.384-.885-.575-1.572-.575zm10.599-1.624c1.004 0 1.815.327 2.435.981.632.643.947 1.516.947 2.621v5.226h-1.911v-4.972c0-.643-.174-1.15-.524-1.522-.338-.383-.795-.575-1.37-.575-.597 0-1.082.203-1.454.609-.372.394-.558.896-.558 1.505v4.955h-1.894v-8.676h1.792v1.15c.496-.868 1.342-1.302 2.537-1.302zm9.797 7.255c.203 0 .473-.028.812-.084v1.691c-.429.068-.852.101-1.269.101-.89 0-1.595-.231-2.114-.693-.518-.462-.772-1.167-.761-2.114l.017-4.363h-1.606v-1.641h1.606l.017-2.942h1.911l-.017 2.942h2.199v1.641h-2.216l-.017 3.974c0 .992.48 1.488 1.438 1.488z" fill="#000"/><path d="m228.426 164.376 6.002 6.002-6.002 6.002" stroke="#000" stroke-width="2.00062"/><rect fill="#fff" height="55.1169" rx="10.0031" width="113.698" x="55" y="219.748"/><path d="m82.6681 253.306h-2.0125v-5.632h-5.953v5.632h-2.0125v-12.65h2.0125v5.226h5.953v-5.226h2.0125zm10.6179-3.619h-6.3757c.0451.654.2762 1.178.6933 1.573.4172.383.9584.575 1.6236.575 1.1274 0 1.8152-.412 2.0632-1.235l1.9111.101c-.1691.79-.6201 1.449-1.353 1.979-.7328.53-1.5897.795-2.5706.795-1.2966 0-2.3507-.4-3.1625-1.201-.8118-.811-1.2177-1.911-1.2177-3.298 0-1.386.4003-2.48 1.2008-3.28.8005-.812 1.8434-1.218 3.1287-1.218 1.2402 0 2.2267.383 2.9596 1.15.7328.767 1.0992 1.809 1.0992 3.129zm-4.0757-3.586c-.6427 0-1.1726.186-1.5897.559-.4172.36-.6483.873-.6934 1.539h4.4478c-.0225-.643-.2199-1.15-.5919-1.523-.3608-.383-.8851-.575-1.5728-.575zm8.1642 7.205h-1.8941v-13.141h1.8941zm7.3975-8.828c1.229 0 2.232.411 3.01 1.234.778.812 1.167 1.9 1.167 3.264 0 1.365-.389 2.458-1.167 3.281-.778.812-1.781 1.218-3.01 1.218-.62 0-1.173-.107-1.657-.321-.485-.226-.852-.519-1.1-.88v5.344h-1.894v-12.988h1.793v1.218c.248-.406.62-.733 1.116-.981.507-.259 1.088-.389 1.742-.389zm-.304 1.64c-.733 0-1.325.231-1.776.694-.451.462-.677 1.11-.677 1.945v.456c0 .835.226 1.483.677 1.945s1.043.693 1.776.693c.755 0 1.369-.253 1.843-.761.474-.507.71-1.212.71-2.114s-.236-1.601-.71-2.097c-.474-.507-1.088-.761-1.843-.761z" fill="#000"/><path d="m146.426 241.304 6.002 6.002-6.002 6.002" stroke="#000" stroke-width="2.00062"/></svg>