<svg fill="none" height="631" viewBox="0 0 1408 631" width="1408" xmlns="http://www.w3.org/2000/svg" xmlns:xlink="http://www.w3.org/1999/xlink"><clipPath id="a"><path d="m0 0h1408v631h-1408z"/></clipPath><clipPath id="b"><path d="m505.438 0h902.564v631.795h-902.564z"/></clipPath><g clip-path="url(#a)"><path d="m0 0h504.226v631h-504.226z" fill="#000"/><path d="m24.2101 589.052c1.6246 0 2.946.412 3.9641 1.213 1.0181.802 1.5596 1.885 1.6246 3.293l-2.0145.13c-.1084-1.82-1.473-2.903-3.5309-2.903-2.2528 0-3.5091 1.148-3.5091 2.794 0 .889.3032 1.495.8881 1.863.6065.369 1.6246.694 3.0543 1.018 1.9278.455 3.0326.824 4.0723 1.517 1.0614.671 1.5163 1.646 1.5163 3.032 0 1.538-.5415 2.708-1.6246 3.51-1.0614.779-2.4477 1.169-4.1373 1.169-1.7546 0-3.1843-.411-4.3323-1.256-1.1481-.845-1.7546-1.993-1.8196-3.466l1.9928-.108c.065.931.4983 1.689 1.2781 2.253.7798.563 1.7329.844 2.881.844 2.2744 0 3.7474-.909 3.7474-2.794 0-.758-.3033-1.343-.7148-1.69-.195-.195-.4982-.368-.9315-.541-.4115-.173-.8014-.303-1.148-.39-.325-.108-.8232-.238-1.4947-.39-.8664-.195-1.5596-.39-2.0795-.563-.5199-.195-1.0614-.455-1.6029-.78-1.0615-.671-1.5597-1.69-1.5597-3.163 0-1.321.4766-2.404 1.408-3.27.9531-.889 2.3178-1.322 4.0724-1.322zm13.1897 5.177c2.7077 0 4.224 1.538 4.224 4.289v6.954h-1.8846v-1.3c-.8448 1.018-1.9495 1.516-3.2925 1.516-2.1878 0-3.6175-1.169-3.6175-3.141 0-2.057 1.343-3.141 4.0507-3.292l2.8593-.173v-.52c0-1.798-.7798-2.686-2.3178-2.686-1.5596 0-2.4044 1.018-2.4044 2.296l-1.8845-.087c0-1.018.3899-1.906 1.1697-2.686s1.8195-1.17 3.0976-1.17zm2.3611 6.802v-.455l-2.6427.173c-1.603.109-2.4045.694-2.4045 1.755s.6716 1.581 2.0146 1.581c1.8195 0 3.0326-.974 3.0326-3.054zm7.733-10.592c0 .671-.5632 1.213-1.2347 1.213-.6932 0-1.2347-.542-1.2347-1.213 0-.694.5632-1.235 1.2347-1.235s1.2347.541 1.2347 1.235zm-.3249 3.985v11.048h-1.8629v-11.048zm5.648-5.783v16.831h-1.8629v-16.831zm13.5546 11.004v1.018h-8.5347c.1083 2.101 1.4947 3.401 3.4659 3.401 1.6246 0 2.7293-.737 3.0976-1.972l1.8629.109c-.2383 1.018-.8015 1.841-1.6896 2.513-.8882.649-1.9712.974-3.2276.974-1.6246 0-2.946-.52-3.9641-1.538-1.0181-1.039-1.5163-2.447-1.5163-4.202s.4982-3.163 1.5163-4.181 2.3178-1.538 3.9208-1.538c1.5813 0 2.816.499 3.7041 1.473.9098.975 1.3647 2.296 1.3647 3.943zm-5.0905-3.791c-1.9712 0-3.3359 1.191-3.4442 3.293h6.6718c-.065-1.993-1.1697-3.293-3.2276-3.293zm12.8198-1.625c1.3213 0 2.426.369 3.3358 1.127.9315.736 1.473 1.733 1.6246 3.011l-1.8195.151c-.195-1.646-1.473-2.686-3.1409-2.686-2.1012 0-3.5309 1.538-3.5309 4.116s1.4513 4.116 3.5309 4.116c1.7329 0 2.9026-.953 3.1625-2.513l1.8196.173c-.4116 2.448-2.3178 3.964-4.9821 3.964-1.5813 0-2.9027-.52-3.9208-1.538s-1.5163-2.426-1.5163-4.202.4982-3.163 1.5163-4.181 2.3178-1.538 3.9208-1.538zm25.5044-4.96v1.754h-6.0219v14.449h-1.9929v-14.449h-6.0219v-1.754zm9.2317 5.155-6.975 16.571h-2.058l2.621-6.13-4.3973-10.441h2.0793l3.336 8.34 3.314-8.34zm7.912-.195c1.538 0 2.816.52 3.813 1.56 1.018 1.018 1.516 2.404 1.516 4.159s-.498 3.141-1.516 4.181c-.997 1.039-2.275 1.559-3.813 1.559-1.798 0-3.162-.736-3.834-1.863v7.17h-1.863v-16.571h1.776v1.82c.672-1.213 2.08-2.015 3.921-2.015zm-.281 1.625c-2.102 0-3.531 1.365-3.531 3.791v.65c0 2.404 1.429 3.769 3.531 3.769 2.166 0 3.704-1.517 3.704-4.094 0-2.6-1.538-4.116-3.704-4.116zm18.421 3.791v1.018h-8.535c.109 2.101 1.495 3.401 3.466 3.401 1.625 0 2.729-.737 3.098-1.972l1.863.109c-.239 1.018-.802 1.841-1.69 2.513-.888.649-1.971.974-3.228.974-1.624 0-2.946-.52-3.964-1.538-1.018-1.039-1.516-2.447-1.516-4.202s.498-3.163 1.516-4.181 2.318-1.538 3.921-1.538c1.581 0 2.816.499 3.704 1.473.91.975 1.365 2.296 1.365 3.943zm-5.091-3.791c-1.971 0-3.335 1.191-3.444 3.293h6.672c-.065-1.993-1.17-3.293-3.228-3.293zm12.56-7.3c.239 0 .498.022.823.043v1.625c-.238-.022-.433-.043-.628-.043-1.364 0-2.253.888-2.253 2.361v1.884h2.838v1.625h-2.838v9.423h-1.863v-9.423h-2.144v-1.625h2.144v-1.841c0-2.513 1.517-4.029 3.921-4.029zm6.819 5.675c2.707 0 4.224 1.538 4.224 4.289v6.954h-1.885v-1.3c-.845 1.018-1.949 1.516-3.292 1.516-2.188 0-3.618-1.169-3.618-3.141 0-2.057 1.343-3.141 4.051-3.292l2.859-.173v-.52c0-1.798-.78-2.686-2.318-2.686-1.559 0-2.404 1.018-2.404 2.296l-1.885-.087c0-1.018.39-1.906 1.17-2.686s1.82-1.17 3.098-1.17zm2.361 6.802v-.455l-2.643.173c-1.603.109-2.404.694-2.404 1.755s.671 1.581 2.014 1.581c1.82 0 3.033-.974 3.033-3.054zm10.246-6.802c1.321 0 2.426.369 3.335 1.127.932.736 1.473 1.733 1.625 3.011l-1.82.151c-.194-1.646-1.473-2.686-3.14-2.686-2.102 0-3.531 1.538-3.531 4.116s1.451 4.116 3.531 4.116c1.732 0 2.902-.953 3.162-2.513l1.82.173c-.412 2.448-2.318 3.964-4.982 3.964-1.582 0-2.903-.52-3.921-1.538s-1.516-2.426-1.516-4.202.498-3.163 1.516-4.181 2.318-1.538 3.921-1.538zm17.591 5.416v1.018h-8.534c.108 2.101 1.494 3.401 3.466 3.401 1.624 0 2.729-.737 3.097-1.972l1.863.109c-.238 1.018-.801 1.841-1.689 2.513-.889.649-1.972.974-3.228.974-1.625 0-2.946-.52-3.964-1.538-1.018-1.039-1.516-2.447-1.516-4.202s.498-3.163 1.516-4.181 2.318-1.538 3.921-1.538c1.581 0 2.816.499 3.704 1.473.91.975 1.364 2.296 1.364 3.943zm-5.09-3.791c-1.971 0-3.336 1.191-3.444 3.293h6.672c-.065-1.993-1.17-3.293-3.228-3.293z" fill="#fff"/><path d="m25.6744 28.1484 6.573 15.708h-2.1l-1.638-3.99h-7.287l-1.659 3.99h-2.1l6.573-15.708zm-.798 2.961-2.94 7.077h5.859zm13.2584 1.848c2.625 0 4.095 1.491 4.095 4.158v6.741h-1.827v-1.26c-.819.987-1.89 1.47-3.192 1.47-2.121 0-3.507-1.134-3.507-3.045 0-1.995 1.302-3.045 3.927-3.192l2.772-.168v-.504c0-1.743-.756-2.604-2.247-2.604-1.512 0-2.331.987-2.331 2.226l-1.827-.084c0-.987.378-1.848 1.134-2.604s1.764-1.134 3.003-1.134zm2.289 6.594v-.441l-2.562.168c-1.554.105-2.331.672-2.331 1.701s.651 1.533 1.953 1.533c1.764 0 2.94-.945 2.94-2.961zm10.4428 4.305v-15.708h5.88c2.793 0 4.683 1.491 4.683 4.179 0 1.638-.588 2.751-1.785 3.339 1.428.483 2.457 1.827 2.457 3.843 0 2.835-1.953 4.347-4.809 4.347zm5.649-14.007h-3.738v5.124h4.263c1.617 0 2.436-.84 2.436-2.52s-1.176-2.604-2.961-2.604zm.714 6.783h-4.452v5.523h4.284c1.827 0 3.087-.882 3.087-2.751s-1.26-2.772-2.919-2.772zm7.9704-9.093h1.806v7.224c.651-1.092 1.974-1.806 3.717-1.806 1.491 0 2.73.504 3.696 1.512.987 1.008 1.47 2.352 1.47 4.053s-.483 3.045-1.47 4.053c-.966.987-2.205 1.491-3.696 1.491-1.785 0-3.15-.777-3.801-1.953v1.743h-1.722zm5.25 6.993c-2.037 0-3.423 1.302-3.423 3.654v.63c0 2.352 1.386 3.675 3.423 3.675 2.1 0 3.591-1.47 3.591-3.99 0-2.499-1.491-3.969-3.591-3.969zm20.4476-6.594c1.869 0 3.486.525 4.809 1.575s2.121 2.457 2.352 4.242l-1.995.189c-.189-1.344-.777-2.394-1.722-3.15s-2.121-1.134-3.507-1.134c-1.701 0-3.066.567-4.116 1.701s-1.575 2.688-1.575 4.641c0 1.995.525 3.57 1.596 4.683s2.457 1.659 4.137 1.659c2.751 0 4.725-1.47 5.208-4.053l1.995.168c-.294 1.722-1.092 3.087-2.394 4.095s-2.877 1.512-4.746 1.512c-2.268 0-4.137-.714-5.586-2.163s-2.163-3.402-2.163-5.901.714-4.452 2.142-5.901c1.449-1.449 3.297-2.163 5.565-2.163zm14.7684 5.019c1.281 0 2.352.357 3.234 1.092.903.714 1.428 1.68 1.575 2.919l-1.764.147c-.189-1.596-1.428-2.604-3.045-2.604-2.037 0-3.423 1.491-3.423 3.99s1.407 3.99 3.423 3.99c1.68 0 2.814-.924 3.066-2.436l1.764.168c-.399 2.373-2.247 3.843-4.83 3.843-1.533 0-2.814-.504-3.801-1.491s-1.47-2.352-1.47-4.074.483-3.066 1.47-4.053 2.247-1.491 3.801-1.491zm12.651 10.899v-15.708h6.132c2.226 0 4.032.693 5.439 2.1s2.121 3.318 2.121 5.754c0 2.415-.714 4.347-2.142 5.754s-3.255 2.1-5.46 2.1zm6.153-14.07h-4.242v12.432h4.2c1.701 0 3.066-.546 4.095-1.617 1.05-1.092 1.575-2.625 1.575-4.599s-.525-3.507-1.554-4.578c-1.029-1.092-2.373-1.638-4.074-1.638zm20.513-2.247v16.317h-1.701v-1.743c-.651 1.155-2.037 1.953-3.801 1.953-1.491 0-2.73-.504-3.717-1.491-.966-1.008-1.449-2.352-1.449-4.053s.483-3.045 1.449-4.053c.987-1.008 2.226-1.512 3.717-1.512 1.743 0 3.087.735 3.696 1.806v-7.224zm-5.25 6.993c-2.1 0-3.591 1.47-3.591 3.969 0 2.52 1.491 3.99 3.591 3.99 2.037 0 3.444-1.323 3.444-3.675v-.63c0-2.352-1.407-3.654-3.444-3.654zm23.724-6.384v1.701h-7.791v5.061h6.867v1.659h-6.867v5.586h7.791v1.701h-9.723v-15.708zm12.133 10.059v.987h-8.274c.105 2.037 1.449 3.297 3.36 3.297 1.575 0 2.646-.714 3.003-1.911l1.806.105c-.231.987-.777 1.785-1.638 2.436-.861.63-1.911.945-3.129.945-1.575 0-2.856-.504-3.843-1.491-.987-1.008-1.47-2.373-1.47-4.074s.483-3.066 1.47-4.053 2.247-1.491 3.801-1.491c1.533 0 2.73.483 3.591 1.428.882.945 1.323 2.226 1.323 3.822zm-4.935-3.675c-1.911 0-3.234 1.155-3.339 3.192h6.468c-.063-1.932-1.134-3.192-3.129-3.192zm22.661-6.384v1.701h-7.791v5.145h6.489v1.701h-6.489v7.161h-1.932v-15.708zm6.762-.693c.231 0 .483.021.798.042v1.575c-.231-.021-.42-.042-.609-.042-1.323 0-2.184.861-2.184 2.289v1.827h2.751v1.575h-2.751v9.135h-1.806v-9.135h-2.079v-1.575h2.079v-1.785c0-2.436 1.47-3.906 3.801-3.906zm14.953 8.421h7.224v.651c0 2.331-.651 4.158-1.974 5.523-1.302 1.344-3.066 2.016-5.271 2.016-2.247 0-4.074-.714-5.523-2.163s-2.163-3.402-2.163-5.901.714-4.452 2.142-5.901 3.276-2.163 5.523-2.163c1.827 0 3.402.504 4.704 1.491 1.323.987 2.121 2.331 2.436 4.074l-1.995.315c-.189-1.281-.756-2.31-1.701-3.045s-2.1-1.113-3.465-1.113c-1.722 0-3.108.546-4.137 1.659-1.029 1.092-1.554 2.646-1.554 4.683 0 2.016.525 3.57 1.554 4.683 1.05 1.113 2.436 1.659 4.137 1.659 2.961 0 4.914-1.596 5.229-4.767h-5.166zm14.644-2.919c1.764 0 3.15.798 3.801 1.953v-1.764h1.701v11.319c0 1.533-.462 2.73-1.407 3.612-.924.882-2.163 1.323-3.717 1.323-2.919 0-4.746-1.512-5.187-3.801l1.806-.063c.252 1.428 1.575 2.331 3.318 2.331 2.037 0 3.381-1.197 3.381-3.276v-2.331c-.609 1.071-1.953 1.806-3.696 1.806-1.491 0-2.73-.504-3.717-1.512-.966-1.008-1.449-2.352-1.449-4.053s.483-3.045 1.449-4.032c.987-1.008 2.226-1.512 3.717-1.512zm.252 1.575c-2.1 0-3.591 1.47-3.591 3.99 0 2.499 1.491 3.969 3.591 3.969 2.037 0 3.444-1.302 3.444-3.654v-.63c0-2.352-1.407-3.675-3.444-3.675zm25.91-6.384v15.708h-1.911v-7.287h-8.19v7.287h-1.932v-15.708h1.932v6.699h8.19v-6.699zm3.716-.609h1.806v7.077c.525-.924 1.722-1.659 3.255-1.659 1.218 0 2.205.399 2.982 1.197s1.176 1.869 1.176 3.192v6.51h-1.827v-6.279c0-1.764-1.092-2.94-2.709-2.94-.84 0-1.533.294-2.079.861-.525.567-.798 1.281-.798 2.1v6.258h-1.806zm19.652.609v15.708h-1.932v-15.708zm5.827 1.134c0 .651-.546 1.176-1.197 1.176-.672 0-1.197-.525-1.197-1.176 0-.672.546-1.197 1.197-1.197s1.197.525 1.197 1.197zm-.315 3.864v10.71h-1.806v-10.71zm15.309-4.998h1.932v10.731c0 3.276-1.848 5.187-4.893 5.187-2.961 0-4.851-1.869-5.019-4.893l1.932-.315c.105 2.205 1.239 3.486 3.087 3.486 1.911 0 2.961-1.176 2.961-3.423zm6.45-.063c.651 0 1.197.525 1.197 1.197 0 .651-.546 1.176-1.197 1.176-.672 0-1.197-.525-1.197-1.176 0-.672.525-1.197 1.197-1.197zm-.903 5.061h1.806v12.285c0 2.457-1.386 3.885-3.633 3.885-.294 0-.567-.021-.84-.063v-1.575c.189.042.399.063.63.063 1.26 0 2.037-.819 2.037-2.268zm21.63-4.998-6.006 6.678 6.867 9.03h-2.352l-5.796-7.518-1.89 2.121v5.397h-1.932v-15.708h1.932v7.455l6.699-7.455zm4.805-.609v10.311l4.704-4.704h2.247l-4.515 4.662 5.019 6.048h-2.31l-3.99-4.725-1.155 1.134v3.591h-1.806v-16.317zm16.472.609v14.007h7.875v1.701h-9.807v-15.708zm12.218-.609v16.317h-1.806v-16.317zm25.558.609v15.708h-1.911v-11.361l-5.838 11.256h-1.281l-5.859-11.256v11.361h-1.932v-15.708h1.68l6.741 12.81 6.741-12.81zm15.801 4.809c1.197 0 2.142.399 2.877 1.218.735.798 1.113 1.848 1.113 3.15v6.531h-1.806v-6.279c0-1.785-1.008-2.94-2.604-2.94-1.512 0-2.541 1.071-2.688 2.583v.126 6.51h-1.827v-6.279c0-1.764-1.029-2.94-2.541-2.94-.819 0-1.491.294-2.016.861s-.777 1.281-.777 2.1v6.258h-1.806v-10.71h1.722v1.617c.609-1.197 1.701-1.806 3.255-1.806 1.575 0 2.856.777 3.507 2.121.651-1.281 1.932-2.121 3.591-2.121zm24.588-4.809v15.708h-1.638l-8.4-12.138v12.138h-1.932v-15.708h1.617l8.442 12.159v-12.159zm8.778 4.809c1.218 0 2.205.399 2.982 1.197s1.176 1.869 1.176 3.192v6.51h-1.827v-6.279c0-1.764-1.092-2.94-2.709-2.94-.84 0-1.533.294-2.079.861-.525.567-.798 1.281-.798 2.1v6.258h-1.806v-10.71h1.722v1.596c.567-1.029 1.743-1.785 3.339-1.785zm14.336-2.814c1.491-1.47 3.381-2.205 5.67-2.205s4.158.735 5.649 2.205c1.491 1.449 2.247 3.402 2.247 5.859s-.756 4.41-2.247 5.88c-1.491 1.449-3.36 2.184-5.649 2.184s-4.179-.735-5.67-2.184c-1.491-1.47-2.247-3.423-2.247-5.88s.756-4.41 2.247-5.859zm5.67-.483c-1.743 0-3.171.567-4.284 1.701s-1.68 2.688-1.68 4.641.567 3.486 1.68 4.641c1.134 1.134 2.562 1.701 4.284 1.701s3.15-.567 4.263-1.701c1.113-1.155 1.68-2.688 1.68-4.641s-.567-3.507-1.68-4.641-2.541-1.701-4.263-1.701zm11.764 4.83c1.05-1.029 2.373-1.533 3.948-1.533s2.898.504 3.927 1.533c1.05 1.008 1.575 2.352 1.575 4.011s-.525 3.003-1.575 4.032c-1.029 1.029-2.352 1.533-3.927 1.533s-2.898-.504-3.948-1.533c-1.029-1.029-1.554-2.373-1.554-4.032s.525-3.003 1.554-4.011zm6.573 1.113c-.693-.714-1.554-1.071-2.625-1.071s-1.953.357-2.646 1.071-1.029 1.68-1.029 2.898.336 2.184 1.029 2.919c.693.714 1.575 1.071 2.646 1.071s1.932-.357 2.625-1.071c.693-.735 1.05-1.701 1.05-2.919s-.357-2.184-1.05-2.898zm-454.7276 42.253v-15.708h6.153c1.428 0 2.583.42 3.486 1.239s1.344 1.995 1.344 3.528c0 1.512-.441 2.688-1.344 3.507s-2.058 1.239-3.486 1.239h-4.221v6.195zm5.922-14.007h-4.011v6.111h4.011c1.785 0 3.087-1.092 3.087-3.045 0-1.995-1.302-3.066-3.087-3.066zm13.1757 3.108c1.491 0 2.73.504 3.696 1.512.987.987 1.47 2.331 1.47 4.032s-.483 3.045-1.47 4.053c-.966 1.008-2.205 1.512-3.696 1.512-1.743 0-3.066-.714-3.717-1.806v6.951h-1.806v-16.065h1.722v1.764c.651-1.176 2.016-1.953 3.801-1.953zm-.273 1.575c-2.037 0-3.423 1.323-3.423 3.675v.63c0 2.331 1.386 3.654 3.423 3.654 2.1 0 3.591-1.47 3.591-3.969 0-2.52-1.491-3.99-3.591-3.99zm29.4566 9.555-1.323 1.365-2.793-2.772c-1.323.924-2.898 1.386-4.683 1.386-2.289 0-4.179-.735-5.67-2.184-1.491-1.47-2.247-3.423-2.247-5.88s.756-4.41 2.247-5.859c1.491-1.47 3.381-2.205 5.67-2.205s4.158.735 5.649 2.205c1.491 1.449 2.247 3.402 2.247 5.859 0 2.142-.609 3.948-1.806 5.397zm-8.799-1.743c1.281 0 2.394-.315 3.36-.966l-3.129-3.108 1.344-1.365 3.171 3.15c.798-1.092 1.197-2.436 1.197-4.053 0-1.953-.567-3.507-1.68-4.641s-2.541-1.701-4.263-1.701c-1.743 0-3.171.567-4.284 1.701s-1.68 2.688-1.68 4.641.567 3.486 1.68 4.641c1.134 1.134 2.562 1.701 4.284 1.701zm15.4175-9.387c1.764 0 3.15.798 3.801 1.953v-1.764h1.701v16.065h-1.806v-6.951c-.609 1.071-1.953 1.806-3.696 1.806-1.491 0-2.73-.504-3.717-1.512-.966-1.008-1.449-2.352-1.449-4.053s.483-3.045 1.449-4.032c.987-1.008 2.226-1.512 3.717-1.512zm.252 1.575c-2.1 0-3.591 1.47-3.591 3.99 0 2.499 1.491 3.969 3.591 3.969 2.037 0 3.444-1.302 3.444-3.654v-.63c0-2.352-1.407-3.675-3.444-3.675zm25.7186 9.324h-2.163l-3.528-6.3h-4.095v6.3h-1.932v-15.708h6.069c1.407 0 2.562.399 3.465 1.218s1.365 1.974 1.365 3.486c0 2.247-1.092 3.738-2.877 4.389zm-9.807-14.007v6.006h3.927c1.764 0 3.087-1.05 3.087-3.003s-1.323-3.003-3.087-3.003zm17.3362 3.171v1.743c-1.869 0-3.108 1.26-3.108 2.94v6.153h-1.806v-10.71h1.764v1.617c.42-.987 1.491-1.743 3.15-1.743zm12.246-5.082c1.575 0 2.856.399 3.843 1.176s1.512 1.827 1.575 3.192l-1.953.126c-.105-1.764-1.428-2.814-3.423-2.814-2.184 0-3.402 1.113-3.402 2.709 0 .861.294 1.449.861 1.806.588.357 1.575.672 2.961.987 1.869.441 2.94.798 3.948 1.47 1.029.651 1.47 1.596 1.47 2.94 0 1.491-.525 2.625-1.575 3.402-1.029.756-2.373 1.134-4.011 1.134-1.701 0-3.087-.399-4.2-1.218s-1.701-1.932-1.764-3.36l1.932-.105c.063.903.483 1.638 1.239 2.184s1.68.819 2.793.819c2.205 0 3.633-.882 3.633-2.709 0-.735-.294-1.302-.693-1.638-.189-.189-.483-.357-.903-.525-.399-.168-.777-.294-1.113-.378-.315-.105-.798-.231-1.449-.378-.84-.189-1.512-.378-2.016-.546-.504-.189-1.029-.441-1.554-.756-1.029-.651-1.512-1.638-1.512-3.066 0-1.281.462-2.331 1.365-3.171.924-.861 2.247-1.281 3.948-1.281zm12.059 5.04c2.289-.021 3.675 1.281 3.927 3.213l-1.806.105c-.147-1.197-.861-1.785-2.184-1.764-1.323-.021-2.037.567-2.037 1.554 0 .462.189.819.546 1.008.252.105.336.168.651.252l.399.105c.189.021.714.147.945.21 2.541.609 3.717 1.323 3.717 3.087 0 2.1-1.554 3.318-4.053 3.318-2.415 0-3.969-1.176-4.242-3.255l1.806-.126c.168 1.197.987 1.806 2.478 1.806 1.344 0 2.205-.567 2.205-1.596 0-.525-.189-.882-.546-1.092-.357-.231-1.05-.462-2.1-.714l-1.197-.294c-.273-.084-.609-.21-.966-.357-1.008-.42-1.365-1.071-1.47-2.331 0-1.911 1.47-3.15 3.927-3.129zm24.325-4.83v1.701h-5.838v14.007h-1.932v-14.007h-5.838v-1.701zm6.292 14.217c.273 0 .63-.042 1.05-.105v1.617c-.483.084-.966.126-1.449.126-2.037 0-3.318-1.092-3.297-3.36l.021-5.922h-1.995v-1.575h1.995l.021-3.696h1.827l-.021 3.696h2.877v1.575h-2.877l-.042 5.565c0 1.386.63 2.079 1.89 2.079zm18.936-14.217h1.911v9.807c0 3.885-2.394 6.111-6.258 6.111s-6.258-2.226-6.258-6.111v-9.807h1.911v9.786c0 2.877 1.596 4.41 4.347 4.41 2.709 0 4.347-1.554 4.347-4.41zm14.252 4.998v10.71h-1.722v-1.596c-.441.987-1.554 1.806-3.213 1.806-1.197 0-2.142-.399-2.856-1.176-.693-.798-1.05-1.848-1.05-3.129v-6.615h1.806v6.363c0 1.764.924 2.856 2.52 2.856 1.659 0 2.709-1.302 2.709-2.961v-6.258zm22.052-4.998-6.594 15.708h-1.617l-6.594-15.708h2.1l5.313 12.726 5.292-12.726zm11.035 4.998-4.62 10.71h-1.449l-4.641-10.71h1.995l3.381 7.98 3.318-7.98zm28.277-4.998-5.481 15.708h-1.617l-4.221-12.18-4.2 12.18h-1.617l-5.502-15.708h2.079l4.263 12.327 4.2-12.327h1.575l4.221 12.327 4.242-12.327zm17.126 4.998-4.074 10.71h-1.449l-2.877-7.665-2.877 7.665h-1.449l-4.074-10.71h1.974l2.877 7.77 2.898-7.77h1.281l2.919 7.77 2.898-7.77zm18.976-4.998-5.082 7.728 5.313 7.98h-2.226l-4.494-6.699-4.515 6.699h-2.226l5.334-7.98-5.082-7.728h2.205l4.284 6.426 4.284-6.426zm11.033 4.998-3.549 5.229 3.759 5.481h-2.163l-2.898-4.242-2.94 4.242h-2.121l3.675-5.523-3.507-5.187h2.142l2.751 4.011 2.688-4.011zm19.718-4.998-5.943 9.177v6.531h-1.911v-6.531l-5.964-9.177h2.226l4.704 7.287 4.662-7.287zm10.072 4.998-6.762 16.065h-1.995l2.541-5.943-4.263-10.122h2.016l3.234 8.085 3.213-8.085zm17.4-4.998v1.449l-8.862 12.558h9.03v1.701h-11.487v-1.449l8.841-12.558h-8.547v-1.701zm9.412 4.998v1.218l-5.691 8.022h5.943v1.47h-8.064v-1.197l5.712-8.022h-5.586v-1.491zm-339.5316 29.002-.105 11.4446h-1.911l-.084-11.4446zm-1.05 13.4186c.693 0 1.26.567 1.26 1.26 0 .672-.567 1.239-1.26 1.239-.672 0-1.239-.567-1.239-1.239 0-.693.567-1.26 1.239-1.26zm11.4093-10.4156c2.163 0 3.969.714 5.418 2.1626 1.449 1.428 2.163 3.213 2.163 5.376 0 2.751-1.155 4.263-3.024 4.263-1.071 0-1.722-.441-1.953-1.302-.63.903-1.617 1.365-2.961 1.365-2.352 0-3.948-1.68-3.948-4.368s1.596-4.389 3.948-4.389c1.407 0 2.373.462 2.898 1.386v-1.134h1.344v6.069c0 .798.336 1.197.987 1.197.945 0 1.554-1.155 1.554-3.087 0-1.827-.609-3.36-1.848-4.599-1.218-1.239-2.751-1.848-4.578-1.848-1.869 0-3.402.609-4.62 1.848-1.197 1.218-1.806 2.751-1.806 4.599 0 1.869.609 3.423 1.827 4.62 1.239 1.197 2.73 1.806 4.515 1.806 1.47 0 2.772-.357 3.885-1.05l.315 1.05c-1.197.735-2.604 1.113-4.2 1.113-2.121 0-3.906-.714-5.355-2.142-1.428-1.407-2.142-3.213-2.142-5.397 0-2.163.714-3.969 2.142-5.397 1.428-1.4276 3.234-2.1416 5.439-2.1416zm2.478 7.7276v-.483c0-1.869-1.029-2.877-2.625-2.877-1.617 0-2.73 1.176-2.73 3.129s1.113 3.129 2.73 3.129c1.596 0 2.625-1.029 2.625-2.898zm17.6539-10.7306-1.029 4.3256h2.52l-.336 1.47h-2.541l-.987 4.158h2.646l-.336 1.449h-2.646l-1.029 4.305h-1.596l1.029-4.305h-3.108l-1.029 4.305h-1.596l1.029-4.305h-2.499l.336-1.449h2.52l.987-4.158h-2.625l.357-1.47h2.604l1.05-4.3256h1.575l-1.029 4.3256h3.108l1.05-4.3256zm-2.961 5.7956h-3.129l-.987 4.158h3.129zm17.3411 5.586c0 2.793-1.995 4.326-4.956 4.515v2.289h-1.533v-2.31c-1.449-.147-2.646-.609-3.591-1.386-.924-.798-1.407-1.848-1.47-3.15l1.932-.105c.063.903.483 1.638 1.239 2.184s1.68.819 2.793.819c2.205 0 3.633-.882 3.633-2.709 0-.735-.294-1.302-.693-1.638-.189-.189-.483-.357-.903-.525-.399-.168-.777-.294-1.113-.378-.315-.105-.798-.231-1.449-.378-.84-.189-1.512-.378-2.016-.546-.504-.189-1.029-.441-1.554-.756-1.029-.651-1.512-1.638-1.512-3.066 0-1.1966.399-2.2046 1.218-3.0236s1.974-1.302 3.486-1.407v-2.268h1.533v2.289c2.667.315 4.389 1.89 4.494 4.3256l-1.953.126c-.105-1.7636-1.428-2.8136-3.423-2.8136-2.184 0-3.402 1.113-3.402 2.7086 0 .861.294 1.449.861 1.806.588.357 1.575.672 2.961.987 1.869.441 2.94.798 3.948 1.47 1.029.651 1.47 1.596 1.47 2.94zm2.8192-10.5626c.651-.693 1.47-1.029 2.478-1.029s1.827.336 2.457 1.029c.651.672.966 1.575.966 2.709 0 1.1336-.315 2.0366-.966 2.7296-.63.693-1.449 1.029-2.457 1.029s-1.827-.336-2.478-1.029-.966-1.596-.966-2.7296c0-1.134.315-2.037.966-2.709zm13.482-.819-11.088 15.7076h-1.785l11.088-15.7076zm-11.025 1.092c-1.197 0-2.079.945-2.079 2.436 0 1.5116.882 2.4776 2.079 2.4776 1.239 0 2.079-.966 2.079-2.4776 0-1.512-.84-2.436-2.079-2.436zm9.156 7.3286c2.016 0 3.444 1.47 3.444 3.738s-1.428 3.759-3.444 3.759c-.987 0-1.806-.336-2.457-1.029s-.966-1.596-.966-2.73.315-2.037.966-2.709c.651-.693 1.47-1.029 2.457-1.029zm0 6.195c1.239 0 2.079-.924 2.079-2.457s-.84-2.457-2.079-2.457-2.079.945-2.079 2.457.882 2.457 2.079 2.457zm10.0978-14.9096 5.166 8.1476h-2.037l-3.129-5.2916-3.15 5.2916h-2.058zm20.4893 14.7626-1.176 1.428-2.625-2.352c-1.323 1.554-2.94 2.331-4.872 2.331-1.617 0-2.8769-.399-3.7799-1.218s-1.344-1.89-1.344-3.171c0-1.785.903-3.318 2.73-4.557-.903-1.029-1.344-2.079-1.344-3.1706 0-2.541 1.7009-3.969 4.2839-3.969 2.268 0 3.948 1.344 4.221 3.549l-1.848.126c-.189-1.281-1.05-2.016-2.373-2.016-1.449 0-2.352.798-2.352 2.289 0 1.2386.672 2.0156 2.163 3.2966l.252.21 4.011 3.591c.483-.903.903-2.058 1.26-3.423l1.701.462c-.462 1.659-1.008 3.024-1.659 4.137zm-8.631-.21c1.365 0 2.562-.609 3.57-1.848l-4.368-3.906-.546-.483c-1.2389.882-1.8689 1.974-1.8689 3.297 0 1.785 1.2179 2.94 3.2129 2.94zm12.606-14.4476-.042 2.604 2.478-.84.336.987-2.478.798 1.554 2.0576-.861.63-1.491-2.121-1.512 2.142-.84-.651 1.533-2.0576-2.478-.798.336-.987 2.457.84-.021-2.604zm6.363.609 1.575.567c-1.533 2.436-2.31 5.1026-2.31 8.0006 0 2.877.777 5.544 2.31 7.98l-1.575.588c-1.701-2.541-2.541-5.397-2.541-8.568 0-3.192.84-6.0476 2.541-8.5676zm2.391.567 1.575-.567c1.701 2.52 2.541 5.3756 2.541 8.5676 0 3.171-.84 6.027-2.541 8.568l-1.575-.588c1.533-2.436 2.31-5.103 2.31-7.98 0-2.898-.777-5.5646-2.31-8.0006z" fill="#fff"/><path d="m0 0h1.21v631h-1.21z" fill="#333" transform="translate(504.227)"/><g clip-path="url(#b)"><path d="m0 0h902.564v631.795h-902.564z" fill="#fff" transform="translate(505.438)"/><path d="m0 0h53.092v631.795h-53.092z" fill="#000" transform="translate(505.438)"/><path d="m530.019 65.8326v-1.3259l1.056.2582v1.3258l2.077.4928v-1.3728l1.056.2464v1.3728l2.276.5398v1.1616l-2.276-.5515v1.5253l2.276.5398v1.1616l-2.276-.5398v1.3024l-1.056-.2464v-1.3141l-2.077-.4928v1.3611l-1.056-.2582v-1.3493l-2.311-.5632v-1.1499l2.311.5515v-1.5136l-2.311-.5632v-1.1499zm1.056 2.9333 2.077.4928v-1.5253l-2.077-.4928zm-2.299-5.7891c-.79-.5866-1.185-1.3728-1.185-2.3584s.395-1.7678 1.185-2.3466c.782-.5867 1.889-.88 3.32-.88 1.424 0 2.531.2933 3.321.88.79.5866 1.185 1.3688 1.185 2.3466 0 .9856-.395 1.7718-1.185 2.3584-.79.5867-1.897.88-3.321.88-1.431 0-2.538-.2933-3.32-.88zm.058-2.3584c0 1.2125 1.088 1.8187 3.262 1.8187 2.175 0 3.262-.6062 3.262-1.8187 0-1.2046-1.087-1.8069-3.262-1.8069-2.174 0-3.262.6023-3.262 1.8069zm-.058-5.2385c-.79-.5866-1.185-1.3728-1.185-2.3584s.395-1.7678 1.185-2.3466c.782-.5867 1.889-.88 3.32-.88 1.424 0 2.531.2933 3.321.88.79.5866 1.185 1.3689 1.185 2.3466 0 .9856-.395 1.7718-1.185 2.3584-.79.5867-1.897.88-3.321.88-1.431 0-2.538-.2933-3.32-.88zm.058-2.3584c0 1.2125 1.088 1.8187 3.262 1.8187 2.175 0 3.262-.6062 3.262-1.8187 0-1.2046-1.087-1.8069-3.262-1.8069-2.174 0-3.262.6023-3.262 1.8069zm-.058-5.2384c-.79-.5867-1.185-1.3728-1.185-2.3584s.395-1.7679 1.185-2.3467c.782-.5867 1.889-.88 3.32-.88 1.424 0 2.531.2933 3.321.88s1.185 1.3689 1.185 2.3467c0 .9856-.395 1.7717-1.185 2.3584-.79.5866-1.897.88-3.321.88-1.431 0-2.538-.2934-3.32-.88zm.058-2.3584c0 1.2124 1.088 1.8186 3.262 1.8186 2.175 0 3.262-.6062 3.262-1.8186 0-1.2047-1.087-1.807-3.262-1.807-2.174 0-3.262.6023-3.262 1.807zm-.058-5.2385c-.79-.5867-1.185-1.3728-1.185-2.3584s.395-1.7678 1.185-2.3467c.782-.5866 1.889-.88 3.32-.88 1.424 0 2.531.2934 3.321.88.79.5867 1.185 1.3689 1.185 2.3467 0 .9856-.395 1.7717-1.185 2.3584s-1.897.88-3.321.88c-1.431 0-2.538-.2933-3.32-.88zm.058-2.3584c0 1.2124 1.088 1.8187 3.262 1.8187 2.175 0 3.262-.6063 3.262-1.8187 0-1.2046-1.087-1.8069-3.262-1.8069-2.174 0-3.262.6023-3.262 1.8069zm-.058-5.2385c-.79-.5867-1.185-1.3728-1.185-2.3584s.395-1.7678 1.185-2.3467c.782-.5866 1.889-.88 3.32-.88 1.424 0 2.531.2934 3.321.88.79.5867 1.185 1.3689 1.185 2.3467 0 .9856-.395 1.7717-1.185 2.3584s-1.897.88-3.321.88c-1.431 0-2.538-.2933-3.32-.88zm.058-2.3584c0 1.2125 1.088 1.8187 3.262 1.8187 2.175 0 3.262-.6062 3.262-1.8187 0-1.2046-1.087-1.8069-3.262-1.8069-2.174 0-3.262.6023-3.262 1.8069zm-.058-5.2385c-.79-.5866-1.185-1.3728-1.185-2.3584s.395-1.7678 1.185-2.3466c.782-.5867 1.889-.88 3.32-.88 1.424 0 2.531.2933 3.321.88.79.5866 1.185 1.3689 1.185 2.3466 0 .9856-.395 1.7718-1.185 2.3584-.79.5867-1.897.88-3.321.88-1.431 0-2.538-.2933-3.32-.88zm.058-2.3584c0 1.2125 1.088 1.8187 3.262 1.8187 2.175 0 3.262-.6062 3.262-1.8187 0-1.2046-1.087-1.8069-3.262-1.8069-2.174 0-3.262.6023-3.262 1.8069z" fill="#fff"/><path d="m526.591 608.745c0-1.064.297-1.971.891-2.722.595-.759 1.393-1.208 2.394-1.349l.129 1.455c-.688.117-1.22.414-1.596.891-.383.478-.575 1.068-.575 1.772 0 .876.294 1.58.88 2.112.587.532 1.381.798 2.382.798 1.025 0 1.827-.274 2.405-.821.571-.548.857-1.248.857-2.101 0-.696-.18-1.278-.54-1.748-.367-.477-.884-.778-1.549-.903l.13-1.467c.985.164 1.767.622 2.346 1.373.571.743.857 1.643.857 2.699 0 1.282-.403 2.334-1.209 3.156-.806.821-1.905 1.232-3.297 1.232s-2.491-.407-3.297-1.22c-.806-.814-1.208-1.866-1.208-3.157zm2.769-8.437c0-.908.285-1.655.856-2.242.571-.594 1.326-.891 2.265-.891.938 0 1.693.297 2.264.891.571.587.857 1.334.857 2.242 0 .915-.286 1.67-.857 2.264-.571.587-1.326.88-2.264.88-.939 0-1.694-.293-2.265-.88-.571-.594-.856-1.349-.856-2.264zm1.666-1.303c-.36.336-.54.771-.54 1.303 0 .531.18.966.54 1.302.352.336.837.504 1.455.504.61 0 1.095-.168 1.455-.504.352-.336.528-.771.528-1.302 0-.532-.176-.967-.528-1.303-.36-.336-.845-.504-1.455-.504-.618 0-1.103.168-1.455.504zm-1.666-5.547c0-.775.207-1.369.621-1.784.407-.414.994-.622 1.76-.622h3.743v1.326h-.539c.438.462.657 1.005.657 1.631 0 .61-.153 1.099-.458 1.467-.313.36-.747.54-1.302.54-1.127 0-1.733-.736-1.819-2.206l-.082-1.432h-.176c-.837 0-1.256.356-1.256 1.068 0 .352.098.622.294.81.195.18.438.269.727.269l-.047 1.326c-.563 0-1.056-.219-1.478-.657-.43-.438-.645-1.017-.645-1.736zm3.602-1.091.082 1.255c.039.712.297 1.068.774 1.068.454 0 .681-.301.681-.904 0-.438-.11-.782-.329-1.032-.227-.258-.559-.387-.997-.387zm2.522-4.469v1.314h-9.116v-1.314z" fill="#fff"/><path d="m0 0h53.092v631.795h-53.092z" fill="#333" transform="translate(558.531)"/><path d="m580.684 608.745c0-1.064.298-1.971.892-2.722.594-.759 1.392-1.208 2.394-1.349l.129 1.455c-.689.117-1.221.414-1.596.891-.383.478-.575 1.068-.575 1.772 0 .876.293 1.58.88 2.112s1.381.798 2.382.798c1.025 0 1.826-.274 2.405-.821.571-.548.857-1.248.857-2.101 0-.696-.18-1.278-.54-1.748-.368-.477-.884-.778-1.549-.903l.129-1.467c.986.164 1.768.622 2.347 1.373.571.743.856 1.643.856 2.699 0 1.282-.402 2.334-1.208 3.156-.806.821-1.905 1.232-3.297 1.232s-2.492-.407-3.297-1.22c-.806-.814-1.209-1.866-1.209-3.157zm2.769-8.437c0-.908.286-1.655.857-2.242.571-.594 1.326-.891 2.264-.891.939 0 1.694.297 2.265.891.571.587.856 1.334.856 2.242 0 .915-.285 1.67-.856 2.264-.571.587-1.326.88-2.265.88-.938 0-1.693-.293-2.264-.88-.571-.594-.857-1.349-.857-2.264zm1.666-1.303c-.359.336-.539.771-.539 1.303 0 .531.18.966.539 1.302.352.336.837.504 1.455.504.611 0 1.096-.168 1.455-.504.352-.336.528-.771.528-1.302 0-.532-.176-.967-.528-1.303-.359-.336-.844-.504-1.455-.504-.618 0-1.103.168-1.455.504zm-1.666-5.547c0-.775.208-1.369.622-1.784.407-.414.994-.622 1.76-.622h3.743v1.326h-.54c.438.462.657 1.005.657 1.631 0 .61-.152 1.099-.457 1.467-.313.36-.747.54-1.303.54-1.126 0-1.732-.736-1.818-2.206l-.082-1.432h-.176c-.837 0-1.256.356-1.256 1.068 0 .352.098.622.294.81.195.18.438.269.727.269l-.047 1.326c-.563 0-1.056-.219-1.478-.657-.431-.438-.646-1.017-.646-1.736zm3.602-1.091.083 1.255c.039.712.297 1.068.774 1.068.454 0 .681-.301.681-.904 0-.438-.11-.782-.329-1.032-.227-.258-.559-.387-.997-.387zm2.523-4.469v1.314h-9.117v-1.314zm-1.56-2.258c0-.25.086-.442.258-.575.172-.141.399-.211.68-.211 1.072 0 1.882.509 2.429 1.525h-.563c-.29-.399-.669-.641-1.138-.727-.016.227-.102.418-.258.575-.157.148-.345.223-.564.223-.234 0-.434-.075-.598-.223-.164-.157-.246-.352-.246-.587zm-6.149-5.469c-.79-.586-1.185-1.373-1.185-2.358 0-.986.395-1.768 1.185-2.347.783-.586 1.889-.88 3.321-.88 1.424 0 2.53.294 3.32.88.79.587 1.185 1.369 1.185 2.347 0 .985-.395 1.772-1.185 2.358-.79.587-1.896.88-3.32.88-1.432 0-2.538-.293-3.321-.88zm.059-2.358c0 1.212 1.087 1.819 3.262 1.819 2.174 0 3.262-.607 3.262-1.819 0-1.205-1.088-1.807-3.262-1.807-2.175 0-3.262.602-3.262 1.807zm6.078-5.121c0-.235.082-.434.246-.599.165-.172.368-.258.61-.258.227 0 .423.086.587.258.164.165.246.364.246.599 0 .227-.082.422-.246.586-.164.165-.36.247-.587.247-.242 0-.445-.082-.61-.247-.164-.164-.246-.359-.246-.586zm-6.676-2.917c-.431-.508-.646-1.161-.646-1.959s.215-1.451.646-1.96c.43-.516 1.016-.774 1.76-.774.837 0 1.447.36 1.83 1.079.196-.399.477-.715.845-.95.367-.235.798-.352 1.29-.352.806 0 1.448.278 1.925.833.477.548.715 1.252.715 2.112 0 .861-.238 1.568-.715 2.124-.477.547-1.119.821-1.925.821-.492 0-.919-.113-1.278-.34-.368-.235-.65-.552-.845-.951-.376.72-.99 1.08-1.842 1.08-.744 0-1.33-.254-1.76-.763zm.927-2.933c-.219.25-.329.571-.329.962s.11.712.329.962c.219.251.52.376.903.376.375 0 .673-.125.892-.376.211-.258.317-.579.317-.962 0-.391-.106-.712-.317-.962-.219-.25-.517-.376-.892-.376-.383 0-.684.126-.903.376zm3.332.974c0 .446.129.817.387 1.114.25.29.598.435 1.044.435.438 0 .786-.145 1.045-.435.258-.297.387-.668.387-1.114 0-.454-.129-.825-.387-1.115-.259-.297-.607-.446-1.045-.446-.446 0-.794.145-1.044.434-.258.29-.387.665-.387 1.127z" fill="#fff"/><path d="m0 0h53.092v631.795h-53.092z" fill="#666" transform="translate(611.621)"/><path d="m632.774 608.745c0-1.064.297-1.971.892-2.722.594-.759 1.392-1.208 2.393-1.349l.13 1.455c-.689.117-1.221.414-1.596.891-.384.478-.575 1.068-.575 1.772 0 .876.293 1.58.88 2.112s1.38.798 2.382.798c1.024 0 1.826-.274 2.405-.821.571-.548.857-1.248.857-2.101 0-.696-.18-1.278-.54-1.748-.368-.477-.884-.778-1.549-.903l.129-1.467c.986.164 1.768.622 2.347 1.373.571.743.856 1.643.856 2.699 0 1.282-.403 2.334-1.208 3.156-.806.821-1.905 1.232-3.297 1.232-1.393 0-2.492-.407-3.297-1.22-.806-.814-1.209-1.866-1.209-3.157zm2.769-8.437c0-.908.286-1.655.857-2.242.571-.594 1.326-.891 2.264-.891.939 0 1.694.297 2.265.891.571.587.856 1.334.856 2.242 0 .915-.285 1.67-.856 2.264-.571.587-1.326.88-2.265.88-.938 0-1.693-.293-2.264-.88-.571-.594-.857-1.349-.857-2.264zm1.666-1.303c-.36.336-.539.771-.539 1.303 0 .531.179.966.539 1.302.352.336.837.504 1.455.504.61 0 1.095-.168 1.455-.504.352-.336.528-.771.528-1.302 0-.532-.176-.967-.528-1.303-.36-.336-.845-.504-1.455-.504-.618 0-1.103.168-1.455.504zm-1.666-5.547c0-.775.207-1.369.622-1.784.407-.414.993-.622 1.76-.622h3.743v1.326h-.54c.438.462.657 1.005.657 1.631 0 .61-.152 1.099-.457 1.467-.313.36-.747.54-1.303.54-1.126 0-1.732-.736-1.818-2.206l-.082-1.432h-.176c-.837 0-1.256.356-1.256 1.068 0 .352.098.622.293.81.196.18.438.269.728.269l-.047 1.326c-.563 0-1.056-.219-1.478-.657-.431-.438-.646-1.017-.646-1.736zm3.602-1.091.082 1.255c.04.712.298 1.068.775 1.068.454 0 .68-.301.68-.904 0-.438-.109-.782-.328-1.032-.227-.258-.559-.387-.997-.387zm2.523-4.469v1.314h-9.117v-1.314zm-1.561-2.258c0-.25.086-.442.259-.575.172-.141.399-.211.68-.211 1.072 0 1.881.509 2.429 1.525h-.563c-.29-.399-.669-.641-1.138-.727-.016.227-.102.418-.259.575-.156.148-.344.223-.563.223-.234 0-.434-.075-.598-.223-.164-.157-.247-.352-.247-.587zm-6.148-5.469c-.79-.586-1.185-1.373-1.185-2.358 0-.986.395-1.768 1.185-2.347.782-.586 1.889-.88 3.321-.88 1.423 0 2.53.294 3.32.88.79.587 1.185 1.369 1.185 2.347 0 .985-.395 1.772-1.185 2.358-.79.587-1.897.88-3.32.88-1.432 0-2.539-.293-3.321-.88zm.059-2.358c0 1.212 1.087 1.819 3.262 1.819 2.174 0 3.262-.607 3.262-1.819 0-1.205-1.088-1.807-3.262-1.807-2.175 0-3.262.602-3.262 1.807zm6.078-5.121c0-.235.082-.434.246-.599.164-.172.368-.258.61-.258.227 0 .423.086.587.258.164.165.246.364.246.599 0 .227-.082.422-.246.586-.164.165-.36.247-.587.247-.242 0-.446-.082-.61-.247-.164-.164-.246-.359-.246-.586zm-7.205-7.164 3.086 2.264c.016-.86.294-1.568.833-2.123.532-.564 1.228-.845 2.089-.845.868 0 1.568.285 2.1.856.524.564.786 1.279.786 2.148 0 .876-.262 1.599-.786 2.17-.532.563-1.232.845-2.1.845-.657 0-1.275-.207-1.854-.622l-4.154-3.027zm7.651 2.3c0-.47-.153-.853-.458-1.15-.305-.298-.716-.446-1.232-.446s-.919.148-1.209.446c-.297.289-.445.672-.445 1.15 0 .563.187.985.563 1.267.289.219.653.328 1.091.328.516 0 .927-.144 1.232-.434.305-.297.458-.684.458-1.161z" fill="#fff"/><path d="m0 0h53.092v631.795h-53.092z" fill="#8c8c8c" transform="translate(664.715)"/><path d="m685.868 608.745c0-1.064.297-1.971.892-2.722.594-.759 1.392-1.208 2.393-1.349l.129 1.455c-.688.117-1.22.414-1.595.891-.384.478-.575 1.068-.575 1.772 0 .876.293 1.58.88 2.112.586.532 1.38.798 2.381.798 1.025 0 1.827-.274 2.406-.821.571-.548.856-1.248.856-2.101 0-.696-.18-1.278-.539-1.748-.368-.477-.884-.778-1.549-.903l.129-1.467c.985.164 1.768.622 2.347 1.373.571.743.856 1.643.856 2.699 0 1.282-.403 2.334-1.208 3.156-.806.821-1.905 1.232-3.298 1.232-1.392 0-2.491-.407-3.297-1.22-.805-.814-1.208-1.866-1.208-3.157zm2.769-8.437c0-.908.285-1.655.856-2.242.571-.594 1.326-.891 2.265-.891s1.693.297 2.265.891c.571.587.856 1.334.856 2.242 0 .915-.285 1.67-.856 2.264-.572.587-1.326.88-2.265.88s-1.694-.293-2.265-.88c-.571-.594-.856-1.349-.856-2.264zm1.666-1.303c-.36.336-.54.771-.54 1.303 0 .531.18.966.54 1.302.352.336.837.504 1.455.504.61 0 1.095-.168 1.455-.504.352-.336.528-.771.528-1.302 0-.532-.176-.967-.528-1.303-.36-.336-.845-.504-1.455-.504-.618 0-1.103.168-1.455.504zm-1.666-5.547c0-.775.207-1.369.622-1.784.407-.414.993-.622 1.76-.622h3.743v1.326h-.54c.438.462.657 1.005.657 1.631 0 .61-.152 1.099-.458 1.467-.312.36-.747.54-1.302.54-1.126 0-1.733-.736-1.819-2.206l-.082-1.432h-.176c-.837 0-1.255.356-1.255 1.068 0 .352.098.622.293.81.196.18.438.269.728.269l-.047 1.326c-.564 0-1.056-.219-1.479-.657-.43-.438-.645-1.017-.645-1.736zm3.602-1.091.082 1.255c.039.712.297 1.068.775 1.068.453 0 .68-.301.68-.904 0-.438-.109-.782-.328-1.032-.227-.258-.56-.387-.998-.387zm2.523-4.469v1.314h-9.117v-1.314zm-1.561-2.258c0-.25.086-.442.258-.575.172-.141.399-.211.681-.211 1.071 0 1.881.509 2.429 1.525h-.564c-.289-.399-.668-.641-1.138-.727-.015.227-.101.418-.258.575-.156.148-.344.223-.563.223-.235 0-.434-.075-.598-.223-.165-.157-.247-.352-.247-.587zm-6.148-5.469c-.79-.586-1.185-1.373-1.185-2.358 0-.986.395-1.768 1.185-2.347.782-.586 1.889-.88 3.32-.88 1.424 0 2.531.294 3.321.88.79.587 1.185 1.369 1.185 2.347 0 .985-.395 1.772-1.185 2.358-.79.587-1.897.88-3.321.88-1.431 0-2.538-.293-3.32-.88zm.059-2.358c0 1.212 1.087 1.819 3.261 1.819 2.175 0 3.262-.607 3.262-1.819 0-1.205-1.087-1.807-3.262-1.807-2.174 0-3.261.602-3.261 1.807zm6.077-5.121c0-.235.083-.434.247-.599.164-.172.367-.258.61-.258.227 0 .422.086.587.258.164.165.246.364.246.599 0 .227-.082.422-.246.586-.165.165-.36.247-.587.247-.243 0-.446-.082-.61-.247-.164-.164-.247-.359-.247-.586zm-1.513-6.707v-1.372h1.244v1.372h1.842v1.373h-1.842v3.684h-1.15l-5.785-3.883v-1.174zm0 3.52v-2.135h-3.168zm-2.382-8.619c0-.783.242-1.42.727-1.913s1.154-.739 2.007-.739c.86 0 1.553.254 2.077.763.516.508.774 1.2.774 2.076 0 .845-.223 1.51-.669 1.995-.453.485-1.071.747-1.854.786l-.082-1.396c.908-.078 1.361-.544 1.361-1.396 0-.454-.144-.806-.434-1.056-.289-.251-.669-.376-1.138-.376s-.841.125-1.115.376c-.273.25-.41.59-.41 1.021 0 .453.141.864.422 1.232v1.29h-4.975v-4.975h1.232v3.591h2.394c-.211-.36-.317-.786-.317-1.279z" fill="#fff"/><path d="m0 0h53.092v631.795h-53.092z" fill="#a6a6a6" transform="translate(717.805)"/><path d="m738.958 608.745c0-1.064.297-1.971.891-2.722.595-.759 1.393-1.208 2.394-1.349l.129 1.455c-.688.117-1.22.414-1.596.891-.383.478-.575 1.068-.575 1.772 0 .876.294 1.58.88 2.112.587.532 1.381.798 2.382.798 1.025 0 1.827-.274 2.406-.821.571-.548.856-1.248.856-2.101 0-.696-.18-1.278-.54-1.748-.367-.477-.883-.778-1.548-.903l.129-1.467c.985.164 1.768.622 2.346 1.373.571.743.857 1.643.857 2.699 0 1.282-.403 2.334-1.209 3.156-.805.821-1.904 1.232-3.297 1.232-1.392 0-2.491-.407-3.297-1.22-.805-.814-1.208-1.866-1.208-3.157zm2.769-8.437c0-.908.285-1.655.856-2.242.571-.594 1.326-.891 2.265-.891.938 0 1.693.297 2.264.891.571.587.857 1.334.857 2.242 0 .915-.286 1.67-.857 2.264-.571.587-1.326.88-2.264.88-.939 0-1.694-.293-2.265-.88-.571-.594-.856-1.349-.856-2.264zm1.666-1.303c-.36.336-.54.771-.54 1.303 0 .531.18.966.54 1.302.352.336.837.504 1.455.504.61 0 1.095-.168 1.455-.504.352-.336.528-.771.528-1.302 0-.532-.176-.967-.528-1.303-.36-.336-.845-.504-1.455-.504-.618 0-1.103.168-1.455.504zm-1.666-5.547c0-.775.207-1.369.622-1.784.406-.414.993-.622 1.76-.622h3.743v1.326h-.54c.438.462.657 1.005.657 1.631 0 .61-.153 1.099-.458 1.467-.313.36-.747.54-1.302.54-1.127 0-1.733-.736-1.819-2.206l-.082-1.432h-.176c-.837 0-1.255.356-1.255 1.068 0 .352.097.622.293.81.196.18.438.269.727.269l-.047 1.326c-.563 0-1.056-.219-1.478-.657-.43-.438-.645-1.017-.645-1.736zm3.602-1.091.082 1.255c.039.712.297 1.068.774 1.068.454 0 .681-.301.681-.904 0-.438-.11-.782-.329-1.032-.226-.258-.559-.387-.997-.387zm2.523-4.469v1.314h-9.117v-1.314zm-1.561-2.258c0-.25.086-.442.258-.575.172-.141.399-.211.681-.211 1.071 0 1.881.509 2.428 1.525h-.563c-.289-.399-.669-.641-1.138-.727-.015.227-.102.418-.258.575-.156.148-.344.223-.563.223-.235 0-.434-.075-.599-.223-.164-.157-.246-.352-.246-.587zm-6.148-5.469c-.79-.586-1.185-1.373-1.185-2.358 0-.986.395-1.768 1.185-2.347.782-.586 1.889-.88 3.32-.88 1.424 0 2.531.294 3.321.88.79.587 1.185 1.369 1.185 2.347 0 .985-.395 1.772-1.185 2.358-.79.587-1.897.88-3.321.88-1.431 0-2.538-.293-3.32-.88zm.058-2.358c0 1.212 1.088 1.819 3.262 1.819 2.175 0 3.262-.607 3.262-1.819 0-1.205-1.087-1.807-3.262-1.807-2.174 0-3.262.602-3.262 1.807zm6.078-5.121c0-.235.082-.434.247-.599.164-.172.367-.258.61-.258.227 0 .422.086.586.258.165.165.247.364.247.599 0 .227-.082.422-.247.586-.164.165-.359.247-.586.247-.243 0-.446-.082-.61-.247-.165-.164-.247-.359-.247-.586zm-7.321-4.595c0-.813.223-1.451.668-1.912.446-.469 1.049-.704 1.807-.704.892 0 1.518.387 1.878 1.161.109-.391.344-.711.704-.962.352-.258.786-.387 1.302-.387.821 0 1.471.254 1.948.763.469.508.704 1.181.704 2.018 0 .876-.231 1.557-.692 2.042-.462.485-1.103.747-1.925.786l-.082-1.397c.97-.078 1.455-.551 1.455-1.419 0-.438-.125-.779-.375-1.021-.251-.243-.603-.364-1.056-.364-.446 0-.783.133-1.009.399-.227.266-.341.626-.341 1.08v.88h-1.243v-.857c0-.383-.114-.696-.341-.939-.226-.25-.535-.375-.927-.375-.399 0-.704.105-.915.317-.211.211-.317.508-.317.891 0 .392.122.7.364.927.235.219.567.341.997.364l-.07 1.385c-.79-.024-1.408-.266-1.854-.728-.453-.469-.68-1.118-.68-1.948zm3.426-6.776c0-.782.242-1.42.727-1.912.485-.493 1.154-.74 2.007-.74.86 0 1.552.255 2.076.763.517.509.775 1.201.775 2.077 0 .845-.223 1.51-.669 1.995-.454.485-1.072.747-1.854.786l-.082-1.397c.907-.078 1.361-.543 1.361-1.396 0-.454-.145-.806-.434-1.056s-.669-.375-1.138-.375-.841.125-1.115.375-.41.591-.41 1.021c0 .454.14.864.422 1.232v1.291h-4.975v-4.975h1.232v3.59h2.394c-.212-.36-.317-.786-.317-1.279z" fill="#fff"/><path d="m0 0h53.092v631.795h-53.092z" fill="#ccc" transform="translate(770.898)"/><path d="m792.051 608.745c0-1.064.298-1.971.892-2.722.595-.759 1.393-1.208 2.394-1.349l.129 1.455c-.689.117-1.22.414-1.596.891-.383.478-.575 1.068-.575 1.772 0 .876.294 1.58.88 2.112.587.532 1.381.798 2.382.798 1.025 0 1.827-.274 2.405-.821.571-.548.857-1.248.857-2.101 0-.696-.18-1.278-.54-1.748-.367-.477-.884-.778-1.549-.903l.129-1.467c.986.164 1.768.622 2.347 1.373.571.743.857 1.643.857 2.699 0 1.282-.403 2.334-1.209 3.156-.806.821-1.905 1.232-3.297 1.232s-2.491-.407-3.297-1.22c-.806-.814-1.209-1.866-1.209-3.157zm2.77-8.437c0-.908.285-1.655.856-2.242.571-.594 1.326-.891 2.265-.891.938 0 1.693.297 2.264.891.571.587.857 1.334.857 2.242 0 .915-.286 1.67-.857 2.264-.571.587-1.326.88-2.264.88-.939 0-1.694-.293-2.265-.88-.571-.594-.856-1.349-.856-2.264zm1.666-1.303c-.36.336-.54.771-.54 1.303 0 .531.18.966.54 1.302.352.336.837.504 1.455.504.61 0 1.095-.168 1.455-.504.352-.336.528-.771.528-1.302 0-.532-.176-.967-.528-1.303-.36-.336-.845-.504-1.455-.504-.618 0-1.103.168-1.455.504zm-1.666-5.547c0-.775.207-1.369.621-1.784.407-.414.994-.622 1.76-.622h3.743v1.326h-.539c.438.462.657 1.005.657 1.631 0 .61-.153 1.099-.458 1.467-.313.36-.747.54-1.302.54-1.127 0-1.733-.736-1.819-2.206l-.082-1.432h-.176c-.837 0-1.256.356-1.256 1.068 0 .352.098.622.294.81.195.18.438.269.727.269l-.047 1.326c-.563 0-1.056-.219-1.478-.657-.43-.438-.645-1.017-.645-1.736zm3.602-1.091.082 1.255c.039.712.297 1.068.774 1.068.454 0 .681-.301.681-.904 0-.438-.11-.782-.329-1.032-.227-.258-.559-.387-.997-.387zm2.522-4.469v1.314h-9.116v-1.314zm-1.56-2.258c0-.25.086-.442.258-.575.172-.141.399-.211.68-.211 1.072 0 1.882.509 2.429 1.525h-.563c-.289-.399-.669-.641-1.138-.727-.016.227-.102.418-.258.575-.157.148-.344.223-.563.223-.235 0-.435-.075-.599-.223-.164-.157-.246-.352-.246-.587zm-6.148-5.469c-.791-.586-1.186-1.373-1.186-2.358 0-.986.395-1.768 1.186-2.347.782-.586 1.889-.88 3.32-.88 1.424 0 2.531.294 3.321.88.79.587 1.185 1.369 1.185 2.347 0 .985-.395 1.772-1.185 2.358-.79.587-1.897.88-3.321.88-1.431 0-2.538-.293-3.32-.88zm.058-2.358c0 1.212 1.087 1.819 3.262 1.819s3.262-.607 3.262-1.819c0-1.205-1.087-1.807-3.262-1.807s-3.262.602-3.262 1.807zm6.078-5.121c0-.235.082-.434.246-.599.165-.172.368-.258.611-.258.226 0 .422.086.586.258.165.165.247.364.247.599 0 .227-.082.422-.247.586-.164.165-.36.247-.586.247-.243 0-.446-.082-.611-.247-.164-.164-.246-.359-.246-.586zm-6.606-2.647c-.477-.461-.716-1.103-.716-1.924s.219-1.459.658-1.913c.43-.453 1.036-.68 1.818-.68.665 0 1.26.145 1.784.434.516.282 1.063.688 1.642 1.22l1.749 1.631v-3.367h1.243v5.291h-1.15l-2.698-2.522c-.532-.501-.962-.841-1.291-1.021-.328-.18-.735-.27-1.22-.27-.399 0-.712.102-.939.305-.234.204-.352.489-.352.857 0 .837.509 1.263 1.526 1.279l-.083 1.396c-.844-.016-1.501-.254-1.971-.716z" fill="#000"/><path d="m0 0h53.092v631.795h-53.092z" fill="#e0e0e0" transform="translate(823.988)"/><path d="m845.141 608.745c0-1.064.298-1.971.892-2.722.595-.759 1.392-1.208 2.394-1.349l.129 1.455c-.689.117-1.221.414-1.596.891-.383.478-.575 1.068-.575 1.772 0 .876.293 1.58.88 2.112s1.381.798 2.382.798c1.025 0 1.826-.274 2.405-.821.571-.548.857-1.248.857-2.101 0-.696-.18-1.278-.54-1.748-.368-.477-.884-.778-1.549-.903l.129-1.467c.986.164 1.768.622 2.347 1.373.571.743.856 1.643.856 2.699 0 1.282-.402 2.334-1.208 3.156-.806.821-1.905 1.232-3.297 1.232s-2.491-.407-3.297-1.22c-.806-.814-1.209-1.866-1.209-3.157zm2.769-8.437c0-.908.286-1.655.857-2.242.571-.594 1.326-.891 2.264-.891.939 0 1.694.297 2.265.891.571.587.856 1.334.856 2.242 0 .915-.285 1.67-.856 2.264-.571.587-1.326.88-2.265.88-.938 0-1.693-.293-2.264-.88-.571-.594-.857-1.349-.857-2.264zm1.666-1.303c-.359.336-.539.771-.539 1.303 0 .531.18.966.539 1.302.352.336.837.504 1.455.504.611 0 1.096-.168 1.455-.504.352-.336.528-.771.528-1.302 0-.532-.176-.967-.528-1.303-.359-.336-.844-.504-1.455-.504-.618 0-1.103.168-1.455.504zm-1.666-5.547c0-.775.208-1.369.622-1.784.407-.414.994-.622 1.76-.622h3.743v1.326h-.54c.438.462.657 1.005.657 1.631 0 .61-.152 1.099-.457 1.467-.313.36-.747.54-1.303.54-1.126 0-1.732-.736-1.818-2.206l-.082-1.432h-.176c-.837 0-1.256.356-1.256 1.068 0 .352.098.622.294.81.195.18.438.269.727.269l-.047 1.326c-.563 0-1.056-.219-1.478-.657-.431-.438-.646-1.017-.646-1.736zm3.602-1.091.083 1.255c.039.712.297 1.068.774 1.068.454 0 .681-.301.681-.904 0-.438-.11-.782-.329-1.032-.227-.258-.559-.387-.997-.387zm2.523-4.469v1.314h-9.117v-1.314zm-1.56-2.258c0-.25.086-.442.258-.575.172-.141.399-.211.68-.211 1.072 0 1.882.509 2.429 1.525h-.563c-.29-.399-.669-.641-1.138-.727-.016.227-.102.418-.258.575-.157.148-.345.223-.564.223-.234 0-.434-.075-.598-.223-.164-.157-.246-.352-.246-.587zm-6.149-5.469c-.79-.586-1.185-1.373-1.185-2.358 0-.986.395-1.768 1.185-2.347.783-.586 1.889-.88 3.321-.88 1.424 0 2.53.294 3.32.88.79.587 1.185 1.369 1.185 2.347 0 .985-.395 1.772-1.185 2.358-.79.587-1.896.88-3.32.88-1.432 0-2.538-.293-3.321-.88zm.059-2.358c0 1.212 1.087 1.819 3.262 1.819 2.174 0 3.262-.607 3.262-1.819 0-1.205-1.088-1.807-3.262-1.807-2.175 0-3.262.602-3.262 1.807zm6.078-5.121c0-.235.082-.434.246-.599.165-.172.368-.258.61-.258.227 0 .423.086.587.258.164.165.246.364.246.599 0 .227-.082.422-.246.586-.164.165-.36.247-.587.247-.242 0-.445-.082-.61-.247-.164-.164-.246-.359-.246-.586zm1.572-4.806v1.385h-6.934l.985 1.337-1.103.669-1.724-2.37v-1.021zm-8.178-2.31c-.477-.461-.716-1.103-.716-1.924s.219-1.459.657-1.912c.431-.454 1.037-.681 1.819-.681.665 0 1.259.145 1.783.434.517.282 1.064.689 1.643 1.22l1.748 1.631v-3.367h1.244v5.292h-1.15l-2.698-2.523c-.532-.501-.963-.841-1.291-1.021-.329-.18-.735-.27-1.22-.27-.399 0-.712.102-.939.305-.235.204-.352.489-.352.857 0 .837.508 1.263 1.525 1.279l-.082 1.396c-.845-.016-1.502-.254-1.971-.716z" fill="#000"/><path d="m0 0h53.092v631.795h-53.092z" fill="#ebebeb" transform="translate(877.082)"/><path d="m898.235 608.745c0-1.064.297-1.971.892-2.722.594-.759 1.392-1.208 2.393-1.349l.129 1.455c-.688.117-1.22.414-1.595.891-.384.478-.575 1.068-.575 1.772 0 .876.293 1.58.88 2.112.586.532 1.38.798 2.382.798 1.024 0 1.826-.274 2.405-.821.571-.548.857-1.248.857-2.101 0-.696-.18-1.278-.54-1.748-.368-.477-.884-.778-1.549-.903l.129-1.467c.986.164 1.768.622 2.347 1.373.571.743.856 1.643.856 2.699 0 1.282-.403 2.334-1.208 3.156-.806.821-1.905 1.232-3.297 1.232-1.393 0-2.492-.407-3.297-1.22-.806-.814-1.209-1.866-1.209-3.157zm2.769-8.437c0-.908.286-1.655.857-2.242.571-.594 1.326-.891 2.264-.891.939 0 1.694.297 2.265.891.571.587.856 1.334.856 2.242 0 .915-.285 1.67-.856 2.264-.571.587-1.326.88-2.265.88-.938 0-1.693-.293-2.264-.88-.571-.594-.857-1.349-.857-2.264zm1.666-1.303c-.36.336-.539.771-.539 1.303 0 .531.179.966.539 1.302.352.336.837.504 1.455.504.61 0 1.095-.168 1.455-.504.352-.336.528-.771.528-1.302 0-.532-.176-.967-.528-1.303-.36-.336-.845-.504-1.455-.504-.618 0-1.103.168-1.455.504zm-1.666-5.547c0-.775.207-1.369.622-1.784.407-.414.993-.622 1.76-.622h3.743v1.326h-.54c.438.462.657 1.005.657 1.631 0 .61-.152 1.099-.457 1.467-.313.36-.747.54-1.303.54-1.126 0-1.732-.736-1.818-2.206l-.083-1.432h-.176c-.837 0-1.255.356-1.255 1.068 0 .352.098.622.293.81.196.18.438.269.728.269l-.047 1.326c-.563 0-1.056-.219-1.479-.657-.43-.438-.645-1.017-.645-1.736zm3.602-1.091.082 1.255c.039.712.298 1.068.775 1.068.453 0 .68-.301.68-.904 0-.438-.109-.782-.328-1.032-.227-.258-.56-.387-.998-.387zm2.523-4.469v1.314h-9.117v-1.314zm-1.561-2.258c0-.25.086-.442.259-.575.172-.141.398-.211.68-.211 1.072 0 1.881.509 2.429 1.525h-.563c-.29-.399-.669-.641-1.138-.727-.016.227-.102.418-.259.575-.156.148-.344.223-.563.223-.234 0-.434-.075-.598-.223-.164-.157-.247-.352-.247-.587zm-6.148-5.469c-.79-.586-1.185-1.373-1.185-2.358 0-.986.395-1.768 1.185-2.347.782-.586 1.889-.88 3.321-.88 1.423 0 2.53.294 3.32.88.79.587 1.185 1.369 1.185 2.347 0 .985-.395 1.772-1.185 2.358-.79.587-1.897.88-3.32.88-1.432 0-2.539-.293-3.321-.88zm.059-2.358c0 1.212 1.087 1.819 3.262 1.819 2.174 0 3.262-.607 3.262-1.819 0-1.205-1.088-1.807-3.262-1.807-2.175 0-3.262.602-3.262 1.807zm6.078-5.121c0-.235.082-.434.246-.599.164-.172.368-.258.61-.258.227 0 .423.086.587.258.164.165.246.364.246.599 0 .227-.082.422-.246.586-.164.165-.36.247-.587.247-.242 0-.446-.082-.61-.247-.164-.164-.246-.359-.246-.586zm-6.137-2.776c-.79-.587-1.185-1.373-1.185-2.358 0-.986.395-1.768 1.185-2.347.782-.587 1.889-.88 3.321-.88 1.423 0 2.53.293 3.32.88s1.185 1.369 1.185 2.347c0 .985-.395 1.771-1.185 2.358s-1.897.88-3.32.88c-1.432 0-2.539-.293-3.321-.88zm.059-2.358c0 1.212 1.087 1.818 3.262 1.818 2.174 0 3.262-.606 3.262-1.818 0-1.205-1.088-1.807-3.262-1.807-2.175 0-3.262.602-3.262 1.807zm-.599-5.38c-.43-.508-.645-1.161-.645-1.959s.215-1.451.645-1.96c.431-.516 1.017-.774 1.76-.774.837 0 1.447.36 1.831 1.08.195-.399.477-.716.845-.951.367-.235.797-.352 1.29-.352.806 0 1.447.278 1.925.833.477.548.715 1.252.715 2.112 0 .861-.238 1.569-.715 2.124-.478.547-1.119.821-1.925.821-.493 0-.919-.113-1.279-.34-.367-.235-.649-.551-.844-.95-.376.719-.99 1.079-1.843 1.079-.743 0-1.329-.254-1.76-.763zm.927-2.933c-.219.25-.328.571-.328.962s.109.712.328.962c.219.251.52.376.904.376.375 0 .672-.125.892-.376.211-.258.316-.579.316-.962 0-.391-.105-.712-.316-.962-.22-.25-.517-.375-.892-.375-.384 0-.685.125-.904.375zm3.333.974c0 .446.129.817.387 1.115.25.289.598.434 1.044.434.438 0 .786-.145 1.044-.434.258-.298.388-.669.388-1.115 0-.454-.13-.825-.388-1.115-.258-.297-.606-.446-1.044-.446-.446 0-.794.145-1.044.435-.258.289-.387.664-.387 1.126z" fill="#000"/><path d="m0 0h53.092v631.795h-53.092z" fill="#f0f0f0" transform="translate(930.172)"/><path d="m951.325 608.745c0-1.064.297-1.971.892-2.722.594-.759 1.392-1.208 2.393-1.349l.129 1.455c-.688.117-1.22.414-1.595.891-.384.478-.575 1.068-.575 1.772 0 .876.293 1.58.88 2.112.586.532 1.38.798 2.381.798 1.025 0 1.827-.274 2.406-.821.571-.548.856-1.248.856-2.101 0-.696-.18-1.278-.539-1.748-.368-.477-.884-.778-1.549-.903l.129-1.467c.985.164 1.768.622 2.347 1.373.571.743.856 1.643.856 2.699 0 1.282-.403 2.334-1.208 3.156-.806.821-1.905 1.232-3.298 1.232-1.392 0-2.491-.407-3.297-1.22-.805-.814-1.208-1.866-1.208-3.157zm2.769-8.437c0-.908.285-1.655.856-2.242.572-.594 1.326-.891 2.265-.891s1.694.297 2.265.891c.571.587.856 1.334.856 2.242 0 .915-.285 1.67-.856 2.264-.571.587-1.326.88-2.265.88s-1.693-.293-2.265-.88c-.571-.594-.856-1.349-.856-2.264zm1.666-1.303c-.36.336-.54.771-.54 1.303 0 .531.18.966.54 1.302.352.336.837.504 1.455.504.61 0 1.095-.168 1.455-.504.352-.336.528-.771.528-1.302 0-.532-.176-.967-.528-1.303-.36-.336-.845-.504-1.455-.504-.618 0-1.103.168-1.455.504zm-1.666-5.547c0-.775.207-1.369.622-1.784.407-.414.993-.622 1.76-.622h3.743v1.326h-.54c.438.462.657 1.005.657 1.631 0 .61-.152 1.099-.458 1.467-.312.36-.747.54-1.302.54-1.126 0-1.733-.736-1.819-2.206l-.082-1.432h-.176c-.837 0-1.255.356-1.255 1.068 0 .352.098.622.293.81.196.18.438.269.728.269l-.047 1.326c-.564 0-1.056-.219-1.479-.657-.43-.438-.645-1.017-.645-1.736zm3.602-1.091.082 1.255c.039.712.297 1.068.775 1.068.453 0 .68-.301.68-.904 0-.438-.109-.782-.328-1.032-.227-.258-.56-.387-.998-.387zm2.523-4.469v1.314h-9.117v-1.314zm-1.561-2.258c0-.25.086-.442.258-.575.172-.141.399-.211.681-.211 1.072 0 1.881.509 2.429 1.525h-.564c-.289-.399-.668-.641-1.138-.727-.015.227-.101.418-.258.575-.156.148-.344.223-.563.223-.235 0-.434-.075-.598-.223-.165-.157-.247-.352-.247-.587zm-6.148-5.469c-.79-.586-1.185-1.373-1.185-2.358 0-.986.395-1.768 1.185-2.347.782-.586 1.889-.88 3.32-.88 1.424 0 2.531.294 3.321.88.79.587 1.185 1.369 1.185 2.347 0 .985-.395 1.772-1.185 2.358-.79.587-1.897.88-3.321.88-1.431 0-2.538-.293-3.32-.88zm.059-2.358c0 1.212 1.087 1.819 3.261 1.819 2.175 0 3.262-.607 3.262-1.819 0-1.205-1.087-1.807-3.262-1.807-2.174 0-3.261.602-3.261 1.807zm6.077-5.121c0-.235.083-.434.247-.599.164-.172.368-.258.61-.258.227 0 .422.086.587.258.164.165.246.364.246.599 0 .227-.082.422-.246.586-.165.165-.36.247-.587.247-.242 0-.446-.082-.61-.247-.164-.164-.247-.359-.247-.586zm-6.136-2.776c-.79-.587-1.185-1.373-1.185-2.358 0-.986.395-1.768 1.185-2.347.782-.587 1.889-.88 3.32-.88 1.424 0 2.531.293 3.321.88s1.185 1.369 1.185 2.347c0 .985-.395 1.771-1.185 2.358s-1.897.88-3.321.88c-1.431 0-2.538-.293-3.32-.88zm.059-2.358c0 1.212 1.087 1.818 3.261 1.818 2.175 0 3.262-.606 3.262-1.818 0-1.205-1.087-1.807-3.262-1.807-2.174 0-3.261.602-3.261 1.807zm-1.127-9.627 3.086 2.264c.016-.86.293-1.568.833-2.123.532-.563 1.228-.845 2.089-.845.868 0 1.568.285 2.1.856.524.564.786 1.279.786 2.148 0 .876-.262 1.599-.786 2.17-.532.564-1.232.845-2.1.845-.657 0-1.275-.207-1.854-.622l-4.154-3.027zm7.65 2.3c0-.47-.152-.853-.457-1.15s-.716-.446-1.232-.446c-.517 0-.919.149-1.209.446-.297.289-.446.673-.446 1.15 0 .563.188.985.564 1.267.289.219.653.328 1.091.328.516 0 .927-.144 1.232-.434.305-.297.457-.684.457-1.161z" fill="#000"/><path d="m0 0h53.092v631.795h-53.092z" fill="#f5f5f5" transform="translate(983.266)"/><path d="m1004.42 608.745c0-1.064.3-1.971.89-2.722.59-.759 1.39-1.208 2.39-1.349l.13 1.455c-.69.117-1.22.414-1.59.891-.39.478-.58 1.068-.58 1.772 0 .876.3 1.58.88 2.112.59.532 1.38.798 2.38.798 1.03 0 1.83-.274 2.41-.821.57-.548.86-1.248.86-2.101 0-.696-.18-1.278-.54-1.748-.37-.477-.89-.778-1.55-.903l.13-1.467c.98.164 1.76.622 2.34 1.373.57.743.86 1.643.86 2.699 0 1.282-.4 2.334-1.21 3.156-.8.821-1.9 1.232-3.3 1.232-1.39 0-2.49-.407-3.29-1.22-.81-.814-1.21-1.866-1.21-3.157zm2.77-8.437c0-.908.28-1.655.85-2.242.58-.594 1.33-.891 2.27-.891s1.69.297 2.26.891c.57.587.86 1.334.86 2.242 0 .915-.29 1.67-.86 2.264-.57.587-1.32.88-2.26.88s-1.69-.293-2.27-.88c-.57-.594-.85-1.349-.85-2.264zm1.66-1.303c-.36.336-.54.771-.54 1.303 0 .531.18.966.54 1.302s.84.504 1.46.504c.61 0 1.09-.168 1.45-.504s.53-.771.53-1.302c0-.532-.17-.967-.53-1.303s-.84-.504-1.45-.504c-.62 0-1.1.168-1.46.504zm-1.66-5.547c0-.775.2-1.369.62-1.784.41-.414.99-.622 1.76-.622h3.74v1.326h-.54c.44.462.66 1.005.66 1.631 0 .61-.15 1.099-.46 1.467-.31.36-.74.54-1.3.54-1.13 0-1.73-.736-1.82-2.206l-.08-1.432h-.18c-.83 0-1.25.356-1.25 1.068 0 .352.1.622.29.81.2.18.44.269.73.269l-.05 1.326c-.56 0-1.05-.219-1.48-.657s-.64-1.017-.64-1.736zm3.6-1.091.08 1.255c.04.712.3 1.068.78 1.068.45 0 .68-.301.68-.904 0-.438-.11-.782-.33-1.032-.23-.258-.56-.387-1-.387zm2.52-4.469v1.314h-9.11v-1.314zm-1.56-2.258c0-.25.09-.442.26-.575.17-.141.4-.211.68-.211 1.07 0 1.88.509 2.43 1.525h-.56c-.29-.399-.67-.641-1.14-.727-.02.227-.1.418-.26.575-.16.148-.34.223-.56.223-.24 0-.44-.075-.6-.223-.17-.157-.25-.352-.25-.587zm-6.15-5.469c-.79-.586-1.18-1.373-1.18-2.358 0-.986.39-1.768 1.18-2.347.79-.586 1.89-.88 3.32-.88s2.53.294 3.32.88c.79.587 1.19 1.369 1.19 2.347 0 .985-.4 1.772-1.19 2.358-.79.587-1.89.88-3.32.88s-2.53-.293-3.32-.88zm.06-2.358c0 1.212 1.09 1.819 3.26 1.819 2.18 0 3.27-.607 3.27-1.819 0-1.205-1.09-1.807-3.27-1.807-2.17 0-3.26.602-3.26 1.807zm6.08-5.121c0-.235.08-.434.25-.599.16-.172.36-.258.61-.258.22 0 .42.086.58.258.17.165.25.364.25.599 0 .227-.08.422-.25.586-.16.165-.36.247-.58.247-.25 0-.45-.082-.61-.247-.17-.164-.25-.359-.25-.586zm-6.14-2.776c-.79-.587-1.18-1.373-1.18-2.358 0-.986.39-1.768 1.18-2.347.79-.587 1.89-.88 3.32-.88s2.53.293 3.32.88 1.19 1.369 1.19 2.347c0 .985-.4 1.771-1.19 2.358s-1.89.88-3.32.88-2.53-.293-3.32-.88zm.06-2.358c0 1.212 1.09 1.818 3.26 1.818 2.18 0 3.27-.606 3.27-1.818 0-1.205-1.09-1.807-3.27-1.807-2.17 0-3.26.602-3.26 1.807zm4.57-9.169v-1.373h1.24v1.373h1.84v1.372h-1.84v3.685h-1.15l-5.78-3.884v-1.173zm0 3.52v-2.136h-3.17z" fill="#000"/><path d="m0 0h53.092v631.795h-53.092z" fill="#00f0b4" transform="translate(1036.36)"/><path d="m1060.94 64.8326v-1.3259l1.06.2582v1.3258l2.07.4928v-1.3728l1.06.2464v1.3728l2.28.5398v1.1616l-2.28-.5515v1.5253l2.28.5398v1.1616l-2.28-.5398v1.3024l-1.06-.2464v-1.3141l-2.07-.4928v1.3611l-1.06-.2582v-1.3493l-2.31-.5632v-1.1499l2.31.5515v-1.5136l-2.31-.5632v-1.1499zm1.06 2.9333 2.07.4928v-1.5253l-2.07-.4928zm-2.3-5.7891c-.79-.5866-1.19-1.3728-1.19-2.3584s.4-1.7678 1.19-2.3466c.78-.5867 1.89-.88 3.32-.88 1.42 0 2.53.2933 3.32.88.79.5866 1.18 1.3688 1.18 2.3466 0 .9856-.39 1.7718-1.18 2.3584-.79.5867-1.9.88-3.32.88-1.43 0-2.54-.2933-3.32-.88zm.06-2.3584c0 1.2125 1.08 1.8187 3.26 1.8187 2.17 0 3.26-.6062 3.26-1.8187 0-1.2046-1.09-1.8069-3.26-1.8069-2.18 0-3.26.6023-3.26 1.8069zm-.06-5.2385c-.79-.5866-1.19-1.3728-1.19-2.3584s.4-1.7678 1.19-2.3466c.78-.5867 1.89-.88 3.32-.88 1.42 0 2.53.2933 3.32.88.79.5866 1.18 1.3689 1.18 2.3466 0 .9856-.39 1.7718-1.18 2.3584-.79.5867-1.9.88-3.32.88-1.43 0-2.54-.2933-3.32-.88zm.06-2.3584c0 1.2125 1.08 1.8187 3.26 1.8187 2.17 0 3.26-.6062 3.26-1.8187 0-1.2046-1.09-1.8069-3.26-1.8069-2.18 0-3.26.6023-3.26 1.8069zm.1-10.2955v4.1184h2.45v-3.4027h1.24v3.4027h3.86v1.3963h-8.78v-5.5147zm-.16-1.8065c-.79-.5866-1.19-1.3728-1.19-2.3584s.4-1.7678 1.19-2.3466c.78-.5867 1.89-.88 3.32-.88 1.42 0 2.53.2933 3.32.88.79.5866 1.18 1.3688 1.18 2.3466 0 .9856-.39 1.7718-1.18 2.3584-.79.5867-1.9.88-3.32.88-1.43 0-2.54-.2933-3.32-.88zm.06-2.3584c0 1.2125 1.08 1.8187 3.26 1.8187 2.17 0 3.26-.6062 3.26-1.8187 0-1.2046-1.09-1.8069-3.26-1.8069-2.18 0-3.26.6023-3.26 1.8069zm-1.13-4.7808v-3.4496c0-.7979.2-1.4393.61-1.9243.41-.4928 1-.7392 1.77-.7392.89 0 1.49.3285 1.81.9856.13-.4068.38-.7353.74-.9856s.81-.3755 1.36-.3755c.8 0 1.42.2542 1.85.7627.43.5084.64 1.1733.64 1.9947v3.7312zm1.23-1.3846h2.45v-2.1002c0-.8057-.4-1.2086-1.2-1.2086-.41 0-.72.1291-.93.3872-.21.2503-.32.5906-.32 1.0208zm3.65 0h2.65v-2.1824c0-.4458-.1-.8057-.31-1.0794-.22-.2738-.56-.4107-1-.4107-.46 0-.79.1369-1.01.4107-.22.2659-.33.6062-.33 1.0208zm.81-11.1621v-1.3728h1.24v1.3728h1.85v1.3728h-1.85v3.6843h-1.15l-5.78-3.8837v-1.1734zm0 3.5201v-2.1355h-3.17z" fill="#000"/><path d="m1057.63 612.758v-3.59c0-.822.24-1.487.72-1.995.47-.508 1.15-.763 2.01-.763s1.54.258 2.02.775c.48.508.72 1.169.72 1.983v2.194h3.31v1.396zm1.23-1.384h2.99v-2.03c0-.438-.13-.798-.38-1.08-.26-.281-.63-.422-1.11-.422s-.85.141-1.11.422c-.26.282-.39.642-.39 1.08zm1.46-9.284h1.28c0 .508.14.915.43 1.22s.66.458 1.1.458h3.28v1.314h-6.02v-1.279h.84c-.61-.29-.91-.861-.91-1.713zm-2.6-1.272c-.16-.165-.24-.36-.24-.587s.08-.422.24-.587c.16-.164.35-.246.58-.246s.42.082.59.246c.15.165.23.36.23.587s-.08.422-.23.587c-.17.156-.36.234-.59.234s-.42-.078-.58-.234zm8.69-1.244v1.314h-6.02v-1.314zm-6.13-8.758c0-.673.23-1.216.68-1.631.46-.415 1.05-.622 1.8-.622h3.65v1.326h-3.45c-.46 0-.81.11-1.07.329s-.39.528-.39.927c0 .367.12.668.35.903.23.227.53.36.9.399h.03 3.63v1.326h-3.45c-.45 0-.8.113-1.06.34-.27.219-.4.508-.4.868 0 .407.14.74.42.998.28.25.63.375 1.05.375h3.44v1.314h-6.02v-1.243h.79c-.6-.345-.9-.924-.9-1.737 0-.876.37-1.514 1.09-1.913-.72-.414-1.09-1.067-1.09-1.959zm0-6.273c0-.774.21-1.369.62-1.783.41-.415 1-.622 1.76-.622h3.75v1.326h-.54c.43.461.65 1.005.65 1.631 0 .61-.15 1.099-.45 1.466-.32.36-.75.54-1.31.54-1.12 0-1.73-.735-1.82-2.206l-.08-1.431h-.17c-.84 0-1.26.356-1.26 1.067 0 .352.1.622.29.81.2.18.44.27.73.27l-.04 1.326c-.57 0-1.06-.219-1.48-.657-.43-.438-.65-1.017-.65-1.737zm3.6-1.091.09 1.255c.03.712.29 1.068.77 1.068.45 0 .68-.301.68-.903 0-.438-.11-.783-.33-1.033-.22-.258-.56-.387-1-.387zm-3.56-6.147h1.28c0 .509.14.916.43 1.221s.66.457 1.1.457h3.28v1.314h-6.02v-1.279h.84c-.61-.289-.91-.86-.91-1.713zm9.08-2.784v1.443l-3.42-1.478-5.59 2.381v-1.466l4.12-1.619-4.12-1.62v-1.466z" fill="#000"/><path d="m0 0h53.092v631.795h-53.092z" fill="#ffdc26" transform="translate(1089.45)"/><path d="m1114.03 64.8326v-1.3259l1.06.2582v1.3258l2.07.4928v-1.3728l1.06.2464v1.3728l2.28.5398v1.1616l-2.28-.5515v1.5253l2.28.5398v1.1616l-2.28-.5398v1.3024l-1.06-.2464v-1.3141l-2.07-.4928v1.3611l-1.06-.2582v-1.3493l-2.31-.5632v-1.1499l2.31.5515v-1.5136l-2.31-.5632v-1.1499zm1.06 2.9333 2.07.4928v-1.5253l-2.07-.4928zm-2.3-5.7891c-.79-.5866-1.19-1.3728-1.19-2.3584s.4-1.7678 1.19-2.3466c.78-.5867 1.89-.88 3.32-.88 1.42 0 2.53.2933 3.32.88.79.5866 1.18 1.3688 1.18 2.3466 0 .9856-.39 1.7718-1.18 2.3584-.79.5867-1.9.88-3.32.88-1.43 0-2.54-.2933-3.32-.88zm.06-2.3584c0 1.2125 1.08 1.8187 3.26 1.8187 2.17 0 3.26-.6062 3.26-1.8187 0-1.2046-1.09-1.8069-3.26-1.8069-2.18 0-3.26.6023-3.26 1.8069zm-.06-5.2385c-.79-.5866-1.19-1.3728-1.19-2.3584s.4-1.7678 1.19-2.3466c.78-.5867 1.89-.88 3.32-.88 1.42 0 2.53.2933 3.32.88.79.5866 1.18 1.3689 1.18 2.3466 0 .9856-.39 1.7718-1.18 2.3584-.79.5867-1.9.88-3.32.88-1.43 0-2.54-.2933-3.32-.88zm.06-2.3584c0 1.2125 1.08 1.8187 3.26 1.8187 2.17 0 3.26-.6062 3.26-1.8187 0-1.2046-1.09-1.8069-3.26-1.8069-2.18 0-3.26.6023-3.26 1.8069zm.1-10.2955v4.1184h2.45v-3.4027h1.24v3.4027h3.86v1.3963h-8.78v-5.5147zm-.16-1.8065c-.79-.5866-1.19-1.3728-1.19-2.3584s.4-1.7678 1.19-2.3466c.78-.5867 1.89-.88 3.32-.88 1.42 0 2.53.2933 3.32.88.79.5866 1.18 1.3688 1.18 2.3466 0 .9856-.39 1.7718-1.18 2.3584-.79.5867-1.9.88-3.32.88-1.43 0-2.54-.2933-3.32-.88zm.06-2.3584c0 1.2125 1.08 1.8187 3.26 1.8187 2.17 0 3.26-.6062 3.26-1.8187 0-1.2046-1.09-1.8069-3.26-1.8069-2.18 0-3.26.6023-3.26 1.8069zm-1.13-4.7808v-3.4496c0-.7979.2-1.4393.61-1.9243.41-.4928 1-.7392 1.77-.7392.89 0 1.49.3285 1.81.9856.13-.4068.38-.7353.74-.9856s.81-.3755 1.36-.3755c.8 0 1.42.2542 1.85.7627.42.5084.64 1.1733.64 1.9947v3.7312zm1.23-1.3846h2.45v-2.1002c0-.8057-.4-1.2086-1.2-1.2086-.41 0-.72.1291-.93.3872-.21.2503-.32.5906-.32 1.0208zm3.65 0h2.65v-2.1824c0-.4458-.1-.8057-.31-1.0794-.22-.2738-.56-.4107-1-.4107-.46 0-.79.1369-1.01.4107-.22.2659-.33.6062-.33 1.0208zm.81-11.1621v-1.3728h1.24v1.3728h1.85v1.3728h-1.85v3.6843h-1.15l-5.78-3.8837v-1.1734zm0 3.5201v-2.1355h-3.17z" fill="#000"/><path d="m1110.72 612.758v-3.59c0-.822.24-1.487.72-1.995.47-.508 1.15-.763 2.01-.763s1.54.258 2.02.775c.48.508.72 1.169.72 1.983v2.194h3.31v1.396zm1.23-1.384h2.99v-2.03c0-.438-.13-.798-.38-1.08-.26-.281-.63-.422-1.11-.422s-.85.141-1.11.422c-.26.282-.39.642-.39 1.08zm1.46-9.284h1.28c0 .508.14.915.43 1.22s.66.458 1.1.458h3.28v1.314h-6.02v-1.279h.84c-.61-.29-.91-.861-.91-1.713zm-2.6-1.272c-.16-.165-.24-.36-.24-.587s.08-.422.24-.587c.16-.164.35-.246.58-.246s.42.082.59.246c.15.165.23.36.23.587s-.08.422-.23.587c-.17.156-.36.234-.59.234s-.42-.078-.58-.234zm8.69-1.244v1.314h-6.02v-1.314zm-6.13-8.758c0-.673.23-1.216.68-1.631.46-.415 1.05-.622 1.8-.622h3.65v1.326h-3.45c-.46 0-.81.11-1.07.329s-.39.528-.39.927c0 .367.12.668.35.903.23.227.53.36.9.399h.03 3.63v1.326h-3.45c-.45 0-.8.113-1.06.34-.27.219-.4.508-.4.868 0 .407.14.74.42.998.28.25.63.375 1.05.375h3.44v1.314h-6.02v-1.243h.79c-.6-.345-.9-.924-.9-1.737 0-.876.37-1.514 1.09-1.913-.72-.414-1.09-1.067-1.09-1.959zm0-6.273c0-.774.21-1.369.62-1.783.41-.415 1-.622 1.76-.622h3.75v1.326h-.54c.43.461.65 1.005.65 1.631 0 .61-.15 1.099-.45 1.466-.32.36-.75.54-1.31.54-1.12 0-1.73-.735-1.82-2.206l-.08-1.431h-.17c-.84 0-1.26.356-1.26 1.067 0 .352.1.622.29.81.2.18.44.27.73.27l-.04 1.326c-.57 0-1.06-.219-1.48-.657-.43-.438-.65-1.017-.65-1.737zm3.6-1.091.09 1.255c.03.712.29 1.068.77 1.068.45 0 .68-.301.68-.903 0-.438-.11-.783-.33-1.033-.22-.258-.56-.387-1-.387zm-3.56-6.147h1.28c0 .509.14.916.43 1.221s.66.457 1.1.457h3.28v1.314h-6.02v-1.279h.84c-.61-.289-.91-.86-.91-1.713zm9.08-2.784v1.443l-3.42-1.478-5.59 2.381v-1.466l4.12-1.619-4.12-1.62v-1.466z" fill="#000"/><path d="m0 0h53.092v631.795h-53.092z" fill="#ffb48a" transform="translate(1142.54)"/><path d="m1167.12 64.8326v-1.3259l1.06.2582v1.3258l2.08.4928v-1.3728l1.05.2464v1.3728l2.28.5398v1.1616l-2.28-.5515v1.5253l2.28.5398v1.1616l-2.28-.5398v1.3024l-1.05-.2464v-1.3141l-2.08-.4928v1.3611l-1.06-.2582v-1.3493l-2.31-.5632v-1.1499l2.31.5515v-1.5136l-2.31-.5632v-1.1499zm1.06 2.9333 2.08.4928v-1.5253l-2.08-.4928zm-2.13-10.8461v4.1184h2.45v-3.4027h1.23v3.4027h3.86v1.3962h-8.78v-5.5146zm0-6.8636v4.1184h2.45v-3.4027h1.23v3.4027h3.86v1.3963h-8.78v-5.5147zm-1.24-1.3489v-3.4496c0-.7978.21-1.4393.61-1.9242.41-.4928 1-.7392 1.78-.7392.88 0 1.48.3285 1.8.9856.14-.4068.38-.7353.74-.9856s.81-.3755 1.36-.3755c.81 0 1.43.2542 1.86.7627.42.5084.63 1.1733.63 1.9946v3.7312zm1.24-1.3845h2.45v-2.1003c0-.8057-.41-1.2085-1.21-1.2085-.41 0-.72.1291-.93.3872-.21.2503-.31.5906-.31 1.0208zm3.64 0h2.66v-2.1824c0-.4459-.11-.8057-.32-1.0795-.22-.2737-.55-.4106-1-.4106s-.79.1369-1.01.4106c-.22.266-.33.6063-.33 1.0208zm.81-11.1621v-1.3728h1.25v1.3728h1.84v1.3728h-1.84v3.6843h-1.15l-5.79-3.8837v-1.1734zm0 3.52v-2.1354h-3.16zm-5.16-6.7541c-.43-.5084-.64-1.1616-.64-1.9594 0-.7979.21-1.451.64-1.9595.43-.5163 1.02-.7744 1.76-.7744.84 0 1.45.3598 1.83 1.0795.2-.399.48-.7158.85-.9504.36-.2347.79-.352 1.29-.352.8 0 1.44.2777 1.92.833.48.5476.72 1.2516.72 2.112 0 .8605-.24 1.5684-.72 2.1238-.48.5475-1.12.8213-1.92.8213-.5 0-.92-.1134-1.28-.3403-.37-.2346-.65-.5514-.85-.9504-.37.7197-.99 1.0795-1.84 1.0795-.74 0-1.33-.2542-1.76-.7627zm.93-2.9333c-.22.2503-.33.571-.33.9621 0 .3912.11.7119.33.9622s.52.3754.9.3754.67-.1251.89-.3754c.21-.2582.32-.5789.32-.9622 0-.3911-.11-.7118-.32-.9621-.22-.2503-.51-.3755-.89-.3755s-.68.1252-.9.3755zm3.33.9739c0 .4458.13.8174.39 1.1146.25.2895.6.4342 1.04.4342s.79-.1447 1.05-.4342c.25-.2972.38-.6688.38-1.1146 0-.4537-.13-.8253-.38-1.1147-.26-.2972-.61-.4459-1.05-.4459s-.79.1448-1.04.4342c-.26.2894-.39.6649-.39 1.1264zm3.99-12.3252v1.537l-1.96.8096v3.919l1.96.8213v1.5253l-8.78-3.7077v-1.1851zm-3.2 5.7258v-2.8512l-3.42 1.4198z" fill="#000"/><path d="m1165.05 605.894v3.121h7.54v1.396h-7.54v3.121h-1.24v-7.638zm5.03-6.027v4.423c.45-.031.82-.191 1.09-.481.27-.289.4-.665.4-1.126 0-.783-.29-1.26-.86-1.432l.07-1.326c.55.118 1.01.431 1.38.939.36.508.55 1.103.55 1.783 0 .9-.28 1.631-.84 2.195-.56.563-1.32.844-2.28.844-.97 0-1.72-.277-2.28-.833-.56-.555-.84-1.279-.84-2.17 0-.861.26-1.545.79-2.054.53-.508 1.26-.762 2.17-.762zm-2.49 2.827c0 .446.13.814.39 1.103.25.29.6.45 1.07.481v-3.085c-.45.015-.8.152-1.06.41-.27.251-.4.614-.4 1.091zm-1.09-7.342h1.28c0 .509.14.915.43 1.221.29.305.66.457 1.11.457h3.27v1.314h-6.02v-1.279h.85c-.61-.289-.92-.86-.92-1.713zm5-3.967c0-.14-.02-.328-.06-.563h1.17c.05.297.07.591.07.88 0 .618-.16 1.107-.48 1.467s-.81.536-1.46.528l-3.03-.012v1.115h-1.14v-1.115l-2.04-.012v-1.326l2.04.012v-1.525h1.14v1.537l2.76.012c.68 0 1.03-.333 1.03-.998zm-7.59-1.9c-.17-.164-.25-.359-.25-.586s.08-.423.25-.587c.15-.164.35-.246.57-.246.23 0 .42.082.59.246.16.164.23.36.23.587s-.07.422-.23.586c-.17.157-.36.235-.59.235-.22 0-.42-.078-.57-.235zm8.68-1.243v1.314h-6.02v-1.314zm-6.12-4.088c0-.775.2-1.369.62-1.784.4-.414.99-.622 1.76-.622h3.74v1.326h-.54c.44.462.66 1.005.66 1.631 0 .61-.16 1.099-.46 1.467-.31.36-.75.539-1.3.539-1.13 0-1.74-.735-1.82-2.205l-.08-1.432h-.18c-.84 0-1.26.356-1.26 1.068 0 .352.1.622.3.809.19.18.44.27.73.27l-.05 1.326c-.56 0-1.06-.219-1.48-.657-.43-.438-.64-1.017-.64-1.736zm3.6-1.092.08 1.256c.04.712.3 1.068.77 1.068.46 0 .68-.302.68-.904 0-.438-.11-.782-.32-1.032-.23-.259-.56-.388-1-.388zm-3.57-6.146h1.28c0 .508.14.915.43 1.22s.66.458 1.11.458h3.27v1.314h-6.02v-1.279h.85c-.61-.29-.92-.861-.92-1.713zm9.08-2.785v1.443l-3.41-1.478-5.6 2.382v-1.467l4.12-1.619-4.12-1.619v-1.467z" fill="#000"/><path d="m0 0h53.092v631.795h-53.092z" fill="#52f5ff" transform="translate(1195.63)"/><path d="m1220.21 59.8326v-1.3259l1.06.2582v1.3258l2.08.4928v-1.3728l1.05.2464v1.3728l2.28.5398v1.1616l-2.28-.5515v1.5253l2.28.5398v1.1616l-2.28-.5398v1.3024l-1.05-.2464v-1.3141l-2.08-.4928v1.3611l-1.06-.2582v-1.3493l-2.31-.5632v-1.1499l2.31.5515v-1.5136l-2.31-.5632v-1.1499zm1.06 2.9333 2.08.4928v-1.5253l-2.08-.4928zm-.06-7.7955c0-.7822.24-1.4197.73-1.9125.48-.4928 1.15-.7392 2.01-.7392s1.55.2542 2.07.7627c.52.5084.78 1.2007.78 2.0768 0 .8448-.23 1.5096-.67 1.9946-.46.485-1.07.747-1.86.7862l-.08-1.3963c.91-.0782 1.36-.5437 1.36-1.3963 0-.4537-.14-.8057-.43-1.056s-.67-.3754-1.14-.3754-.84.1251-1.11.3754c-.28.2503-.41.5906-.41 1.0208 0 .4537.14.8644.42 1.232v1.2907h-4.98v-4.9749h1.24v3.5904h2.39c-.21-.3599-.32-.7862-.32-1.279zm-2.71-4.4874c-.48-.4615-.71-1.103-.71-1.9243s.21-1.4588.65-1.9125c.43-.4537 1.04-.6806 1.82-.6806.67 0 1.26.1447 1.79.4342.51.2816 1.06.6883 1.64 1.2202l1.75 1.631v-3.3675h1.24v5.2917h-1.15l-2.7-2.5226c-.53-.5007-.96-.8409-1.29-1.0208s-.73-.2699-1.22-.2699c-.4 0-.71.1017-.94.3051-.23.2033-.35.4889-.35.8565 0 .837.51 1.2633 1.52 1.2789l-.08 1.3963c-.84-.0156-1.5-.2542-1.97-.7157zm.64-11.5112v4.1184h2.45v-3.4026h1.23v3.4026h3.86v1.3963h-8.78v-5.5147zm2.07-3.8128c0-.7823.24-1.4198.73-1.9126.48-.4928 1.15-.7392 2.01-.7392s1.55.2542 2.07.7627c.52.5084.78 1.2007.78 2.0768 0 .8448-.23 1.5097-.67 1.9947-.46.4849-1.07.747-1.86.7861l-.08-1.3963c.91-.0782 1.36-.5436 1.36-1.3962 0-.4537-.14-.8057-.43-1.056-.29-.2504-.67-.3755-1.14-.3755s-.84.1251-1.11.3755c-.28.2503-.41.5905-.41 1.0208 0 .4536.14.8643.42 1.232v1.2906h-4.98v-4.9749h1.24v3.5904h2.39c-.21-.3598-.32-.7861-.32-1.2789zm-2.07-9.6736v4.1184h2.45v-3.4027h1.23v3.4027h3.86v1.3962h-8.78v-5.5146zm0-6.8636v4.1184h2.45v-3.4026h1.23v3.4026h3.86v1.3963h-8.78v-5.5147z" fill="#000"/><path d="m1218.14 607.243v4.119h2.41v-3.602h1.21v3.602h2.68v-4.119h1.24v5.515h-8.78v-5.515zm7.54-2.765v1.314h-9.12v-1.314zm-2.51-7.35v4.424c.45-.032.82-.192 1.09-.481.27-.29.4-.665.4-1.127 0-.782-.29-1.259-.86-1.431l.07-1.326c.55.117 1.01.43 1.38.938.36.509.55 1.103.55 1.784 0 .9-.28 1.631-.84 2.194s-1.32.845-2.28.845c-.97 0-1.72-.278-2.28-.833-.56-.556-.85-1.279-.85-2.171 0-.86.27-1.545.8-2.053.53-.509 1.26-.763 2.17-.763zm-2.49 2.828c0 .446.13.813.39 1.103.25.289.6.45 1.07.481v-3.086c-.45.016-.8.153-1.06.411-.27.25-.4.614-.4 1.091zm-1.13-6.99c0-.736.21-1.353.62-1.854.4-.509.96-.814 1.66-.915l.12 1.29c-.39.047-.7.208-.93.481-.23.266-.34.599-.34.998 0 .5.18.907.53 1.22.35.305.84.458 1.47.458.61 0 1.1-.157 1.45-.47s.53-.715.53-1.208c0-.407-.11-.739-.32-.998-.21-.266-.5-.43-.88-.492l.12-1.291c.68.117 1.22.426 1.62.927s.6 1.118.6 1.854c0 .884-.28 1.607-.84 2.17-.56.564-1.32.845-2.28.845-.97 0-1.74-.277-2.29-.833-.56-.563-.84-1.291-.84-2.182zm5.04-6.817c0-.141-.02-.329-.06-.563h1.17c.05.297.07.59.07.88 0 .618-.16 1.107-.48 1.466-.32.36-.81.536-1.46.528l-3.03-.011v1.114h-1.14v-1.114l-2.04-.012v-1.326l2.04.012v-1.526h1.14v1.537l2.76.012c.68 0 1.03-.332 1.03-.997zm-5-4.822h1.28c0 .509.14.915.43 1.221.29.305.66.457 1.11.457h3.27v1.314h-6.02v-1.279h.85c-.61-.289-.92-.86-.92-1.713zm-2.59-1.272c-.17-.164-.25-.36-.25-.587 0-.226.08-.422.25-.586.15-.164.35-.247.57-.247.23 0 .42.083.59.247.16.164.23.36.23.586 0 .227-.07.423-.23.587-.17.157-.36.235-.59.235-.22 0-.42-.078-.57-.235zm8.68-1.244v1.315h-6.02v-1.315zm-6.13-4.545c0-.736.21-1.353.62-1.854.4-.509.96-.814 1.66-.915l.12 1.29c-.39.047-.7.208-.93.481-.23.266-.34.599-.34.998 0 .5.18.907.53 1.22.35.305.84.458 1.47.458.61 0 1.1-.157 1.45-.47s.53-.715.53-1.208c0-.407-.11-.739-.32-.998-.21-.266-.5-.43-.88-.492l.12-1.291c.68.117 1.22.426 1.62.927s.6 1.118.6 1.854c0 .884-.28 1.607-.84 2.17-.56.564-1.32.845-2.28.845-.97 0-1.74-.277-2.29-.833-.56-.563-.84-1.291-.84-2.182z" fill="#000"/><path d="m0 0h53.092v631.795h-53.092z" fill="#ffa2f6" transform="translate(1248.73)"/><path d="m1273.31 61.8326v-1.3259l1.05.2582v1.3258l2.08.4928v-1.3728l1.06.2464v1.3728l2.27.5398v1.1616l-2.27-.5515v1.5253l2.27.5398v1.1616l-2.27-.5398v1.3024l-1.06-.2464v-1.3141l-2.08-.4928v1.3611l-1.05-.2582v-1.3493l-2.31-.5632v-1.1499l2.31.5515v-1.5136l-2.31-.5632v-1.1499zm1.05 2.9333 2.08.4928v-1.5253l-2.08-.4928zm-2.13-10.8461v4.1184h2.45v-3.4027h1.23v3.4027h3.86v1.3962h-8.77v-5.5146zm0-6.8636v4.1184h2.45v-3.4027h1.23v3.4027h3.86v1.3963h-8.77v-5.5147zm7.54-7.7184v1.5371l-1.96.8096v3.9189l1.96.8213v1.5254l-8.77-3.7078v-1.185zm-3.2 5.7259v-2.8512l-3.41 1.4197zm-4.97-7.1901c-.48-.4615-.72-1.1029-.72-1.9243 0-.8213.22-1.4588.66-1.9125.43-.4537 1.03-.6805 1.82-.6805.66 0 1.25.1447 1.78.4341.52.2816 1.06.6883 1.64 1.2203l1.75 1.6309v-3.3675h1.24v5.2918h-1.15l-2.7-2.5227c-.53-.5006-.96-.8409-1.29-1.0208-.32-.1799-.73-.2699-1.22-.2699-.39 0-.71.1017-.93.3051-.24.2034-.36.4889-.36.8565 0 .837.51 1.2633 1.53 1.279l-.08 1.3962c-.85-.0156-1.51-.2542-1.97-.7157zm.63-11.5111v4.1184h2.45v-3.4027h1.23v3.4027h3.86v1.3962h-8.77v-5.5146zm-1.23-6.1948 3.08 2.2645c.02-.8604.3-1.5683.84-2.1237.53-.5632 1.22-.8448 2.08-.8448.87 0 1.57.2855 2.1.8565.53.5632.79 1.279.79 2.1472 0 .8761-.26 1.5997-.79 2.1707-.53.5632-1.23.8448-2.1.8448-.65 0-1.27-.2073-1.85-.6219l-4.15-3.0272zm7.65 2.2997c0-.4693-.16-.8526-.46-1.1498-.31-.2973-.72-.4459-1.23-.4459-.52 0-.92.1486-1.21.4459-.3.2894-.45.6727-.45 1.1498 0 .5632.19.9856.57 1.2672.29.2191.65.3286 1.09.3286.51 0 .92-.1447 1.23-.4342.3-.2972.46-.6844.46-1.1616z" fill="#000"/><path d="m1277.53 611.362v-4.154h1.24v5.55h-8.77v-1.396zm-7.44-5.571c-.16-.165-.25-.36-.25-.587s.09-.423.25-.587.35-.246.58-.246c.22 0 .42.082.58.246s.24.36.24.587-.08.422-.24.587c-.16.156-.36.234-.58.234-.23 0-.42-.078-.58-.234zm8.68-1.244v1.314h-6.02v-1.314zm0-3.22v1.314h-9.11v-1.314zm-6.12-4.088c0-.774.21-1.369.62-1.783.41-.415.99-.622 1.76-.622h3.74v1.326h-.54c.44.461.66 1.005.66 1.63 0 .611-.15 1.099-.46 1.467-.31.36-.74.54-1.3.54-1.13 0-1.73-.735-1.82-2.206l-.08-1.431h-.18c-.83 0-1.25.355-1.25 1.067 0 .352.1.622.29.81.2.18.44.27.73.27l-.05 1.326c-.56 0-1.05-.219-1.48-.657-.43-.439-.64-1.017-.64-1.737zm3.6-1.091.08 1.255c.04.712.3 1.068.78 1.068.45 0 .68-.301.68-.903 0-.439-.11-.783-.33-1.033-.23-.258-.56-.387-1-.387zm-3.6-5.795c0-.735.2-1.353.61-1.854.41-.508.96-.813 1.66-.915l.12 1.291c-.39.047-.7.207-.92.481-.23.266-.34.598-.34.997 0 .501.17.908.52 1.221.36.305.84.457 1.47.457.62 0 1.1-.156 1.45-.469.36-.313.53-.716.53-1.209 0-.407-.1-.739-.31-.997-.22-.266-.51-.43-.88-.493l.11-1.291c.68.118 1.22.427 1.62.927.4.501.6 1.119.6 1.854 0 .884-.28 1.608-.83 2.171-.57.563-1.33.845-2.29.845-.97 0-1.73-.278-2.29-.833-.55-.564-.83-1.291-.83-2.183z" fill="#000"/><path d="m0 0h53.092v631.795h-53.092z" fill="#add8ff" transform="translate(1301.82)"/><path d="m1326.4 68.8326v-1.3259l1.05.2582v1.3258l2.08.4928v-1.3728l1.06.2464v1.3728l2.27.5398v1.1616l-2.27-.5515v1.5253l2.27.5398v1.1616l-2.27-.5398v1.3024l-1.06-.2464v-1.3141l-2.08-.4928v1.3611l-1.05-.2582v-1.3493l-2.31-.5632v-1.1499l2.31.5515v-1.5136l-2.31-.5632v-1.1499zm1.05 2.9333 2.08.4928v-1.5253l-2.08-.4928zm5.41-13.0989v1.537l-1.96.8096v3.919l1.96.8213v1.5253l-8.77-3.7077v-1.1851zm-3.2 5.7258v-2.8512l-3.41 1.4198zm-5.57-6.8615v-3.5083c0-1.2593.39-2.288 1.18-3.0858.78-.7979 1.85-1.1968 3.21-1.1968 1.35 0 2.42.4028 3.21 1.2085.78.8057 1.17 1.8382 1.17 3.0976v3.4848zm1.19-1.3845h6.39v-2.112c0-.8761-.28-1.5762-.82-2.1003-.56-.5319-1.35-.7979-2.37-.7979-1.03 0-1.82.2621-2.36.7862-.56.5241-.84 1.2241-.84 2.1002zm-1.19-8.0113v-3.5083c0-1.2594.39-2.288 1.18-3.0859.78-.7978 1.85-1.1968 3.21-1.1968 1.35 0 2.42.4029 3.21 1.2086.78.8056 1.17 1.8382 1.17 3.0976v3.4848zm1.19-1.3846h6.39v-2.112c0-.8761-.28-1.5762-.82-2.1002-.56-.532-1.35-.7979-2.37-.7979-1.03 0-1.82.262-2.36.7861-.56.5241-.84 1.2242-.84 2.1003zm-.67-8.6097c-.43-.5084-.64-1.1616-.64-1.9594 0-.7979.21-1.4511.64-1.9595.43-.5163 1.02-.7744 1.76-.7744.84 0 1.45.3598 1.84 1.0795.19-.399.47-.7158.84-.9504.37-.2347.8-.352 1.29-.352.81 0 1.45.2776 1.92.833.48.5476.72 1.2516.72 2.112 0 .8605-.24 1.5684-.72 2.1238-.47.5475-1.11.8213-1.92.8213-.49 0-.92-.1134-1.28-.3403-.37-.2346-.65-.5514-.84-.9504-.38.7197-.99 1.0795-1.85 1.0795-.74 0-1.33-.2542-1.76-.7627zm.93-2.9333c-.22.2503-.33.571-.33.9621s.11.7118.33.9622c.22.2503.52.3754.91.3754.37 0 .67-.1251.89-.3754.21-.2582.31-.5789.31-.9622 0-.3911-.1-.7118-.31-.9621-.22-.2503-.52-.3755-.89-.3755-.39 0-.69.1252-.91.3755zm3.33.9739c0 .4458.13.8174.39 1.1146.25.2894.6.4342 1.05.4342.43 0 .78-.1448 1.04-.4342.26-.2972.39-.6688.39-1.1146 0-.4537-.13-.8253-.39-1.1147-.26-.2973-.61-.4459-1.04-.4459-.45 0-.8.1447-1.05.4342-.26.2894-.39.6648-.39 1.1264zm-3.55-10.0725v4.1184h2.45v-3.4026h1.23v3.4026h3.86v1.3963h-8.77v-5.5147zm0-6.8635v4.1184h2.45v-3.4027h1.23v3.4027h3.86v1.3963h-8.77v-5.5147z" fill="#000"/><path d="m1330.62 611.362v-4.154h1.24v5.55h-8.77v-1.396zm-1.27-10.945v4.423c.46-.031.82-.191 1.09-.481.27-.289.4-.665.4-1.126 0-.783-.28-1.26-.85-1.432l.07-1.326c.54.118 1 .431 1.37.939s.55 1.103.55 1.783c0 .9-.28 1.631-.83 2.195-.57.563-1.33.844-2.29.844s-1.72-.277-2.28-.833c-.56-.555-.84-1.279-.84-2.17 0-.861.26-1.545.8-2.054.53-.508 1.25-.762 2.17-.762zm-2.49 2.827c0 .446.13.814.39 1.103.25.29.61.45 1.07.481v-3.085c-.45.015-.8.152-1.06.41-.26.251-.4.614-.4 1.091zm-1.12-6.532c0-.775.21-1.369.62-1.784.41-.414.99-.621 1.76-.621h3.74v1.325h-.54c.44.462.66 1.006.66 1.631 0 .61-.15 1.099-.46 1.467-.31.36-.74.54-1.3.54-1.13 0-1.73-.736-1.82-2.206l-.08-1.432h-.18c-.83 0-1.25.356-1.25 1.068 0 .352.1.622.29.81.2.18.44.27.73.27l-.05 1.325c-.56 0-1.05-.219-1.48-.657s-.64-1.016-.64-1.736zm3.6-1.091.08 1.255c.04.712.3 1.068.78 1.068.45 0 .68-.301.68-.904 0-.438-.11-.782-.33-1.032-.23-.258-.56-.387-1-.387zm2.52-8.904v1.244h-.83c.28.172.51.434.69.786.17.344.26.743.26 1.197 0 .852-.28 1.548-.84 2.088-.58.54-1.33.81-2.28.81s-1.7-.27-2.26-.81c-.58-.54-.86-1.236-.86-2.088 0-.431.08-.814.23-1.15.15-.337.35-.591.6-.763h-3.82v-1.314zm-5 3.015c0 .524.18.951.53 1.279.35.329.84.493 1.47.493s1.11-.164 1.47-.493c.34-.328.51-.755.51-1.279 0-.508-.16-.919-.48-1.232s-.77-.469-1.35-.469h-.31c-.58 0-1.03.156-1.35.469s-.49.724-.49 1.232z" fill="#000"/><path d="m0 0h53.092v631.795h-53.092z" fill="#ffafaf" transform="translate(1354.91)"/><g fill="#000"><path d="m1379.49 62.8326v-1.3259l1.06.2582v1.3258l2.07.4928v-1.3728l1.06.2464v1.3728l2.28.5398v1.1616l-2.28-.5515v1.5253l2.28.5398v1.1616l-2.28-.5398v1.3024l-1.06-.2464v-1.3141l-2.07-.4928v1.3611l-1.06-.2582v-1.3493l-2.31-.5632v-1.1499l2.31.5515v-1.5136l-2.31-.5632v-1.1499zm1.06 2.9333 2.07.4928v-1.5253l-2.07-.4928zm-2.14-10.8461v4.1184h2.45v-3.4027h1.24v3.4027h3.86v1.3962h-8.78v-5.5146zm0-6.8636v4.1184h2.45v-3.4027h1.24v3.4027h3.86v1.3963h-8.78v-5.5147zm7.55-7.7184v1.5371l-1.96.8096v3.9189l1.96.8213v1.5254l-8.78-3.7078v-1.185zm-3.21 5.7259v-2.8512l-3.41 1.4197zm-4.34-12.3762v4.1184h2.45v-3.4027h1.24v3.4027h3.86v1.3962h-8.78v-5.5146zm7.55-7.7185v1.5371l-1.96.8096v3.9189l1.96.8214v1.5253l-8.78-3.7077v-1.1851zm-3.21 5.7259v-2.8512l-3.41 1.4197zm-4.34-12.3762v4.1184h2.45v-3.4027h1.24v3.4027h3.86v1.3963h-8.78v-5.5147z"/><path d="m1376.06 608.745c0-1.064.3-1.971.89-2.722.6-.759 1.4-1.208 2.4-1.349l.13 1.455c-.69.117-1.22.414-1.6.891-.38.478-.57 1.068-.57 1.772 0 .876.29 1.58.88 2.112.58.532 1.38.798 2.38.798 1.02 0 1.83-.274 2.4-.821.58-.548.86-1.248.86-2.101 0-.696-.18-1.278-.54-1.748-.37-.477-.88-.778-1.55-.903l.13-1.467c.99.164 1.77.622 2.35 1.373.57.743.85 1.643.85 2.699 0 1.282-.4 2.334-1.2 3.156-.81.821-1.91 1.232-3.3 1.232s-2.49-.407-3.3-1.22c-.8-.814-1.21-1.866-1.21-3.157zm2.77-8.437c0-.908.29-1.655.86-2.242.57-.594 1.32-.891 2.26-.891s1.7.297 2.27.891c.57.587.85 1.334.85 2.242 0 .915-.28 1.67-.85 2.264-.57.587-1.33.88-2.27.88s-1.69-.293-2.26-.88c-.57-.594-.86-1.349-.86-2.264zm1.67-1.303c-.36.336-.54.771-.54 1.303 0 .531.18.966.54 1.302.35.336.84.504 1.45.504s1.1-.168 1.46-.504c.35-.336.53-.771.53-1.302 0-.532-.18-.967-.53-1.303-.36-.336-.85-.504-1.46-.504s-1.1.168-1.45.504zm-1.63-6.357h1.28c0 .509.14.915.43 1.22s.66.458 1.1.458h3.28v1.314h-6.02v-1.279h.84c-.61-.289-.91-.86-.91-1.713zm-.04-3.384c0-.774.21-1.369.62-1.783.41-.415 1-.622 1.76-.622h3.75v1.326h-.54c.44.461.65 1.005.65 1.63 0 .611-.15 1.099-.45 1.467-.32.36-.75.54-1.31.54-1.12 0-1.73-.735-1.81-2.206l-.09-1.431h-.17c-.84 0-1.26.355-1.26 1.067 0 .352.1.622.3.81.19.18.43.27.72.27l-.04 1.326c-.57 0-1.06-.219-1.48-.657-.43-.439-.65-1.017-.65-1.737zm3.6-1.091.09 1.255c.04.712.29 1.068.77 1.068.45 0 .68-.301.68-.903 0-.439-.11-.783-.33-1.033-.22-.258-.56-.387-.99-.387zm2.53-4.469v1.314h-9.12v-1.314z"/></g></g></g></svg>