<svg fill="none" height="340" viewBox="0 0 340 340" width="340" xmlns="http://www.w3.org/2000/svg"><path d="m0 0h340v340h-340z" fill="#f3f3f3"/><path clip-rule="evenodd" d="m255.896 123.195c-20.168-21-49.087-41.0802-85.9-41.0802s-65.732 20.0802-85.9 41.0802c-19.5037 20.31-30.4497 41.106-31.983 44.118-.6569 2.106-.6692 4.165-.037 6.27.1692.288.3877.669.6554 1.135 3.2508 5.669 13.7558 23.987 31.3572 42.206 20.1724 20.88 49.0934 40.961 85.9074 40.961 36.813 0 65.732-20.08 85.9-41.08 20.147-20.98 31.162-42.478 32.104-44.358.155-.309.381-1.198.381-2.447s-.226-2.138-.381-2.447c-.942-1.88-11.957-23.378-32.104-44.358zm-207.1358 51.888c-1.0188-3.05-1.0188-6.1 0-9.15 2.0376-4.066 44.8267-87.433 121.2358-87.433 76.409 0 119.198 83.367 121.236 87.433 1.019 2.034 1.019 6.1 0 8.134-2.038 4.066-44.827 87.433-121.236 87.433-71.9203 0-114.0548-73.859-120.4562-85.081-.3996-.7-.6599-1.156-.7796-1.336zm121.2438-42.135c-20.424 0-37.137 16.689-37.137 37.052s16.713 37.052 37.137 37.052 37.137-16.689 37.137-37.052-16.713-37.052-37.137-37.052zm-40.752 37.052c0-22.367 18.338-40.667 40.752-40.667 22.413 0 40.751 18.3 40.751 40.667s-18.338 40.667-40.751 40.667c-22.414 0-40.752-18.3-40.752-40.667z" fill="#000" fill-rule="evenodd"/></svg>