<svg fill="none" height="600" viewBox="0 0 600 600" width="600" xmlns="http://www.w3.org/2000/svg"><path d="m0 0h600v600h-600z" fill="#05bb94"/><g fill="#fff"><path d="m299.92 204c6.001 0 10.866 4.864 10.866 10.864s-4.865 10.864-10.866 10.864c-.004 0-.008 0-.011 0h.011c-40.973 0-74.188 33.209-74.188 74.174 0 40.966 33.215 74.175 74.188 74.175 13.321 0 25.822-3.511 36.628-9.656 1.656-1.021 3.606-1.61 5.694-1.61 6.001 0 10.866 4.864 10.866 10.864 0 3.949-2.107 7.406-5.259 9.308l.005.007c-14.103 8.15-30.474 12.815-47.934 12.815-52.975 0-95.92-42.937-95.92-95.903 0-52.903 42.843-95.801 95.732-95.902.063.001.125 0 .188 0z"/><path d="m332.872 280.189.007.008c3.858 4.597 3.258 11.448-1.341 15.306l-35.301 29.617c-1.628 1.365-3.539 2.172-5.5 2.44-.019.003-.037.005-.056.008-.018.002-.035.005-.053.007-3.226.419-6.605-.608-9.085-3.082l-.007-.008-17.884-17.88c-4.244-4.244-4.244-11.12 0-15.364 4.239-4.239 11.116-4.242 15.359-.008l.008.008 10.855 10.853 27.695-23.235c4.594-3.854 11.445-3.258 15.303 1.33z"/><path d="m363.242 299.999v-.187c0-3.466 2.813-6.275 6.282-6.275h20.018c3.469 0 6.282 2.809 6.282 6.275v.187c0 3.466-2.813 6.275-6.282 6.275h-20.018c-3.469 0-6.282-2.809-6.282-6.275z"/><path d="m354.721 331.679.092-.159c1.732-3.002 5.574-4.033 8.58-2.302.002.001.004.003.007.004l17.339 10.014c3.001 1.733 4.029 5.567 2.298 8.566l-.091.159c-1.733 3.002-5.575 4.033-8.58 2.302-.003-.002-.005-.003-.007-.004l-17.34-10.014c-3.001-1.733-4.029-5.567-2.298-8.566z"/><path d="m354.84 268.428-.092-.158c-1.731-3-.703-6.833 2.298-8.566l17.34-10.014c3.003-1.735 6.846-.709 8.583 2.291.001.002.002.005.004.007l.091.158c1.731 3 .703 6.833-2.298 8.566l-17.339 10.014c-3.004 1.735-6.847.709-8.583-2.291-.002-.002-.003-.005-.004-.007z"/><path d="m331.745 245.159-.15-.087c-3.001-1.733-4.029-5.567-2.298-8.566l10.016-17.353c1.733-3.002 5.574-4.033 8.58-2.302.002.001.004.002.007.004l.15.086c3.001 1.733 4.029 5.567 2.298 8.566l-10.016 17.353c-1.733 3.003-5.574 4.033-8.58 2.303-.002-.002-.004-.003-.007-.004z"/></g></svg>