<svg fill="none" height="600" viewBox="0 0 600 600" width="600" xmlns="http://www.w3.org/2000/svg"><path d="m0 0h600v600h-600z" fill="#e8e8e8"/><g clip-rule="evenodd" fill-rule="evenodd"><path d="m210.001 219.225v50.949l50.949-50.949zm100.898.999-100.899 100.899v50.947l132.907-132.907c-8.011-9.63-19.235-16.49-32.008-18.939zm-85.786 187.682 130.453-130.453c-.665 12.132-5.275 23.574-13.084 32.714 5.48 5.308 9.803 11.628 12.757 18.561l-79.177 79.178z" fill="#000"/><path d="m327.716 192.001h-39.542l-50.947 50.948v50.949l100.899-100.899c-3.375-.647-6.852-.998-10.41-.998zm55.17 55.17c0-13.385-4.794-25.669-12.752-35.233l-132.907 132.907v35.836h15.113l130.453-130.454c.055-1.014.093-2.032.093-3.056zm-.421 54.332c2.961 6.95 4.549 14.516 4.549 22.294 0 .091-.001.184-.004.274.003.117.004.213.004.312 0 20.131-9.537 37.358-26.172 47.286-9.174 5.896-19.79 9.012-30.71 9.012h-26.844z" fill="#00cfbe"/></g></svg>