<svg fill="none" height="600" viewBox="0 0 600 600" width="600" xmlns="http://www.w3.org/2000/svg"><path d="m0 0h600v600h-600z" fill="#166df9"/><path clip-rule="evenodd" d="m189.401 346.228c-15.201-15.129-15.201-39.659 0-54.788l41.287-41.093c12.851-12.79 32.451-14.768 47.389-5.934 4.621 2.733 4.58 9 .78 12.783-3.801 3.782-10.004 3.457-15.163 1.955-6.605-1.923-14.033-.292-19.243 4.894l-41.288 41.092c-7.6 7.565-7.6 19.829 0 27.394 7.601 7.565 19.924 7.565 27.525 0l82.574-82.183c15.202-15.13 39.848-15.13 55.049 0l41.288 41.092c15.201 15.129 15.201 39.659 0 54.788-15.201 15.13-39.848 15.13-55.049 0l-13.763-13.697-17.203 17.122c-12.85 12.79-32.45 14.768-47.388 5.934-4.621-2.733-4.58-9-.78-12.783 3.801-3.782 10.004-3.457 15.162-1.955 6.606 1.923 14.034.291 19.244-4.894l17.694-17.61c7.33-7.295 19.213-7.295 26.542 0l14.254 14.186c7.601 7.565 19.924 7.565 27.525 0 7.6-7.565 7.6-19.829-.001-27.394l-41.287-41.092c-7.601-7.565-19.924-7.565-27.525 0l-82.574 82.184c-15.201 15.129-39.848 15.129-55.049-.001z" fill="#fff" fill-rule="evenodd"/></svg>