<svg width="696" height="696" viewBox="0 0 696 696" fill="none" xmlns="http://www.w3.org/2000/svg">
<g clip-path="url(#clip0_1433_54804)">
<rect width="696" height="696" fill="#010101"/>
<path d="M-1640.43 701.494C-1707.4 701.494 -1758.81 677.526 -1794.67 629.588C-1830.54 581.651 -1848.47 504.439 -1848.47 397.952V13.1736H-1585.54V252.494C-1585.54 270.425 -1585.36 285.245 -1584.99 296.955C-1584.63 308.665 -1583.71 322.021 -1582.25 337.025C-1580.42 351.662 -1577.86 363.738 -1574.57 373.252C-1570.91 382.4 -1566.33 391.366 -1560.84 400.148C-1554.99 408.565 -1547.49 414.785 -1538.34 418.811C-1529.19 422.836 -1518.58 424.849 -1506.5 424.849C-1496.26 424.849 -1487.47 423.751 -1480.15 421.555C-1472.84 418.994 -1465.15 413.322 -1457.1 404.539C-1448.68 395.391 -1442.1 382.949 -1437.34 367.214C-1432.22 351.479 -1428.01 329.523 -1424.72 301.346C-1421.06 272.803 -1419.23 238.589 -1419.23 198.702V13.1736H-1155.76V687.772H-1422.52L-1340.26 304.639H-1391.23C-1398.92 378.924 -1408.8 440.584 -1420.87 489.619C-1432.58 538.654 -1448.32 579.455 -1468.08 612.023C-1487.84 644.226 -1511.63 667.279 -1539.44 681.185C-1566.88 694.724 -1600.55 701.494 -1640.43 701.494Z" fill="#F3491D"/>
<path d="M-825.339 687.772H-1088.26V13.1736H-822.046L-903.755 396.855H-853.333C-837.964 250.115 -812.166 147.288 -775.938 88.3729C-739.345 29.4576 -681.893 0 -603.584 0C-536.618 0 -485.204 23.9686 -449.343 71.9059C-413.481 119.843 -395.551 197.055 -395.551 303.542V687.772H-659.023V448.451C-659.023 430.886 -659.205 416.432 -659.571 405.088C-659.937 393.378 -660.852 380.205 -662.316 365.567C-663.78 350.564 -666.158 338.488 -669.452 329.34C-672.379 319.826 -676.404 310.677 -681.527 301.895C-686.65 293.113 -693.42 286.709 -701.837 282.683C-710.253 278.292 -719.95 276.097 -730.928 276.097C-744.834 276.097 -757.093 278.841 -767.705 284.33C-777.951 289.819 -786.55 298.602 -793.503 310.677C-800.456 322.387 -806.128 335.378 -810.519 349.649C-814.544 363.921 -817.655 382.4 -819.85 405.088C-822.046 427.41 -823.51 449.183 -824.241 470.407C-824.973 491.631 -825.339 517.613 -825.339 548.351V687.772Z" fill="#F3491D"/>
<path d="M15.0432 701.494C-41.3105 701.494 -93.0901 692.346 -140.295 674.049C-187.501 655.753 -227.022 630.869 -258.858 599.399C-290.694 567.563 -315.395 530.42 -332.959 487.972C-350.524 445.524 -359.307 400.148 -359.307 351.845C-359.307 313.422 -353.818 276.646 -342.84 241.516C-331.496 206.02 -315.029 173.635 -293.439 144.361C-271.849 115.086 -246.05 89.6537 -216.044 68.0636C-186.037 46.4735 -151.273 29.8236 -111.753 18.1137C-72.2319 6.0379 -29.9666 0 15.0432 0C70.2991 0 121.347 9.3313 168.186 27.9939C215.392 46.6565 254.913 71.9059 286.749 103.742C318.585 135.212 343.468 172.538 361.399 215.718C379.33 258.532 388.295 303.908 388.295 351.845C388.295 400.148 379.513 445.524 361.948 487.972C344.749 530.42 320.415 567.563 288.944 599.399C257.474 630.869 218.136 655.753 170.931 674.049C123.725 692.346 71.7629 701.494 15.0432 701.494ZM-83.7588 428.142C-58.5094 445.341 -25.5754 453.94 15.0432 453.94C55.6618 453.94 88.7788 445.341 114.394 428.142C140.375 410.943 153.366 385.511 153.366 351.845C153.366 318.179 140.375 292.747 114.394 275.548C88.7788 257.983 55.6618 249.201 15.0432 249.201C-24.8435 249.201 -57.5945 257.983 -83.2099 275.548C-108.825 292.747 -121.633 318.179 -121.633 351.845C-121.633 385.511 -109.008 410.943 -83.7588 428.142Z" fill="#F3491D"/>
<path d="M547.493 695.899C502.849 695.899 466.804 682.726 439.359 656.378C411.914 630.031 398.192 597.463 398.192 558.674C398.192 520.251 412.097 487.683 439.908 460.97C467.719 433.891 503.581 420.351 547.493 420.351C591.039 420.351 626.717 433.891 654.528 460.97C682.339 487.683 696.245 520.251 696.245 558.674C696.245 597.463 682.522 630.031 655.077 656.378C627.632 682.726 591.771 695.899 547.493 695.899Z" fill="#F3491D"/>
</g>
<defs>
<clipPath id="clip0_1433_54804">
<rect width="696" height="696" fill="white"/>
</clipPath>
</defs>
</svg>
